<?xml version="1.0" encoding="UTF-8"?>
<svg width="31px" height="31px" viewBox="0 0 31 31" version="1.1" xmlns="http://www.w3.org/2000/svg" xmlns:xlink="http://www.w3.org/1999/xlink">
    <title>手环 - 实心</title>
    <defs>
        <filter id="filter-1">
            <feColorMatrix in="SourceGraphic" type="matrix" values="0 0 0 0 0.000000 0 0 0 0 0.922101 0 0 0 0 0.917809 0 0 0 1.000000 0"></feColorMatrix>
        </filter>
    </defs>
    <g id="页面-1" stroke="none" stroke-width="1" fill="none" fill-rule="evenodd">
        <g id="AI手环传感器-2" transform="translate(-3181.000000, -250.000000)">
            <g id="手环---实心" transform="translate(3157.000000, 219.000000)" filter="url(#filter-1)">
                <g transform="translate(24.543353, 31.213873)">
                    <path d="M6.53923042,17.2317034 L6.53923024,17.2317032 C7.60473291,18.2907706 9.32544111,18.2907734 10.3909324,17.2317035 L17.2462418,10.3770225 L17.2462418,10.3770225 C18.3053092,9.31151981 18.3053092,7.59081161 17.2462417,6.52532036 L17.2462419,6.52532047 C16.1807392,5.46625306 14.460031,5.46625306 13.3945397,6.52532024 L6.53923033,13.3800013 L6.53923003,13.3800016 C5.48016261,14.4455042 5.48016261,16.1662124 6.53923062,17.2317037 L6.53923042,17.2317034 Z M10.1698829,2.40186899 L10.1698829,2.40186899 C10.8314894,2.33830158 11.3162991,1.75043093 11.2527291,1.08882442 C11.1895279,0.431028227 10.6077463,-0.0527560018 9.94945882,0.00507851278 C7.44182076,0.235636799 5.0482065,1.37512641 3.21005836,3.21325455 C1.38142744,5.04188547 0.243840137,7.422852 0.00568121628,9.91717966 L0.00568120918,9.91717974 C-0.0574900303,10.5788262 0.427669225,11.1664058 1.08931572,11.2295759 C1.08935471,11.2295796 1.0893937,11.2295834 1.08943268,11.2295871 C1.12828132,11.2333875 1.16691888,11.2352877 1.20534507,11.2352877 L1.20534512,11.2352877 C1.82523811,11.2344868 2.34311523,10.762943 2.40184091,10.1458377 C2.58679425,8.2069962 3.47862314,6.3492338 4.91264376,4.91519605 C6.34666437,3.48117543 8.22090481,2.58111009 10.1698777,2.40185966 L10.1698829,2.40186899 Z M6.18958982,10.3998442 L6.1895897,10.3998453 C6.43746663,8.17723534 8.19543451,6.42480784 10.41881,6.18393543 L10.41881,6.18393543 C11.0791369,6.10820643 11.5530469,5.51151494 11.4773176,4.85119091 C11.4039542,4.21149228 10.8400754,3.74286933 10.1977518,3.78777905 L10.1977517,3.78777906 C6.82276733,4.1349204 4.15160567,6.7973846 3.79342471,10.1711979 L3.79342471,10.1711979 C3.73025347,10.8328444 4.21541273,11.420424 4.87705922,11.4835941 C4.87709818,11.4835978 4.87713713,11.4836015 4.87717608,11.4836052 C4.91602472,11.4874056 4.95466228,11.4893058 4.99308847,11.4893058 L4.99308852,11.4893058 C5.61298151,11.488505 6.13085863,11.0169611 6.18958431,10.3998559 L6.18958982,10.3998442 Z M26.2823707,7.92704455 C24.8192129,6.46388674 22.9297798,5.49351625 20.817369,5.1204425 L20.8173691,5.12044251 C20.1621693,5.00873718 19.5404682,5.44932633 19.4287637,6.10452614 C19.318001,6.754199 19.7503868,7.37211543 20.3986915,7.49062934 C22.0220996,7.77755971 23.4681653,8.51674068 24.5791546,9.62899253 C28.032459,13.0822969 27.4927882,19.2427524 23.3756923,23.3611479 C21.0796124,25.6572278 18.1495064,26.8410445 15.40688,26.8410445 C13.2298795,26.8410445 11.1719471,26.094897 9.64293709,24.5664983 C8.53258468,23.4561459 7.79340371,22.0119882 7.50583924,20.3917478 L7.50583926,20.3917479 C7.3896998,19.7372393 6.76496451,19.3008041 6.11045592,19.4169415 C5.45594734,19.533081 5.01951212,20.1578163 5.13564958,20.8123249 C5.50998868,22.9209196 6.47972793,24.8078135 7.94098629,26.2690719 C9.88109604,28.2079134 12.4983106,29.2486005 15.391693,29.2486005 C15.7092373,29.2486005 16.0299521,29.2359325 16.3538288,29.2105965 C19.554407,28.9604028 22.6530151,27.4871091 25.0776774,25.0624382 C27.5023398,22.6377759 28.9749948,19.5397962 29.2251788,16.34176 C29.4804395,13.0670606 28.4353269,10.0799628 26.2823822,7.92702098 L26.2823707,7.92704455 Z" id="形状" fill="#000000" fill-rule="nonzero"></path>
                </g>
            </g>
        </g>
    </g>
</svg>