<svg width="164" height="164" viewBox="0 0 164 164" xmlns="http://www.w3.org/2000/svg" xmlns:xlink="http://www.w3.org/1999/xlink"><defs><circle id="path-1" cx="72" cy="72" r="72"/><filter x="-10.4%" y="-10.4%" width="120.8%" height="120.8%" filterUnits="objectBoundingBox" id="filter-2"><feOffset in="SourceAlpha" result="shadowOffsetOuter1"/><feGaussianBlur stdDeviation="5" in="shadowOffsetOuter1" result="shadowBlurOuter1"/><feComposite in="shadowBlurOuter1" in2="SourceAlpha" operator="out" result="shadowBlurOuter1"/><feColorMatrix values="0 0 0 0 0.380392157 0 0 0 0 0.619607843 0 0 0 0 0.964705882 0 0 0 0.6 0" in="shadowBlurOuter1"/></filter><filter x="-13.9%" y="-13.9%" width="127.8%" height="127.8%" filterUnits="objectBoundingBox" id="filter-3"><feGaussianBlur stdDeviation="10" in="SourceAlpha" result="shadowBlurInner1"/><feOffset in="shadowBlurInner1" result="shadowOffsetInner1"/><feComposite in="shadowOffsetInner1" in2="SourceAlpha" operator="arithmetic" k2="-1" k3="1" result="shadowInnerInner1"/><feColorMatrix values="0 0 0 0 0.380392157 0 0 0 0 0.619607843 0 0 0 0 0.964705882 0 0 0 1 0" in="shadowInnerInner1"/></filter></defs><g id="页面-1" stroke="none" stroke-width="1" fill="none" fill-rule="evenodd"><g id="标准区屏POI点位分类" transform="translate(-1819 -548)"><g id="蓝色" transform="translate(1829 558)"><g fill-rule="nonzero"><use fill="#000" filter="url(#filter-2)" xlink:href="#path-1"/><use fill-opacity=".8" fill="#020F2B" xlink:href="#path-1"/><use fill="#000" filter="url(#filter-3)" xlink:href="#path-1"/><circle stroke="#619EF6" stroke-width="3" stroke-linejoin="square" cx="72" cy="72" r="70.5"/></g><g id="教育机构-" transform="translate(52 17.124)"><path id="bg" fill-opacity="0" fill="#FFF" d="M0 0h44v44H0z"/><path id="bg" d="M0 0h44v44H0z"/><path d="M30.977 11.74a1.702 1.702 0 0 1 1.586.347l2.1 2.272c.826.955 1.116 1.377 1.368 1.763l.107.164.111.168c.352.533.527 1.056.701 1.576.146.437.17.872.174 1.916l.001.452v18.939c0 .694 0 1.043-.175 1.217l-.524.523c-.177.173-.349.173-1.052.173h-3.522c-.526 0-.875 0-1.05-.173-.177-.176-.352-.176-.526-.523-.175-.35-.175-.523-.175-1.217V13.142c0-.703.35-1.226.876-1.402zM25.71 3.01c.526.35.876.698.876 1.402v34.923c0 .694 0 .867-.175 1.216-.175.174-.35.523-.524.523-.316.156-.633.172-1.21.173H7.427c-.701 0-.873 0-1.225-.173-.175-.176-.526-.35-.526-.523-.16-.313-.174-.487-.175-1.037V17.326c0-1.922.175-2.445.35-3.314.176-.697.526-1.402 1.052-1.923.524-.522 1.05-1.043 2.627-2.088l-.003.002L24.127 3.01a1.336 1.336 0 0 1 1.584 0zm-7.56 27.773h-4.225c-.699-.002-1.412.696-1.412 1.749 0 1.053.704 1.749 1.412 1.749h4.225c.7 0 1.412-.696 1.412-1.75 0-1.052-.704-1.748-1.412-1.748zm0-6.115h-4.225v.012c-.524 0-.873.347-1.225.867a2.98 2.98 0 0 0 0 1.751c.185.516.674.863 1.225.87h4.225c.7 0 1.412-.696 1.412-1.749 0-1.043-.704-1.751-1.412-1.751zm0-6.113h-4.225c-.699 0-1.412.696-1.412 1.749 0 1.045.704 1.751 1.412 1.751h4.225c.7 0 1.412-.698 1.412-1.751 0-1.043-.704-1.749-1.412-1.749z" id="形状结合" fill="#4F9EFD"/></g></g></g></g></svg>