<svg width="164" height="164" viewBox="0 0 164 164" xmlns="http://www.w3.org/2000/svg" xmlns:xlink="http://www.w3.org/1999/xlink"><defs><circle id="path-1" cx="72" cy="72" r="72"/><filter x="-10.4%" y="-10.4%" width="120.8%" height="120.8%" filterUnits="objectBoundingBox" id="filter-2"><feOffset in="SourceAlpha" result="shadowOffsetOuter1"/><feGaussianBlur stdDeviation="5" in="shadowOffsetOuter1" result="shadowBlurOuter1"/><feComposite in="shadowBlurOuter1" in2="SourceAlpha" operator="out" result="shadowBlurOuter1"/><feColorMatrix values="0 0 0 0 0.380392157 0 0 0 0 0.619607843 0 0 0 0 0.964705882 0 0 0 0.6 0" in="shadowBlurOuter1"/></filter><filter x="-13.9%" y="-13.9%" width="127.8%" height="127.8%" filterUnits="objectBoundingBox" id="filter-3"><feGaussianBlur stdDeviation="10" in="SourceAlpha" result="shadowBlurInner1"/><feOffset in="shadowBlurInner1" result="shadowOffsetInner1"/><feComposite in="shadowOffsetInner1" in2="SourceAlpha" operator="arithmetic" k2="-1" k3="1" result="shadowInnerInner1"/><feColorMatrix values="0 0 0 0 0.380392157 0 0 0 0 0.619607843 0 0 0 0 0.964705882 0 0 0 1 0" in="shadowInnerInner1"/></filter></defs><g id="页面-1" stroke="none" stroke-width="1" fill="none" fill-rule="evenodd"><g id="标准区屏POI点位分类" transform="translate(-1483 -755)"><g id="蓝色" transform="translate(1493 765)"><g fill-rule="nonzero"><use fill="#000" filter="url(#filter-2)" xlink:href="#path-1"/><use fill-opacity=".8" fill="#020F2B" xlink:href="#path-1"/><use fill="#000" filter="url(#filter-3)" xlink:href="#path-1"/><circle stroke="#619EF6" stroke-width="3" stroke-linejoin="square" cx="72" cy="72" r="70.5"/></g><g id="墙-" transform="translate(52 17.124)"><path id="28" d="M.17 0h44v44h-44z"/><g id="编组" transform="translate(3.02 4.714)" fill="#4F9EFD"><path d="M27.967.07a.5.5 0 0 1 .5.5v1.152a.5.5 0 0 1-.5.5h-1.14v10.831l10.8 19.973a1 1 0 0 1-.879 1.476H1.211a1 1 0 0 1-.882-1.473l10.717-19.976V2.222H9.548a.5.5 0 0 1-.5-.5V.57a.5.5 0 0 1 .5-.5zm-3.549 22.662a3.966 3.966 0 0 0-4.005 4.005 3.966 3.966 0 0 0 4.005 4.004 3.966 3.966 0 0 0 4.005-4.004 3.966 3.966 0 0 0-4.005-4.005zm-10.813-2.403a2.002 2.002 0 1 0 0 4.005 2.002 2.002 0 0 0 0-4.005zm9.7-16.555H14.64v8.445c0 .11-.054.273-.109.382l-.545.98h9.971l-.545-.98a1.01 1.01 0 0 1-.109-.382V3.774z" id="形状结合"/></g></g></g></g></g></svg>