<svg width="164" height="164" viewBox="0 0 164 164" xmlns="http://www.w3.org/2000/svg" xmlns:xlink="http://www.w3.org/1999/xlink"><defs><circle id="path-1" cx="72" cy="72" r="72"/><filter x="-10.4%" y="-10.4%" width="120.8%" height="120.8%" filterUnits="objectBoundingBox" id="filter-2"><feOffset in="SourceAlpha" result="shadowOffsetOuter1"/><feGaussianBlur stdDeviation="5" in="shadowOffsetOuter1" result="shadowBlurOuter1"/><feComposite in="shadowBlurOuter1" in2="SourceAlpha" operator="out" result="shadowBlurOuter1"/><feColorMatrix values="0 0 0 0 0.411764706 0 0 0 0 0.901960784 0 0 0 0 0.909803922 0 0 0 0.6 0" in="shadowBlurOuter1"/></filter><filter x="-13.9%" y="-13.9%" width="127.8%" height="127.8%" filterUnits="objectBoundingBox" id="filter-3"><feGaussianBlur stdDeviation="10" in="SourceAlpha" result="shadowBlurInner1"/><feOffset in="shadowBlurInner1" result="shadowOffsetInner1"/><feComposite in="shadowOffsetInner1" in2="SourceAlpha" operator="arithmetic" k2="-1" k3="1" result="shadowInnerInner1"/><feColorMatrix values="0 0 0 0 0.411764706 0 0 0 0 0.901960784 0 0 0 0 0.909803922 0 0 0 1 0" in="shadowInnerInner1"/></filter></defs><g id="页面-1" stroke="none" stroke-width="1" fill="none" fill-rule="evenodd"><g id="标准区屏POI点位分类" transform="translate(-1155 -2017)"><g id="编组-2备份-18" transform="translate(1165 2027)"><g id="青色" fill-rule="nonzero"><use fill="#000" filter="url(#filter-2)" xlink:href="#path-1"/><use fill-opacity=".8" fill="#020F2B" xlink:href="#path-1"/><use fill="#000" filter="url(#filter-3)" xlink:href="#path-1"/><circle stroke="#69E6E8" stroke-width="3" stroke-linejoin="square" cx="72" cy="72" r="70.5"/></g><g id="编组" transform="translate(52 17.124)" fill="#00E9EA"><g id="编组" transform="translate(2.267 1.571)"><path d="M19.118 21.373h-3.905a.5.5 0 0 1-.5-.5v-4.407l-7.356.002A7.357 7.357 0 0 1 .012 9.543L0 9.112V2.329a.5.5 0 0 1 .5-.5h8.809a.5.5 0 0 1 .5.5v4.33l4.904-.002V2.255a.5.5 0 0 1 .5-.5h3.905a.5.5 0 0 1 .5.5V6.66h7.427a7.357 7.357 0 0 1 7.357 7.356v11.086a.5.5 0 0 1-.5.5h-8.809a.5.5 0 0 1-.5-.5v-8.634h-4.975v4.405a.5.5 0 0 1-.5.5z" id="路径"/><path d="M27.746 32.47c-.93.437-2.027.07-2.437-.812-.41-.882.23-3.936.23-3.936s2.748 1.478 3.158 2.367c.41.875-.014 1.944-.951 2.38zM30.756 41.038c-1.646.104-3.048-.993-3.138-2.444-.09-1.45 2.659-5.359 2.659-5.359s3.207 3.54 3.297 4.991c.083 1.458-1.18 2.715-2.818 2.812zM30.871 24.981c-.45.639-1.305.812-1.916.389-.604-.423-1.34-2.68-1.34-2.68s2.375-.062 2.979.368c.604.417.729 1.285.277 1.923zM35.284 31.762c-.972.395-2.04.027-2.395-.826-.354-.854.5-3.777.5-3.777s2.659 1.479 3.013 2.333c.347.854-.153 1.867-1.118 2.27z" id="路径" fill-rule="nonzero"/></g></g></g></g></g></svg>