<svg width="164" height="164" viewBox="0 0 164 164" xmlns="http://www.w3.org/2000/svg" xmlns:xlink="http://www.w3.org/1999/xlink"><defs><circle id="path-1" cx="72" cy="72" r="72"/><filter x="-10.4%" y="-10.4%" width="120.8%" height="120.8%" filterUnits="objectBoundingBox" id="filter-2"><feOffset in="SourceAlpha" result="shadowOffsetOuter1"/><feGaussianBlur stdDeviation="5" in="shadowOffsetOuter1" result="shadowBlurOuter1"/><feComposite in="shadowBlurOuter1" in2="SourceAlpha" operator="out" result="shadowBlurOuter1"/><feColorMatrix values="0 0 0 0 0.380392157 0 0 0 0 0.619607843 0 0 0 0 0.964705882 0 0 0 0.6 0" in="shadowBlurOuter1"/></filter><filter x="-13.9%" y="-13.9%" width="127.8%" height="127.8%" filterUnits="objectBoundingBox" id="filter-3"><feGaussianBlur stdDeviation="10" in="SourceAlpha" result="shadowBlurInner1"/><feOffset in="shadowBlurInner1" result="shadowOffsetInner1"/><feComposite in="shadowOffsetInner1" in2="SourceAlpha" operator="arithmetic" k2="-1" k3="1" result="shadowInnerInner1"/><feColorMatrix values="0 0 0 0 0.380392157 0 0 0 0 0.619607843 0 0 0 0 0.964705882 0 0 0 1 0" in="shadowInnerInner1"/></filter></defs><g id="页面-1" stroke="none" stroke-width="1" fill="none" fill-rule="evenodd"><g id="标准区屏POI点位分类" transform="translate(-1147 -1252)"><g id="蓝色" transform="translate(1157 1262)"><g fill-rule="nonzero"><use fill="#000" filter="url(#filter-2)" xlink:href="#path-1"/><use fill-opacity=".8" fill="#020F2B" xlink:href="#path-1"/><use fill="#000" filter="url(#filter-3)" xlink:href="#path-1"/><circle stroke="#619EF6" stroke-width="3" stroke-linejoin="square" cx="72" cy="72" r="70.5"/></g><g id="摄像头" transform="translate(52 17.124)"><path id="bg" fill-opacity="0" fill="#FFF" d="M0 0h44v44H0z"/><path d="M11.328 28.581H7.223v-4.775a.5.5 0 0 0-.41-.492l-2.986-.543a.5.5 0 0 0-.589.492v15.371a.5.5 0 0 0 .658.474l2.985-.994a.5.5 0 0 0 .342-.475v-5.435h6.148a.5.5 0 0 0 .402-.202l3.003-4.04a.5.5 0 0 0-.168-.74l-3.556-1.871a.5.5 0 0 0-.706.279l-1.018 2.951zm20.88 1.017l8.536-5.432a.5.5 0 0 0 .006-.84L12.54 4.755a.5.5 0 0 0-.275-.083H9.31a.5.5 0 0 0-.422.233l-4.364 6.89a.5.5 0 0 0-.077.267v1.989a.5.5 0 0 0 .24.427l25.106 15.23a.5.5 0 0 0 .287.072l1.888-.105a.5.5 0 0 0 .24-.077zM6.333 16.928l-1.58 1.664a.5.5 0 0 0 .102.771l26.047 15.8a.5.5 0 0 0 .614-.075l1.79-1.798.71-2.063a.5.5 0 0 0-.756-.575l-1.995 1.376a.5.5 0 0 1-.525.027l-2.128-1.171a.5.5 0 0 1-.031-.019L6.968 16.852a.5.5 0 0 0-.635.076z" id="形状" fill="#4F9EFD"/></g></g></g></g></svg>