<svg width="164" height="164" viewBox="0 0 164 164" xmlns="http://www.w3.org/2000/svg" xmlns:xlink="http://www.w3.org/1999/xlink"><defs><circle id="path-1" cx="72" cy="72" r="72"/><filter x="-10.4%" y="-10.4%" width="120.8%" height="120.8%" filterUnits="objectBoundingBox" id="filter-2"><feOffset in="SourceAlpha" result="shadowOffsetOuter1"/><feGaussianBlur stdDeviation="5" in="shadowOffsetOuter1" result="shadowBlurOuter1"/><feComposite in="shadowBlurOuter1" in2="SourceAlpha" operator="out" result="shadowBlurOuter1"/><feColorMatrix values="0 0 0 0 1 0 0 0 0 0.866666667 0 0 0 0 0.466666667 0 0 0 0.4 0" in="shadowBlurOuter1"/></filter><filter x="-13.9%" y="-13.9%" width="127.8%" height="127.8%" filterUnits="objectBoundingBox" id="filter-3"><feGaussianBlur stdDeviation="10" in="SourceAlpha" result="shadowBlurInner1"/><feOffset in="shadowBlurInner1" result="shadowOffsetInner1"/><feComposite in="shadowOffsetInner1" in2="SourceAlpha" operator="arithmetic" k2="-1" k3="1" result="shadowInnerInner1"/><feColorMatrix values="0 0 0 0 1 0 0 0 0 0.866666667 0 0 0 0 0.466666667 0 0 0 1 0" in="shadowInnerInner1"/></filter></defs><g id="页面-1" stroke="none" stroke-width="1" fill="none" fill-rule="evenodd"><g id="标准区屏POI点位分类" transform="translate(-1315 -968)"><g id="编组-2备份-21" transform="translate(1325 978)"><g id="黄色" fill-rule="nonzero"><use fill="#000" filter="url(#filter-2)" xlink:href="#path-1"/><use fill-opacity=".8" fill="#020F2B" xlink:href="#path-1"/><use fill="#000" filter="url(#filter-3)" xlink:href="#path-1"/><circle stroke="#FD7" stroke-width="3" stroke-linejoin="square" cx="72" cy="72" r="70.5"/></g><g id="工地" transform="translate(52 17.124)"><path id="28" d="M0 0h44v44H0z"/><path d="M25.294 34.364c.318-.7.84-1.05 1.543-1.05.804 0 1.4-.35 1.89-.947.247-.278.455-.56.701-.874-.736-.387-1.4-.7-2.102-1.053L3.791 18.672c-.487-.246-.804-.596-.804-1.122 0-.455.209-.841.666-1.051.138-.07.35-.14.49-.105.315.07.455-.105.632-.281 1.574-1.717 3.15-3.397 4.726-5.115.28-.315.63-.526 1.086-.526l3.502-.208c.665-.035 1.33-.035 1.996-.107.491-.035.947.072 1.33.28 1.471.807 2.837 1.752 4.064 2.944.595.595.875 1.296 1.015 2.136.629 3.54 1.295 7.079 1.962 10.618.035.138.14.348.28.383 1.96.982 3.923 1.962 5.917 2.977.141-.243.28-.49.456-.734.42-.596.805-1.226 1.296-1.787.526-.63 1.225-.596 1.855-.035.596.526.876 1.261 1.192 1.925 1.855 3.994 3.747 8.024 5.604 12.018.069.14.139.244.209.386-.105.033-.209.07-.348.07-6.307-.037-12.61-.037-18.948-.037a565.905 565.905 0 0 0 3.325-6.937zM16.4 22.314l4.902 2.453c-.56-2.208-1.121-4.311-1.714-6.55-1.086 1.4-2.102 2.731-3.188 4.098zm-7.004-3.469c1.085-1.576 2.136-3.152 3.258-4.799-.63.035-1.122.035-1.612.07-.175.036-.42.106-.561.246-.804.77-1.541 1.541-2.345 2.312-.281.316-.63.63-1.052 1.015l2.312 1.156zm-6.653 20.18a8.68 8.68 0 0 1 .173-.947c1.017-3.468 2.032-6.936 3.083-10.439.455-1.577.946-3.188 1.4-4.765.035-.07.035-.14.106-.243.734.348 1.435.699 2.137 1.05a603.173 603.173 0 0 0 6.653 3.328c.278.143.508.361.666.63.49.876.98 1.751 1.506 2.628.314.56.525 1.156.56 1.787.105 2.521.174 5.045.245 7.566 0 .317-.071.666-.175.946-.174.457-.595.56-1.015.7h-.668c-.806-.28-1.155-.909-1.262-1.715-.348-2.63-.664-5.255-.98-7.881a.93.93 0 0 0-.245-.493c-1.226-1.156-2.486-2.348-3.747-3.503-.068-.07-.14-.104-.245-.174-.035.104-.07.14-.105.208-1.507 3.995-3.012 7.954-4.518 11.947-.28.736-.63 1.33-1.436 1.576-.174.07-.314.07-.49.07-1.294-.524-1.713-1.085-1.643-2.276zM25.155 3.643c.98.945 1.437 2.101 1.156 3.432-.28 1.332-1.051 2.278-2.346 2.768-1.47.526-2.804.21-3.886-.877-1.087-1.085-1.366-2.451-.807-3.887.49-1.263 1.435-2.032 2.764-2.313.073-.034.177-.034.248-.069.281-.035.596-.035.874-.035.735.209 1.437.42 1.997.98z" id="形状" fill="#FD7"/></g></g></g></g></svg>