<?xml version="1.0" encoding="UTF-8"?>
<svg width="28px" height="28px" viewBox="0 0 28 28" version="1.1" xmlns="http://www.w3.org/2000/svg" xmlns:xlink="http://www.w3.org/1999/xlink">
    <title>绿地</title>
    <g id="页面-1" stroke="none" stroke-width="1" fill="none" fill-rule="evenodd">
        <g id="燃气深化撒点备份" transform="translate(-246.000000, -93.000000)">
            <g id="进闸备份" transform="translate(223.000000, 93.000000)">
                <g id="进闸设备1" transform="translate(23.000000, 0.000000)">
                    <rect id="矩形" x="0" y="0" width="28" height="28"></rect>
                    <path d="M22.3551351,22.3570509 L22.3551351,16.7863186 L25.1430328,16.7863186 L23.2844343,12.1414645 L24.2137335,12.1414645 L21.430899,4.71377589 L19.5723005,11.2138074 L20.4999577,11.2138074 L18.2655889,15.6843238 L16.7861818,11.2138074 L17.7135652,12.1414645 L14.000063,1 L11.2138074,10.2845082 L12.1414645,10.2845082 L10.2862871,15.8570194 L8.43603604,11.971369 L9.35685102,12.1414645 L6.57237437,4.71377589 L4.71555485,11.2138074 L5.64307513,11.2138074 L2.85695637,16.7863186 L5.64307513,16.7863186 L5.64307513,21.4277516 C5.64307513,21.4277516 1.98006791,23.0390752 1,24.2137335 C2.54878645,23.5078985 4.16024689,23.6703309 6.57237437,23.2844343 C5.84450769,23.7262996 5.17425181,23.8059421 4.71555485,24.2137335 C3.69812886,25.1177169 1.92752028,27.000126 1.92752028,27.000126 L13.0706269,27.000126 C13.0706269,27.000126 9.25025051,25.2414227 9.35685102,24.2138704 C9.41952501,23.6079306 10.6263414,22.7989162 11.2136705,22.3571877 C11.7892312,22.3266718 12.4798767,22.3673141 13.0706269,22.3571877 L13.0706269,24.2138704 L14.9292254,24.2138704 L14.9292254,22.3570509 C19.6045954,22.5144201 24.3999766,23.0273067 26.9999892,24.2137335 C26.1384271,23.1813917 22.3551351,22.3570509 22.3551351,22.3570509 Z M13.0707638,20.5017366 C11.2257127,20.5407368 9.07591282,21.133266 7.49838939,21.4278885 L7.49838939,16.7864555 L9.35698787,16.7864555 L8.42768863,17.7138389 L13.0707638,17.7138389 L13.0707638,20.5017366 L13.0707638,20.5017366 Z M20.5000945,21.4277516 C18.9224342,21.0722341 16.8302451,20.5879476 14.9293622,20.5015998 L14.9293622,17.713702 L19.5724374,17.713702 L18.6431381,16.7863186 L20.5000945,16.7863186 L20.5000945,21.4277516 Z" id="形状" fill="#00EA9C" fill-rule="nonzero"></path>
                </g>
            </g>
        </g>
    </g>
</svg>