<?xml version="1.0" encoding="UTF-8"?>
<svg width="28px" height="28px" viewBox="0 0 28 28" version="1.1" xmlns="http://www.w3.org/2000/svg" xmlns:xlink="http://www.w3.org/1999/xlink">
    <title>建设用地</title>
    <g id="页面-1" stroke="none" stroke-width="1" fill="none" fill-rule="evenodd">
        <g id="燃气深化撒点备份" transform="translate(-120.000000, -93.000000)">
            <g id="深基坑备份" transform="translate(97.000000, 93.000000)">
                <g id="建设用地" transform="translate(23.000000, 0.000000)">
                    <rect id="矩形" x="0" y="0" width="28" height="28"></rect>
                    <path d="M25.9999552,14.2601583 L25.9999552,9.57331893 C26.0033378,9.25446298 25.8147671,8.96646409 25.5233396,8.84303596 L9.87197024,2.06134733 C9.6525425,1.96877625 9.40225774,1.98249049 9.19311565,2.09220435 L2.41142702,5.74361912 C2.16114227,5.88419002 2.00342856,6.14476046 2,6.43275935 L2,14.2601583 C2,14.6921567 2.34971296,15.0418696 2.78171132,15.0418697 L5.79541423,15.0418697 C6.03198477,15.7035815 6.55312565,16.2281509 7.21483743,16.4612929 L7.21483743,24.4326913 L4.86627489,24.4326913 C4.43427653,24.4361199 4.08799213,24.7858328 4.0879921,25.2144026 C4.0879921,25.646401 4.4342765,25.996114 4.86627489,25.996114 L15.8239477,25.996114 C16.2559461,25.9926854 16.6022305,25.6429724 16.6022305,25.2144026 C16.6022305,24.7824043 16.2559461,24.4361199 15.8239477,24.4326913 L13.4788137,24.4326913 L13.4788137,16.6087209 L14.2605251,16.6087209 C15.2788069,16.6087209 16.1393751,15.9538662 16.4650882,15.0418697 L22.8696354,15.0418697 L22.8696354,18.9538549 C22.8696354,19.3858532 23.2193483,19.7355662 23.6513467,19.7355662 C23.8604888,19.7355662 24.0593452,19.8178516 24.2033446,19.9652796 C24.3507726,20.1127076 24.433058,20.311564 24.433058,20.5207061 C24.433058,21.2372748 23.5622042,21.5389879 23.0959202,21.072704 C22.7907785,20.7675623 22.2936375,20.7675623 21.9884958,21.072704 C21.6833541,21.3778457 21.6833541,21.8749867 21.9884958,22.1801284 C23.4730617,23.6646942 25.9964807,22.594984 25.9964807,20.5207061 C25.9999552,19.5264241 25.372483,18.6384275 24.433058,18.316143 L24.433058,15.0418697 L25.2147694,15.0418697 L25.9999552,14.2601583 L25.9999552,14.2601583 Z M5.65141477,13.478447 L3.56342266,13.478447 L3.56342266,10.3481731 L5.65141477,10.3481731 L5.65141477,13.478447 Z M5.79541423,8.7813219 L3.56342266,8.7813219 L3.56342266,6.90247188 L8.78168863,4.09105393 L8.78168863,7.2144707 L7.99997731,7.2144707 C6.98169545,7.2144707 6.12112727,7.87275392 5.79541423,8.7813219 L5.79541423,8.7813219 Z M14.9565224,8.7813219 C13.934812,7.77675428 12.5599601,7.21447067 11.1302512,7.2144707 L10.3485399,7.2144707 L10.3485399,3.97105439 L21.4433551,8.7813219 L14.9565224,8.7813219 L14.9565224,8.7813219 Z" id="形状" fill="#FC5A5A" fill-rule="nonzero"></path>
                </g>
            </g>
        </g>
    </g>
</svg>