<?xml version="1.0" encoding="UTF-8"?>
<svg width="28px" height="28px" viewBox="0 0 28 28" version="1.1" xmlns="http://www.w3.org/2000/svg" xmlns:xlink="http://www.w3.org/1999/xlink">
    <title>高压线</title>
    <g id="页面-1" stroke="none" stroke-width="1" fill="none" fill-rule="evenodd">
        <g id="燃气深化撒点备份" transform="translate(-579.000000, -92.000000)">
            <g id="调压箱备份-3" transform="translate(557.000000, 92.000000)">
                <g id="高压线" transform="translate(22.000000, 0.000000)">
                    <rect id="矩形" x="0" y="0" width="28" height="28"></rect>
                    <g id="编组" transform="translate(2.000000, 1.000000)" fill="#CBDDFF" fill-rule="nonzero">
                        <path d="M15.25,0 L15.412,0.889571439 L15.832,3.74214285 L21.052,3.74214285 L21,5.746 L16.66,7.67557144 L17.264,10.4 L24,10.4 L24,12.9814286 L23.34,13.2748571 L18.12,15.5962857 L19.37,22.6552857 L23.582,22.6552857 L23.582,26 L0.42,26 L0.42,22.6571429 L5.05199999,22.6571429 L6.06800001,15.6278571 L0,12.2552857 L0,10.4 L7.15800001,10.4 L7.52200001,7.722 L3.00200001,5.75157144 L2.94999999,3.74214285 L8.36,3.74214285 L8.782,0.891428561 L8.94399999,0 L15.25,0 Z M15.886,16.562 L10.106,18.9447143 L16.424,18.9447143 L15.884,16.562 L15.886,16.562 Z M16.424,20.4285714 L9.688,22.6571429 L17.268,22.6571429 L16.574,20.2892857 L16.424,20.4285714 Z M7.16000001,22.2857143 L14.318,19.6857143 L7.57800001,19.6857143 L7.16000001,22.2857143 Z M7.94,18.5807143 L14.74,15.6 L8.42000001,15.6 L7.93599999,18.5807143 L7.94,18.5807143 Z M16,4.82857144 L16.424,6.31428571 L19.792,4.82857144 L16,4.82857144 Z M8.00000001,6.31428571 L8.00000001,4.82857144 L4.634,4.82857144 L8.00000001,6.31428571 L8.00000001,6.31428571 Z M10.95,3.71428571 L13.478,3.71428571 L13.478,2.22857144 L10.95,2.22857144 L10.95,3.71428571 Z M13.896,7.8 L10.106,7.8 L9.68599999,10.4 L14.736,10.4 L13.896,7.8 Z M13.476,4.82857144 L10.946,4.82857144 L10.524,6.68571429 L13.924,6.695 L13.476,4.82857144 L13.476,4.82857144 Z M17.686,11.5142857 L17.686,14.1142857 L21.898,11.5142857 L17.686,11.5142857 L17.686,11.5142857 Z M6.73800001,14.1142857 L6.73800001,11.5142857 L2.52800001,11.5142857 L6.73800001,14.1142857 Z M15.158,11.5142857 L9.26399999,11.5142857 L8.84000001,14.4857143 L15.576,14.4857143 L15.156,11.5142857 L15.158,11.5142857 Z" id="形状"></path>
                    </g>
                </g>
            </g>
        </g>
    </g>
</svg>