<?xml version="1.0" encoding="UTF-8"?>
<svg width="28px" height="28px" viewBox="0 0 28 28" version="1.1" xmlns="http://www.w3.org/2000/svg" xmlns:xlink="http://www.w3.org/1999/xlink">
    <title>城市基础设施</title>
    <g id="页面-1" stroke="none" stroke-width="1" fill="none" fill-rule="evenodd">
        <g id="燃气深化撒点备份" transform="translate(-705.000000, -92.000000)">
            <g id="中低压备份" transform="translate(678.000000, 92.000000)">
                <g id="城市基础设施" transform="translate(27.000000, 0.000000)">
                    <rect id="矩形" x="0" y="0" width="28" height="28"></rect>
                    <g id="编组" transform="translate(1.000000, 3.000000)" fill="#FFDD77" fill-rule="nonzero">
                        <path d="M18.768492,5.84725405 L18.8573851,5.92 L25.714616,12.3733333 C26.2677601,12.9078788 25.9629023,13.9040771 25.2620436,13.9935362 L25.1592769,14 L24.0003083,14 L24.0003083,21.0666667 C24.0003083,21.534359 23.7122806,21.9338856 23.3261336,21.9925838 L23.2276626,22 L13.4005745,22 C12.9993931,22 12.6805053,21.6364497 12.6338195,21.1820118 L12.6279288,21.0666667 L12.6279288,14 L11.4689602,14 C10.7314347,14 10.3899101,13.0280992 10.8643874,12.4526897 L10.9377663,12.3733333 L17.770852,5.92 C18.0558156,5.65326485 18.461567,5.6290162 18.768492,5.84725405 Z M9.87537838,1.09333333 L10.1651205,1.73333334 L9.522,2.098 L8.305,2.788 L8.305,15.12 L8.66811939,15.12 L8.66811939,15.12 C9.22345851,15.12 9.68221692,15.52 9.68221692,16 L10.642,20.773 L12.0484445,20.7733333 L12.0484445,22 L2.65596972,22 L2.65596972,20.7733333 L4.061,20.773 L5.02219732,16 C5.02219732,15.52 5.48095573,15.12 6.03629484,15.12 L6.398,15.12 L6.398,2.788 L4.53929373,1.73333334 L4.82903588,1.09333333 L7.36427971,2.50666667 L9.87537838,1.09333333 Z M21.3443386,12.8266667 L15.2838986,12.8266667 C14.7881175,12.8266667 14.3764691,13.2448 14.3237861,13.7775328 L14.3180914,13.8933333 L14.3180914,19.12 C14.3180914,19.6675555 14.6966878,20.1221926 15.1790477,20.1803773 L15.2838986,20.1866667 L21.3443386,20.1866667 C21.8401196,20.1866667 22.2517681,19.7685333 22.3044511,19.2358005 L22.3101457,19.12 L22.3101457,13.8933333 C22.3101457,13.3066667 21.8755325,12.8266667 21.3443386,12.8266667 Z M19.1712724,13.6266667 L18.4710622,15.8933333 L20.330241,15.1733333 L17.9157231,19.7866667 C17.9157231,19.7866667 17.8997593,19.7655097 17.8968568,19.6013824 L17.8966284,19.5068407 C17.9002028,19.1661586 17.9486483,18.4161616 18.1571749,16.7733333 L16.82919,16.7733333 L17.6742713,13.6266667 L19.1712724,13.6266667 Z M14.7044142,1.46666666 C14.5595432,1.84000002 14.2456558,2.10666668 13.859333,2.10666668 C13.4730101,2.10666668 13.1349776,1.83999999 13.0142517,1.46666666 L13.0142517,1.46666666 Z M1.69016255,1.46666666 C1.56943664,1.83999999 1.23140413,2.10666668 0.845081273,2.10666668 C0.458758413,2.10666668 0.144871079,1.84000002 0,1.46666666 L1.69016255,1.46666666 Z M14.6802691,1.09333333 L14.6802691,1.36000001 L10.2375561,1.36000001 L10.1409753,1.09333333 L14.6802691,1.09333333 Z M4.5634389,1.09333333 L4.46685817,1.36000001 L0.0241451756,1.36000001 L0.0241451756,1.09333333 L4.5634389,1.09333333 Z M13.3522842,0 L14.004204,0.0266666625 C14.3663817,0.0266666625 14.6802691,0.320000006 14.6802691,0.72 L14.6802691,0.72 L14.6802691,1.01333334 L10.1409753,1.01333334 C10.1409753,0.479999981 11.3240891,0.10666665 11.8552831,0.053333325 C11.976009,0.053333325 13.328139,0 13.3522842,0 L13.3522842,0 Z M2.84913115,0.053333325 C3.38032509,0.10666665 4.5634389,0.479999981 4.5634389,1.01333334 L0.0241451756,1.01333334 L0.0241451756,0.72 C0.0241451756,0.320000006 0.338032509,0.0266666625 0.700210194,0.0266666625 L1.35213004,0 C1.37627521,0 2.72840525,0.053333325 2.84913115,0.053333325 Z" id="形状结合"></path>
                    </g>
                </g>
            </g>
        </g>
    </g>
</svg>