<?xml version="1.0" encoding="UTF-8"?>
<svg width="28px" height="28px" viewBox="0 0 28 28" version="1.1" xmlns="http://www.w3.org/2000/svg" xmlns:xlink="http://www.w3.org/1999/xlink">
    <title>地表水</title>
    <g id="页面-1" stroke="none" stroke-width="1" fill="none" fill-rule="evenodd">
        <g id="燃气深化撒点备份" transform="translate(-371.000000, -92.000000)">
            <g id="塔吊备份" transform="translate(349.000000, 92.000000)">
                <g id="地表水" transform="translate(22.000000, 0.000000)">
                    <rect id="矩形" x="0" y="0" width="28" height="28"></rect>
                    <path d="M26.0813481,24.9604881 L26.0813481,25.7762929 L24.8727484,27 L24.0720511,27 L24.0720511,26.9848925 L26.0813481,24.9604881 Z M26.0813481,21.3044741 L26.0813481,22.1202789 L25.6885532,22.1202789 L20.8692621,26.9848925 L20.0685648,26.9848925 L24.877,22.12 L23.6792562,22.1202789 L18.8599651,26.9848925 L18.0592679,26.9848925 L22.868,22.12 L21.6699593,22.1202789 L16.8506682,26.9848925 L16.0499709,26.9848925 L20.859,22.12 L19.6606624,22.1202789 L14.8413713,26.9848925 L14.040674,26.9848925 L18.849,22.12 L17.6513655,22.1202789 L12.8320744,26.9848925 L12.0313771,26.9848925 L16.84,22.12 L15.6420686,22.1202789 L10.8227775,26.9848925 L10.0220802,26.9848925 L14.831,22.12 L13.6327716,22.1202789 L8.82858803,26.9848925 L8.01278327,26.9848925 L12.821,22.12 L11.6385822,22.1202789 L6.81929111,26.9848925 L6.01859384,26.9848925 L10.827,22.12 L9.6292853,22.1202789 L4.80999419,26.9848925 L4.00929692,26.9848925 L8.818,22.12 L7.61998838,22.1202789 L2.80069727,26.9848925 L2,26.9848925 L6.809,22.12 L5.62579895,22.1202789 L2.40790238,25.3683905 L2,24.9604881 L4.813,22.12 L3.601,22.12 L2.40790238,23.3288786 L2,22.9209762 L2.79,22.12 L2,22.1202789 L2,21.3044741 L26.0813481,21.3044741 Z M26.0813481,22.9209762 L26.0813481,23.7367809 L22.878559,26.9848925 L22.0627542,26.9848925 L26.0813481,22.9209762 Z M15.3550261,8.2969204 L15.717606,8.79546775 C15.7327135,8.79546775 16.6995933,10.1098199 17.6513655,11.7414294 C18.6333527,13.4032539 19.6304474,15.3823359 19.6455549,16.8930854 C19.6455549,18.3585125 18.9657176,19.4009297 18.0743754,20.020337 C17.1981406,20.6397443 16.1557234,20.8814643 15.3399187,20.8814643 C14.5392214,20.8814643 13.5270192,20.6548518 12.6809994,20.0354445 C11.8500872,19.4160372 11.2004648,18.37362 11.2155723,16.8930854 C11.2306798,15.3672284 12.1824521,13.4032539 13.1191168,11.7414294 C14.0183149,10.1605811 14.9175131,8.89996328 14.9880102,8.80164321 L14.9924463,8.79546775 L15.3550261,8.2969204 Z M13.2248693,15.4125508 C13.2248693,15.4125508 12.1220221,20.2620569 16.9413132,19.1743173 C16.9413132,19.1743173 14.252179,17.7995352 13.2248693,15.4125508 Z M7.93724579,5.04880883 L8.33004067,5.56246368 C8.34514817,5.57757118 9.05520046,6.51423591 9.78036026,7.69262057 C10.4904126,8.88611273 11.2306798,10.2911098 11.2457873,11.424172 C11.2608948,12.5119117 10.7321325,13.3126089 10.0522952,13.7658338 C9.37245787,14.2190587 8.5868681,14.4003486 7.96746078,14.4003486 C7.34805346,14.4003486 6.59267868,14.2341662 5.94305636,13.7658338 C5.29343405,13.2975015 4.80999419,12.5119117 4.80999419,11.424172 C4.82510169,10.2911098 5.52004648,8.88611273 6.18477629,7.67751307 C6.84497385,6.55804765 7.4915369,5.65673446 7.55454271,5.5694018 L7.5595584,5.56246368 L7.93724579,5.04880883 Z M6.23009878,10.1853574 L6.22664195,10.2050144 C6.22338441,10.2243473 6.21813211,10.2574507 6.21223026,10.3021372 L6.19995907,10.4063059 C6.11974838,11.1753624 6.08132279,13.6554834 9.04009297,13.040674 C9.04009297,13.040674 7.10633353,12.0133643 6.23009878,10.1853574 Z M20.6124346,1 L21.3375944,1.93666473 L21.3527019,1.95177223 C21.3678094,1.98198722 21.3980244,2.01220221 21.4282394,2.05752469 C21.4886694,2.14816967 21.5793144,2.26902963 21.6850668,2.42010459 C21.8965718,2.737362 22.1836142,3.16037188 22.4706566,3.62870424 C22.9866357,4.50726322 23.5541054,5.52742145 23.6740027,6.5109421 L23.6943637,6.75595584 L23.6943637,6.77106334 C23.6943637,7.73794306 23.1958164,8.50842533 22.5613016,8.93143521 C21.9267868,9.36955259 21.231842,9.52062754 20.6426496,9.52062754 C20.0685648,9.52062754 19.37362,9.36955259 18.7542127,8.93143521 C18.1790487,8.52461194 17.7471748,7.84423508 17.688413,6.97497599 L17.6815805,6.77106334 L17.6815805,6.74084834 C17.696688,5.69843114 18.2858803,4.58047647 18.8297501,3.62870424 C19.3416276,2.74713744 19.8668876,2.03954207 19.9269116,1.94675074 L19.9325973,1.93666473 L20.6124346,1 Z M18.9808251,5.41138873 C18.9808251,5.41138873 18.2707728,9.14294015 21.9116793,8.38756537 C21.9116793,8.38756537 19.8872748,7.33004067 18.9808251,5.41138873 Z" id="形状结合" fill="#4F9EFD" fill-rule="nonzero"></path>
                </g>
            </g>
        </g>
    </g>
</svg>