<?xml version="1.0" encoding="UTF-8"?>
<svg width="28px" height="28px" viewBox="0 0 28 28" version="1.1" xmlns="http://www.w3.org/2000/svg" xmlns:xlink="http://www.w3.org/1999/xlink">
    <title>交通用地</title>
    <g id="页面-1" stroke="none" stroke-width="1" fill="none" fill-rule="evenodd">
        <g id="燃气深化撒点备份" transform="translate(-845.000000, -92.000000)">
            <g id="压力监测备份-2" transform="translate(823.000000, 92.000000)">
                <g id="交通用地" transform="translate(22.000000, 0.000000)">
                    <rect id="矩形" x="0" y="0" width="28" height="28"></rect>
                    <g id="编组" transform="translate(1.000000, 1.000000)" fill="#FF913C" fill-rule="nonzero">
                        <path d="M13.064723,3.78234202 C13.064723,3.78234202 25.0342266,7.2242286 25.0342266,14.5783091 C25.0342266,22.0103008 20.3404866,26 20.3404866,26 L20.3404866,26 L11.2658686,26 C11.2658686,26 17.36769,20.9150812 18.8540883,14.0304965 C20.4188035,6.67682176 10.9526009,3.78234202 10.9526009,3.78234202 L10.9526009,3.78234202 Z M9.85738142,3.78234202 C9.85738142,3.78234202 9.8778789,3.78850778 9.9168203,3.80093931 L10.0186865,3.83418636 C11.2710982,4.25079327 19.3534562,7.20038082 17.8371857,13.4830896 C16.1941536,20.3676744 8.76216191,26 8.76216191,26 L8.76216191,26 L0,26 C0,26 10.0140153,18.4113745 12.4389993,12.3095532 C14.7856664,6.20732601 7.74525932,3.78234202 7.74525932,3.78234202 L7.74525932,3.78234202 Z M5.15309099,0 C5.42892533,0 5.61175444,0.119630999 5.70145349,0.332182999 C5.73410305,0.357309148 5.75595457,0.39623569 5.75609072,0.44027905 L5.75609072,0.44027905 L5.75751675,0.551699841 C5.76332894,0.598802947 5.76623538,0.648550171 5.76623538,0.700794395 C5.76623538,1.28472209 5.76623538,1.86864981 5.82466872,2.45257754 L5.82466872,3.44553867 C5.82466872,3.74933323 5.81372056,4.04217961 5.75831485,4.33757468 L5.75812011,7.05881641 C5.78963632,7.17821396 5.78867578,7.29195828 5.75821666,7.39311862 C5.75597137,7.44057284 5.73916444,7.47525016 5.71250322,7.49916209 C5.64364679,7.62118865 5.52272177,7.71631316 5.35760773,7.76717181 C5.21152436,7.82560514 5.18230769,7.88403851 5.18230769,8.02971609 L5.18230769,8.70129385 C5.18230769,8.90581059 5.06544099,9.02267726 4.86092425,9.02267726 L3.7222855,9.02267726 C3.4885521,9.02267726 3.40090209,8.90581056 3.40090209,8.70129385 L3.40090209,8.32188286 C3.40090209,8.05893279 3.45933543,7.79638851 3.07992444,7.70873847 C2.84619104,7.65030514 2.7877577,7.41657173 2.7877577,7.18324411 L2.7877577,0.613144392 C2.7877577,0.262544285 3.02149111,0 3.37209121,0 L5.15309099,0 Z M3.92680224,5.51870522 C3.40869321,5.81828433 3.37415261,5.83825627 3.37184991,6.36218101 L3.37168543,6.89107737 C3.37168543,7.09559411 3.48855213,7.21246078 3.69306883,7.21246078 L4.83170758,7.21246078 C5.03622432,7.21246078 5.15309099,7.09559408 5.15309099,6.89107737 L5.15309099,6.04419958 C5.15309099,5.89811621 5.09465766,5.78165529 4.97779095,5.75203284 C4.89014092,5.72322196 4.83170758,5.63557192 4.74446334,5.57713859 C4.48151326,5.37262185 4.21856319,5.34340518 3.92680224,5.51870522 Z M2.38544086,5.13442154 L2.43756341,5.13929423 C2.5548359,5.16810511 2.49640254,5.28497182 2.46718587,5.37262185 L2.46718587,5.37262185 L2.46718587,7.03716074 C2.46718584,7.06637741 2.49640254,7.15402745 2.4087525,7.18324411 C2.35031917,7.21246081 2.32110247,7.15402745 2.26266913,7.12481078 C2.17501911,7.05907325 2.09469861,6.98423088 2.01667335,6.90666213 L1.78444897,6.67215519 C1.62751078,6.51886909 1.45961635,6.38019133 1.2404913,6.30714965 C1.00716368,6.21949965 0.861080311,5.66478862 0.977947013,5.46027188 C1.01300703,5.40768186 1.04806705,5.39716386 1.08312707,5.39716385 L1.15324708,5.40183852 L1.94087994,5.40183852 L1.94087994,5.40183852 L2.04479931,5.40354211 C2.13168271,5.40183852 2.21217763,5.38096946 2.23304668,5.25575515 C2.26226338,5.19732178 2.34991338,5.10967178 2.43756341,5.13929423 Z M6.36639459,5.25575515 C6.38726364,5.38096946 6.46755152,5.40183852 6.55446451,5.40354211 L6.65856133,5.40183852 L6.65856133,5.40183852 L7.44659998,5.40183852 L7.51671999,5.39716385 C7.55178,5.39716386 7.58684001,5.40768186 7.62190001,5.46027188 C7.73876672,5.66478862 7.59268335,6.21949965 7.35894994,6.30714965 C6.92069983,6.45323302 6.68737221,6.86186067 6.33717789,7.12481078 C6.27874456,7.15402745 6.24952786,7.21246081 6.19109452,7.18324411 C6.10344449,7.15402745 6.13266119,7.06637741 6.13266119,7.03716074 L6.13266119,5.37262185 C6.10344452,5.28497182 6.04501115,5.16810511 6.16187786,5.13888845 L6.16187786,5.13929423 C6.24952789,5.10967178 6.33717789,5.19732178 6.36639459,5.25575515 Z M4.13091319,3.03691102 C3.8683689,3.09534435 3.69306887,3.29986109 3.45933543,3.41672779 C3.40090209,3.44594446 3.37168543,3.53359449 3.37168543,3.62124453 L3.37168543,4.49693317 C3.37168543,4.70144991 3.48855213,4.81831661 3.69306883,4.81831661 L4.83170758,4.81831661 L4.83170758,4.81791083 C5.03622432,4.81791083 5.15309099,4.70104412 5.15309099,4.49652739 L5.15309099,3.94222215 C5.18230766,3.65005541 5.15309099,3.38751112 4.83170758,3.24142775 C4.59837997,3.12456105 4.42307993,2.94926101 4.13091319,3.03691102 Z M2.39993234,2.70781441 L2.43756341,2.71552761 C2.52521342,2.77396094 2.49599675,2.83239428 2.49599675,2.92004431 L2.49599675,2.92004431 L2.49599675,4.67182746 C2.49599675,4.70104412 2.52521342,4.75947749 2.46678008,4.78869416 C2.40834675,4.81791083 2.37913005,4.75947746 2.32069671,4.73026079 C1.94128572,4.46771651 1.67792986,4.05868306 1.21127463,3.88338303 C1.00675789,3.79613881 0.88989119,3.27023867 0.977541225,3.06572193 C1.03597459,2.97847768 1.09440796,3.00728856 1.1528413,3.00728856 L1.1528413,3.00728856 L1.82441902,3.00728856 C1.99931327,3.00728859 2.20382998,3.06572193 2.29148001,2.80317764 C2.29148004,2.74474428 2.37913008,2.68631094 2.43756341,2.71552761 Z M6.30796123,2.80317764 C6.39561126,3.06572193 6.60012797,3.00728859 6.77502225,3.00728856 L7.44659998,3.00728856 C7.50503331,3.00728856 7.56346668,2.97847768 7.62190001,3.06572193 C7.70955005,3.27023867 7.59268335,3.79613881 7.38816661,3.88338303 C6.92110559,4.05868306 6.65815551,4.46771651 6.27874456,4.73026079 C6.22031122,4.75947746 6.19109452,4.81791083 6.13266119,4.78869416 C6.07422785,4.75947749 6.10344452,4.70104412 6.10344452,4.67182746 L6.10344452,2.92004431 C6.10344452,2.83239428 6.07422785,2.77396094 6.16187786,2.71552761 C6.22031119,2.68631094 6.30796123,2.74474428 6.30796123,2.80317764 Z M4.21147197,0.629157011 L4.10210228,0.64236106 C3.83955799,0.700794427 3.66425795,0.904905344 3.43052455,1.02177205 C3.3432803,1.08020541 3.3432803,1.16785542 3.3432803,1.25550545 L3.3432803,2.07316655 C3.3432803,2.27727747 3.45974122,2.39414417 3.69347462,2.39414417 L3.69347462,2.39414417 L4.77327422,2.39414417 C5.03622429,2.42336087 5.15309099,2.30649417 5.15309099,2.04394988 L5.15309099,2.04394988 L5.15349678,1.51845552 C5.18271348,1.22628878 5.15349681,0.992555379 4.8028967,0.846472009 C4.56956909,0.730011095 4.36505235,0.583927724 4.10210228,0.64236106 Z M2.41704525,0.310542753 L2.46678008,0.32138344 C2.52521342,0.350600107 2.49599675,0.409033475 2.49599675,0.46746681 L2.49599675,0.46746681 L2.49599675,2.21884413 C2.49599675,2.27727747 2.52521342,2.33571083 2.46678008,2.3649275 C2.40834675,2.3941442 2.34991338,2.3649275 2.32069671,2.30649417 C2.23304668,2.19003325 2.14539667,2.07316655 1.94128572,2.10238322 L1.94128572,2.10238322 L1.91166327,2.07316655 C1.85350042,1.81995537 1.69127573,1.7097616 1.51167734,1.62114971 L1.3294984,1.53523416 L1.3294984,1.53523416 L1.24008551,1.48964461 C1.00635214,1.37277794 0.860268767,0.818066885 1.00635214,0.642766848 C1.03597459,0.555116845 1.12362463,0.584333512 1.15243551,0.584333512 L1.15243551,0.584333512 L1.73676899,0.584333512 C1.94128569,0.584333512 2.17461331,0.671983515 2.29148001,0.379816775 C2.32705573,0.319213389 2.40195748,0.294246149 2.46678008,0.32138344 Z M6.30796123,0.379816775 C6.42482793,0.671983515 6.65815555,0.584333512 6.86267225,0.584333512 L7.44700576,0.584333512 C7.47581664,0.584333512 7.56346668,0.555116845 7.59268335,0.642766848 C7.73876672,0.818066885 7.59268335,1.37277794 7.35894994,1.48964461 L7.26965729,1.53523416 L7.26965729,1.53523416 L7.08762863,1.62114971 C6.90812043,1.7097616 6.74580557,1.81995537 6.68737221,2.07316655 L6.65815555,2.10238322 C6.4540446,2.07316655 6.36598881,2.19003325 6.27874456,2.30649417 C6.24952789,2.3649275 6.19109452,2.3941442 6.13266119,2.3649275 C6.07422785,2.33571083 6.10344452,2.27727747 6.10344452,2.21884413 L6.10344452,0.46746681 C6.10344452,0.409033475 6.07422785,0.350600107 6.13266119,0.32138344 C6.19109452,0.292166772 6.27874456,0.32138344 6.30796123,0.379816775 Z" id="形状结合"></path>
                    </g>
                </g>
            </g>
        </g>
    </g>
</svg>