<?xml version="1.0" encoding="UTF-8"?>
<svg width="28px" height="28px" viewBox="0 0 28 28" version="1.1" xmlns="http://www.w3.org/2000/svg" xmlns:xlink="http://www.w3.org/1999/xlink">
    <title>历史建筑</title>
    <g id="页面-1" stroke="none" stroke-width="1" fill="none" fill-rule="evenodd">
        <g id="燃气深化撒点备份" transform="translate(-485.000000, -92.000000)">
            <g id="调压箱备份-2" transform="translate(463.000000, 92.000000)">
                <g id="历史建筑" transform="translate(22.000000, 0.000000)">
                    <rect id="矩形" x="0" y="0" width="28" height="28"></rect>
                    <path d="M23.4597294,12.2042749 L4.54887258,12.2042749 L4.47612624,12.1821191 C3.44246462,11.8671913 2.70282582,10.6563349 2.26443342,9.69600671 C1.81399321,8.70936219 1.4857158,7.54937719 1.483878,6.93784852 L1.483878,6.93613834 C1.16639767,6.57991102 1,6.18223104 1,5.77398371 C1,5.51901418 1.18477569,5.2974314 1.43548254,5.24441591 C1.47632261,5.23528968 1.51804421,5.23069294 1.55989154,5.23070897 C1.69040102,5.23070897 1.81787302,5.2753012 1.91885004,5.35626659 L1.9272733,5.36318387 C2.92558276,6.19933282 4.19971569,6.67889708 5.42300276,6.67889708 C6.11039183,6.67889708 6.70757544,6.5233986 7.10091615,6.2471412 L7.10091615,3.84697155 C7.10091615,3.37205284 7.55722712,3 8.13973383,3 C8.59637662,3 8.9753978,3.22860217 9.11792957,3.55616488 L18.882147,3.55616488 C19.0246788,3.22860217 19.4038276,3 19.8603938,3 C20.4429005,3 20.8992115,3.37202732 20.8992115,3.84697155 L20.8992115,6.24790695 C21.2880853,6.52028455 21.8964489,6.67892261 22.5771249,6.67892261 C23.7959195,6.67892261 25.0678063,6.20091537 26.067979,5.36726788 C26.1688795,5.2800999 26.3022478,5.23073449 26.4397256,5.23073449 C26.493175,5.23073449 26.5459097,5.23811123 26.5966535,5.25263497 C26.8378905,5.3217057 27,5.53121515 27,5.77400924 L27,5.77801667 C26.9968094,6.18212894 26.8333981,6.57702669 26.5245197,6.93195223 L26.5245197,6.93634254 C26.5226819,7.54942824 26.194379,8.70938771 25.7439388,9.69603223 C25.3054953,10.6563604 24.5659842,11.8672424 23.532297,12.1821447 L23.4597294,12.2042749 L23.4597294,12.2042749 Z M24.1672577,21.5144275 C24.0851126,21.4731331 23.994401,21.4517538 23.902461,21.4520188 L23.1599889,21.4520188 L23.1599889,13.319055 L4.8401387,13.319055 L4.8401387,21.4519678 L4.09774319,21.4519678 C4.00419396,21.4519678 3.9116402,21.4734854 3.83011325,21.5143765 L3.80160179,21.528645 L3.77510681,21.5463849 C3.62435598,21.6471322 3.53438025,21.8140659 3.53438025,21.9930729 L3.53438025,24.1508824 C3.53438025,24.3550571 3.64789006,24.5385055 3.83095558,24.6299872 C3.91288081,24.6710432 4.00329882,24.6922969 4.09493544,24.6920409 L23.902461,24.6920409 C24.0186254,24.6920409 24.1286893,24.6596983 24.2220854,24.597698 C24.3729384,24.4970018 24.4629907,24.3299915 24.4629907,24.150959 L24.4629907,21.9931495 C24.4629907,21.78923 24.3496595,21.6058071 24.1672577,21.5144275 L24.1672577,21.5144275 Z M13.4219346,22.6373247 L9.72026923,22.6373247 L9.72026923,16.0092911 L13.4219346,16.0092911 L13.4219346,22.6373247 L13.4219346,22.6373247 Z M18.4662166,22.6373247 L14.7645512,22.6373247 L14.7645512,16.0092911 L18.4662166,16.0092911 L18.4662166,22.6373247 L18.4662166,22.6373247 Z" id="形状" fill="#9E8AFA" fill-rule="nonzero"></path>
                </g>
            </g>
        </g>
    </g>
</svg>