<svg width="164" height="164" viewBox="0 0 164 164" xmlns="http://www.w3.org/2000/svg" xmlns:xlink="http://www.w3.org/1999/xlink"><defs><circle id="path-1" cx="72" cy="72" r="72"/><filter x="-10.4%" y="-10.4%" width="120.8%" height="120.8%" filterUnits="objectBoundingBox" id="filter-2"><feOffset in="SourceAlpha" result="shadowOffsetOuter1"/><feGaussianBlur stdDeviation="5" in="shadowOffsetOuter1" result="shadowBlurOuter1"/><feComposite in="shadowBlurOuter1" in2="SourceAlpha" operator="out" result="shadowBlurOuter1"/><feColorMatrix values="0 0 0 0 0 0 0 0 0 0.917647059 0 0 0 0 0.611764706 0 0 0 0.6 0" in="shadowBlurOuter1"/></filter><filter x="-13.9%" y="-13.9%" width="127.8%" height="127.8%" filterUnits="objectBoundingBox" id="filter-3"><feGaussianBlur stdDeviation="10" in="SourceAlpha" result="shadowBlurInner1"/><feOffset in="shadowBlurInner1" result="shadowOffsetInner1"/><feComposite in="shadowOffsetInner1" in2="SourceAlpha" operator="arithmetic" k2="-1" k3="1" result="shadowInnerInner1"/><feColorMatrix values="0 0 0 0 0 0 0 0 0 0.917647059 0 0 0 0 0.611764706 0 0 0 1 0" in="shadowInnerInner1"/></filter></defs><g id="页面-1" stroke="none" stroke-width="1" fill="none" fill-rule="evenodd"><g id="标准区屏POI点位分类" transform="translate(-1323 -2017)"><g id="编组-2备份-20" transform="translate(1333 2027)"><g id="绿色" fill-rule="nonzero"><use fill="#000" filter="url(#filter-2)" xlink:href="#path-1"/><use fill-opacity=".8" fill="#020F2B" xlink:href="#path-1"/><use fill="#000" filter="url(#filter-3)" xlink:href="#path-1"/><circle stroke="#00EA9C" stroke-width="3" stroke-linejoin="square" cx="72" cy="72" r="70.5"/></g><g id="编组" transform="translate(52 17.124)"><path id="矩形" d="M0 0h44v44H0z"/><path d="M36.99 2.357c.286 0 .518.232.518.517v38.252a.517.517 0 0 1-.517.517H7.009a.517.517 0 0 1-.517-.517v-8.27c0-.286.232-.518.517-.518h3.619v-4.135H7.009a.517.517 0 0 1-.517-.517v-3.101c0-.286.232-.517.517-.517h3.619v-4.136H7.009a.517.517 0 0 1-.517-.517v-3.101c0-.286.232-.517.517-.517h3.619v-4.135H7.009a.517.517 0 0 1-.517-.517v-8.27c0-.286.232-.518.517-.518h29.982zM25.435 17.57c-1.995-.475-4.459-.119-5.75.356-1.407.713-3.284 4.275-3.988 5.462-.821 1.544 1.173 2.969 2.346 1.425 1.29-1.78 1.995-3.087 2.23-3.443.234-.356.586-.713.82-.475.353.237-.351 2.375-.351 2.375s-1.174 3.324-1.174 3.68c-.469 1.07-.703 2.138-1.055 2.376-.122.123-1-.265-1.819-.667l-.344-.171a45.094 45.094 0 0 1-1.122-.587s-1.643-.475-1.995 1.068c-.352 1.544 1.408 1.9 1.408 1.9s4.224 2.613 5.631 2.256c1.174-.237 2.23-4.156 2.816-4.512.47-.119 2.816.356 2.933.594 0 .356 1.29 4.987 1.29 4.987s.118 1.425 1.878.95c1.76-.475 1.173-1.781 1.173-1.781l-.556-2.219-.125-.5-.064-.255-.128-.515c-.364-1.462-.715-2.888-.77-3.16-.117-.476-3.284-1.426-3.87-1.426.468-1.187 1.055-2.85 1.29-3.443.352 0 1.525 1.9 2.463 1.662.939-.237 4.459-.95 4.459-.95 0 .119 1.642-.237 1.29-1.78-.434-1.32-1.774-.909-1.97-.84l-.024.008s-2.699.95-3.05.712c-.47-.356-1.878-2.612-3.872-3.087zm3.167-3.918c-.352-1.425-1.877-2.257-3.285-1.9-.704.118-1.29.593-1.642 1.187-.352.594-.47 1.306-.352 2.137a3.273 3.273 0 0 0 1.29 1.544c.587.356 1.291.475 1.995.238 1.525-.475 2.346-1.9 1.994-3.206z" id="形状" fill="#00EA9C"/></g></g></g></g></svg>