<svg width="164" height="164" viewBox="0 0 164 164" xmlns="http://www.w3.org/2000/svg" xmlns:xlink="http://www.w3.org/1999/xlink"><defs><circle id="path-1" cx="72" cy="72" r="72"/><filter x="-10.4%" y="-10.4%" width="120.8%" height="120.8%" filterUnits="objectBoundingBox" id="filter-2"><feOffset in="SourceAlpha" result="shadowOffsetOuter1"/><feGaussianBlur stdDeviation="5" in="shadowOffsetOuter1" result="shadowBlurOuter1"/><feComposite in="shadowBlurOuter1" in2="SourceAlpha" operator="out" result="shadowBlurOuter1"/><feColorMatrix values="0 0 0 0 0 0 0 0 0 0.917647059 0 0 0 0 0.611764706 0 0 0 0.6 0" in="shadowBlurOuter1"/></filter><filter x="-13.9%" y="-13.9%" width="127.8%" height="127.8%" filterUnits="objectBoundingBox" id="filter-3"><feGaussianBlur stdDeviation="10" in="SourceAlpha" result="shadowBlurInner1"/><feOffset in="shadowBlurInner1" result="shadowOffsetInner1"/><feComposite in="shadowOffsetInner1" in2="SourceAlpha" operator="arithmetic" k2="-1" k3="1" result="shadowInnerInner1"/><feColorMatrix values="0 0 0 0 0 0 0 0 0 0.917647059 0 0 0 0 0.611764706 0 0 0 1 0" in="shadowInnerInner1"/></filter></defs><g id="页面-1" stroke="none" stroke-width="1" fill="none" fill-rule="evenodd"><g id="标准区屏POI点位分类" transform="translate(-1339 -1794)"><g id="编组-2备份-20" transform="translate(1349 1804)"><g id="绿色" fill-rule="nonzero"><use fill="#000" filter="url(#filter-2)" xlink:href="#path-1"/><use fill-opacity=".8" fill="#020F2B" xlink:href="#path-1"/><use fill="#000" filter="url(#filter-3)" xlink:href="#path-1"/><circle stroke="#00EA9C" stroke-width="3" stroke-linejoin="square" cx="72" cy="72" r="70.5"/></g><g id="避难场所" transform="translate(52 17.124)"><g id="编组" fill="#FFF" fill-opacity="0"><path id="bg" d="M0 0h44v44H0z"/></g><path id="bg" d="M0 0h44v44H0z"/><path d="M38.5 2.75a2.75 2.75 0 0 1 2.75 2.75v33a2.75 2.75 0 0 1-2.75 2.75H5.083a2.333 2.333 0 0 1-2.333-2.333V5.5A2.75 2.75 0 0 1 5.5 2.75h33zm0 2.063h-33a.688.688 0 0 0-.676.563l-.011.124-.001 26.812 6.875 6.875H38.5a.688.688 0 0 0 .676-.563l.011-.124v-33a.688.688 0 0 0-.563-.676l-.124-.011zM23.915 15.133c2.327.554 3.97 3.186 4.517 3.602.41.277 3.558-.831 3.558-.831s1.78-.693 2.327.97c.41 1.8-1.505 2.216-1.505 2.077 0 0-4.107.832-5.202 1.109-1.095.277-2.464-1.94-2.874-1.94-.274.693-.958 2.632-1.506 4.018.685 0 4.38 1.108 4.517 1.662.096.483.99 4.068 1.523 6.192l.101.404.292 1.162s.685 1.524-1.368 2.078c-2.053.554-2.19-1.108-2.19-1.108s-1.506-5.403-1.506-5.819c-.137-.277-2.874-.83-3.422-.692-.684.415-1.916 4.987-3.285 5.264-1.643.415-6.57-2.632-6.57-2.632s-2.053-.416-1.643-2.217c.41-1.8 2.327-1.247 2.327-1.247s3.559 1.94 3.833 1.663c.41-.277.684-1.524 1.232-2.77 0-.416 1.368-4.295 1.368-4.295s.822-2.494.411-2.771c-.274-.277-.684.139-.958.554-.274.416-1.095 1.94-2.6 4.018-1.37 1.8-3.696.138-2.738-1.663.821-1.385 3.011-5.541 4.654-6.372 1.505-.554 4.38-.97 6.707-.416zm3.695-4.571c.41 1.523-.547 3.186-2.327 3.74-.82.277-1.642.138-2.327-.277a3.82 3.82 0 0 1-1.505-1.801c-.137-.97 0-1.801.41-2.494.411-.692 1.095-1.246 1.917-1.385 1.642-.416 3.422.554 3.832 2.217z" id="形状结合" fill="#00EA9C"/></g></g></g></g></svg>