<svg width="164" height="164" viewBox="0 0 164 164" xmlns="http://www.w3.org/2000/svg" xmlns:xlink="http://www.w3.org/1999/xlink"><defs><circle id="path-1" cx="72" cy="72" r="72"/><filter x="-10.4%" y="-10.4%" width="120.8%" height="120.8%" filterUnits="objectBoundingBox" id="filter-2"><feOffset in="SourceAlpha" result="shadowOffsetOuter1"/><feGaussianBlur stdDeviation="5" in="shadowOffsetOuter1" result="shadowBlurOuter1"/><feComposite in="shadowBlurOuter1" in2="SourceAlpha" operator="out" result="shadowBlurOuter1"/><feColorMatrix values="0 0 0 0 1 0 0 0 0 0.568627451 0 0 0 0 0.247058824 0 0 0 0.4 0" in="shadowBlurOuter1"/></filter><filter x="-13.9%" y="-13.9%" width="127.8%" height="127.8%" filterUnits="objectBoundingBox" id="filter-3"><feGaussianBlur stdDeviation="10" in="SourceAlpha" result="shadowBlurInner1"/><feOffset in="shadowBlurInner1" result="shadowOffsetInner1"/><feComposite in="shadowOffsetInner1" in2="SourceAlpha" operator="arithmetic" k2="-1" k3="1" result="shadowInnerInner1"/><feColorMatrix values="0 0 0 0 1 0 0 0 0 0.568627451 0 0 0 0 0.247058824 0 0 0 1 0" in="shadowInnerInner1"/></filter><path id="path-4" d="M0 0h44v44H0z"/></defs><g id="页面-1" stroke="none" stroke-width="1" fill="none" fill-rule="evenodd"><g id="标准区屏POI点位分类" transform="translate(-1315 -552)"><g id="编组-2备份-22" transform="translate(1325 562)"><g id="橙色" fill-rule="nonzero"><use fill="#000" filter="url(#filter-2)" xlink:href="#path-1"/><use fill-opacity=".8" fill="#020F2B" xlink:href="#path-1"/><use fill="#000" filter="url(#filter-3)" xlink:href="#path-1"/><circle stroke="#FF913F" stroke-width="3" stroke-linejoin="square" cx="72" cy="72" r="70.5"/></g><g id="事件" transform="translate(52 17.124)"><mask id="mask-5" fill="#fff"><use xlink:href="#path-4"/></mask><path d="M22 4.638c-8.303 0-15.034 6.801-15.034 15.192v19.032a.5.5 0 0 0 .5.5h29.068a.5.5 0 0 0 .5-.5V19.83c0-8.39-6.73-15.192-15.034-15.192zm-4.625 28.446l2.554-9.481-4.792-1.245a.5.5 0 0 1-.218-.847l10.469-9.93a.5.5 0 0 1 .827.493l-2.55 9.469 4.85 1.272a.5.5 0 0 1 .216.848l-10.53 9.915a.5.5 0 0 1-.826-.494z" id="形状" fill="#FF913F" mask="url(#mask-5)"/></g></g></g></g></svg>