<svg width="164" height="164" viewBox="0 0 164 164" xmlns="http://www.w3.org/2000/svg" xmlns:xlink="http://www.w3.org/1999/xlink"><defs><circle id="path-1" cx="72" cy="72" r="72"/><filter x="-10.4%" y="-10.4%" width="120.8%" height="120.8%" filterUnits="objectBoundingBox" id="filter-2"><feOffset in="SourceAlpha" result="shadowOffsetOuter1"/><feGaussianBlur stdDeviation="5" in="shadowOffsetOuter1" result="shadowBlurOuter1"/><feComposite in="shadowBlurOuter1" in2="SourceAlpha" operator="out" result="shadowBlurOuter1"/><feColorMatrix values="0 0 0 0 1 0 0 0 0 0.568627451 0 0 0 0 0.247058824 0 0 0 0.4 0" in="shadowBlurOuter1"/></filter><filter x="-13.9%" y="-13.9%" width="127.8%" height="127.8%" filterUnits="objectBoundingBox" id="filter-3"><feGaussianBlur stdDeviation="10" in="SourceAlpha" result="shadowBlurInner1"/><feOffset in="shadowBlurInner1" result="shadowOffsetInner1"/><feComposite in="shadowOffsetInner1" in2="SourceAlpha" operator="arithmetic" k2="-1" k3="1" result="shadowInnerInner1"/><feColorMatrix values="0 0 0 0 1 0 0 0 0 0.568627451 0 0 0 0 0.247058824 0 0 0 1 0" in="shadowInnerInner1"/></filter></defs><g id="页面-1" stroke="none" stroke-width="1" fill="none" fill-rule="evenodd"><g id="标准区屏POI点位分类" transform="translate(-1651 -755)"><g id="编组-2备份-22" transform="translate(1661 765)"><g id="橙色" fill-rule="nonzero"><use fill="#000" filter="url(#filter-2)" xlink:href="#path-1"/><use fill-opacity=".8" fill="#020F2B" xlink:href="#path-1"/><use fill="#000" filter="url(#filter-3)" xlink:href="#path-1"/><circle stroke="#FF913F" stroke-width="3" stroke-linejoin="square" cx="72" cy="72" r="70.5"/></g><g id="墙-" transform="translate(52 17.124)"><path id="28" d="M.17 0h44v44h-44z"/><g id="编组" transform="translate(3.02 4.714)" fill="#FF913F"><path d="M25.257 30.953V15.12h1.188c.646 0 1.188.491 1.188 1.085v10.074c0 2.583 2.273 4.675 5.089 4.675 2.815 0 5.088-2.092 5.088-4.675V6.905c0-1.007-.465-1.937-1.188-2.583L32.463.525a2.02 2.02 0 0 0-2.712 0c-.749.698-.749 1.808 0 2.506l2.686 2.48-1.988 1.91a1.516 1.516 0 0 0 0 2.222c.31.31.749.465 1.188.465h2.247v16.196c0 .594-.517 1.085-1.188 1.085-.646 0-1.188-.491-1.188-1.085V16.23c0-2.583-2.274-4.675-5.089-4.675h-1.162V2.927c0-1.601-1.395-2.867-3.152-2.867H5.651c-1.73 0-3.15 1.292-3.15 2.867v28.026h-.388c-1.085 0-1.963.8-1.963 1.808s.878 1.808 1.963 1.808h23.531c1.085 0 1.963-.8 1.963-1.808 0-1.007-.878-1.808-1.963-1.808h-.387zM8.157 3.625H19.6c.956 0 1.73.697 1.73 1.575v7.62c0 .879-.774 1.576-1.73 1.576H8.157c-.956 0-1.73-.697-1.73-1.576V5.2c0-.878.774-1.575 1.73-1.575z" id="形状"/></g></g></g></g></g></svg>