<svg width="164" height="164" viewBox="0 0 164 164" xmlns="http://www.w3.org/2000/svg" xmlns:xlink="http://www.w3.org/1999/xlink"><defs><circle id="path-1" cx="72" cy="72" r="72"/><filter x="-10.4%" y="-10.4%" width="120.8%" height="120.8%" filterUnits="objectBoundingBox" id="filter-2"><feOffset in="SourceAlpha" result="shadowOffsetOuter1"/><feGaussianBlur stdDeviation="5" in="shadowOffsetOuter1" result="shadowBlurOuter1"/><feComposite in="shadowBlurOuter1" in2="SourceAlpha" operator="out" result="shadowBlurOuter1"/><feColorMatrix values="0 0 0 0 1 0 0 0 0 0.568627451 0 0 0 0 0.247058824 0 0 0 0.4 0" in="shadowBlurOuter1"/></filter><filter x="-13.9%" y="-13.9%" width="127.8%" height="127.8%" filterUnits="objectBoundingBox" id="filter-3"><feGaussianBlur stdDeviation="10" in="SourceAlpha" result="shadowBlurInner1"/><feOffset in="shadowBlurInner1" result="shadowOffsetInner1"/><feComposite in="shadowOffsetInner1" in2="SourceAlpha" operator="arithmetic" k2="-1" k3="1" result="shadowInnerInner1"/><feColorMatrix values="0 0 0 0 1 0 0 0 0 0.568627451 0 0 0 0 0.247058824 0 0 0 1 0" in="shadowInnerInner1"/></filter></defs><g id="页面-1" stroke="none" stroke-width="1" fill="none" fill-rule="evenodd"><g id="标准区屏POI点位分类" transform="translate(-1651 -968)"><g id="编组-2备份-22" transform="translate(1661 978)"><g id="橙色" fill-rule="nonzero"><use fill="#000" filter="url(#filter-2)" xlink:href="#path-1"/><use fill-opacity=".8" fill="#020F2B" xlink:href="#path-1"/><use fill="#000" filter="url(#filter-3)" xlink:href="#path-1"/><circle stroke="#FF913F" stroke-width="3" stroke-linejoin="square" cx="72" cy="72" r="70.5"/></g><g id="编组" transform="translate(52 17.124)"><g id="灾害隐患点" transform="translate(0 1.05)"><path id="28" d="M1.402.07H42.87V41.54H1.402z"/><path d="M37.57 31.191l-.463-2.469a.5.5 0 0 1 .198-.496l1.742-1.267a.5.5 0 0 1 .588 0l1.792 1.303a.5.5 0 0 1 .206.404v1.463a.5.5 0 0 1-.35.477l-3.07.97a.5.5 0 0 1-.643-.385zM4.127 37.494V5.132a.5.5 0 0 1 .923-.268l6.891 10.882a.5.5 0 0 0 .291.215l1.525.416a.5.5 0 0 1 .319.7l-2.23 4.624a.5.5 0 0 0 .028.487l3.088 4.823a.5.5 0 0 1 .075.328l-.303 2.59a.5.5 0 0 0 .874.387l2.841-3.268a.5.5 0 0 0 .025-.626l-3.737-5.044a.5.5 0 0 1-.035-.54l1.726-3.107a.5.5 0 0 1 .595-.232l3.15 1.05a.5.5 0 0 1 .297.269l2.749 6.087a.5.5 0 0 0 .25.25l9.951 4.468a.5.5 0 0 1 .153.107l7.031 7.216a.5.5 0 0 1-.355.849l-35.619.199a.5.5 0 0 1-.503-.5zm23.628-13.846l1.96-2.612a.5.5 0 0 1 .623-.147l1.884.942a.5.5 0 0 1 .273.392l.156 1.404a.5.5 0 0 1-.1.36l-1.65 2.145a.5.5 0 0 1-.71.086l-2.348-1.88a.5.5 0 0 1-.088-.69zm-5.458-8.698l2.03-2.707a.5.5 0 0 1 .565-.172l4.112 1.43a.5.5 0 0 1 .336.472v1.235a.5.5 0 0 1-.246.43l-3.992 2.359a.5.5 0 0 1-.62-.09L22.33 15.59a.5.5 0 0 1-.034-.64zm-10.272-4.89l.748-2.543a.5.5 0 0 1 .48-.359h1.817a.5.5 0 0 1 .447.277l.951 1.901a.5.5 0 0 1-.094.578l-.64.64a.5.5 0 0 1-.354.147h-2.875a.5.5 0 0 1-.48-.642z" id="形状" fill="#FF913F"/></g></g></g></g></g></svg>