<svg width="164" height="164" viewBox="0 0 164 164" xmlns="http://www.w3.org/2000/svg" xmlns:xlink="http://www.w3.org/1999/xlink"><defs><circle id="path-1" cx="72" cy="72" r="72"/><filter x="-10.4%" y="-10.4%" width="120.8%" height="120.8%" filterUnits="objectBoundingBox" id="filter-2"><feOffset in="SourceAlpha" result="shadowOffsetOuter1"/><feGaussianBlur stdDeviation="5" in="shadowOffsetOuter1" result="shadowBlurOuter1"/><feComposite in="shadowBlurOuter1" in2="SourceAlpha" operator="out" result="shadowBlurOuter1"/><feColorMatrix values="0 0 0 0 1 0 0 0 0 0.866666667 0 0 0 0 0.466666667 0 0 0 0.4 0" in="shadowBlurOuter1"/></filter><filter x="-13.9%" y="-13.9%" width="127.8%" height="127.8%" filterUnits="objectBoundingBox" id="filter-3"><feGaussianBlur stdDeviation="10" in="SourceAlpha" result="shadowBlurInner1"/><feOffset in="shadowBlurInner1" result="shadowOffsetInner1"/><feComposite in="shadowOffsetInner1" in2="SourceAlpha" operator="arithmetic" k2="-1" k3="1" result="shadowInnerInner1"/><feColorMatrix values="0 0 0 0 1 0 0 0 0 0.866666667 0 0 0 0 0.466666667 0 0 0 1 0" in="shadowInnerInner1"/></filter><path id="path-4" d="M0 0h44v44H0z"/></defs><g id="页面-1" stroke="none" stroke-width="1" fill="none" fill-rule="evenodd"><g id="标准区屏POI点位分类" transform="translate(-1147 -548)"><g id="编组-2备份-21" transform="translate(1157 558)"><g id="黄色" fill-rule="nonzero"><use fill="#000" filter="url(#filter-2)" xlink:href="#path-1"/><use fill-opacity=".8" fill="#020F2B" xlink:href="#path-1"/><use fill="#000" filter="url(#filter-3)" xlink:href="#path-1"/><circle stroke="#FD7" stroke-width="3" stroke-linejoin="square" cx="72" cy="72" r="70.5"/></g><g id="网格员" transform="translate(52 17.124)"><mask id="mask-5" fill="#fff"><use xlink:href="#path-4"/></mask><path d="M39.16 3.129c.416 0 .754.338.754.754v21.128a.755.755 0 0 1-.755.756H18.047a.733.733 0 0 1-.37-.112 4.421 4.421 0 0 1-1.952 2.266h-.19v12.95h-3.19l-1.313-8.258-1.315 8.258H6.338v-12.95c-1.313-.751-2.252-2.065-2.252-3.754v-6.57c0-2.44 2.065-4.317 4.317-4.317h5.257c1.554 0 2.875.842 3.633 2.034V3.883c0-.416.336-.754.754-.754H39.16zM22.953 5.022h-.572a.5.5 0 0 0-.5.5v2.17H19.71a.5.5 0 0 0-.5.5v.572a.5.5 0 0 0 .5.5h2.17v4.4h-2.17a.5.5 0 0 0-.5.5v.572a.5.5 0 0 0 .5.5h2.17v4.4h-2.17a.5.5 0 0 0-.5.5v.571a.5.5 0 0 0 .5.5h2.17l.001 2.172a.5.5 0 0 0 .5.5h.572a.5.5 0 0 0 .5-.5l-.001-2.172h4.4v2.172a.5.5 0 0 0 .5.5h.572a.5.5 0 0 0 .5-.5v-2.172h4.4v2.172a.5.5 0 0 0 .5.5h.572a.5.5 0 0 0 .5-.5l-.001-2.172h2.172a.5.5 0 0 0 .5-.5v-.571a.5.5 0 0 0-.5-.5h-2.172v-4.4h2.172a.5.5 0 0 0 .5-.5v-.572a.5.5 0 0 0-.5-.5h-2.172v-4.4h2.172a.5.5 0 0 0 .5-.5v-.571a.5.5 0 0 0-.5-.5h-2.172V5.522a.5.5 0 0 0-.5-.5h-.57a.5.5 0 0 0-.5.5l-.001 2.17h-4.4v-2.17a.5.5 0 0 0-.5-.5h-.571a.5.5 0 0 0-.5.5l-.001 2.17h-4.4v-2.17a.5.5 0 0 0-.5-.5zm4.899 10.214v4.4h-4.4v-4.4h4.4zm5.972 0v4.4h-4.4v-4.4h4.4zm-5.972-5.972v4.4h-4.4v-4.4h4.4zm5.972 0v4.4h-4.4v-4.4h4.4zm-22.606 3.265c-2.44 0-4.505-2.065-4.505-4.505.188-2.44 2.065-4.504 4.505-4.504s4.506 2.065 4.506 4.504c0 2.44-2.065 4.505-4.506 4.505z" id="形状" fill="#FBDD87" mask="url(#mask-5)"/></g></g></g></g></svg>