<svg width="164" height="164" viewBox="0 0 164 164" xmlns="http://www.w3.org/2000/svg" xmlns:xlink="http://www.w3.org/1999/xlink"><defs><circle id="path-1" cx="72" cy="72" r="72"/><filter x="-10.4%" y="-10.4%" width="120.8%" height="120.8%" filterUnits="objectBoundingBox" id="filter-2"><feOffset in="SourceAlpha" result="shadowOffsetOuter1"/><feGaussianBlur stdDeviation="5" in="shadowOffsetOuter1" result="shadowBlurOuter1"/><feComposite in="shadowBlurOuter1" in2="SourceAlpha" operator="out" result="shadowBlurOuter1"/><feColorMatrix values="0 0 0 0 0.988235294 0 0 0 0 0.352941176 0 0 0 0 0.352941176 0 0 0 0.4 0" in="shadowBlurOuter1"/></filter><filter x="-13.9%" y="-13.9%" width="127.8%" height="127.8%" filterUnits="objectBoundingBox" id="filter-3"><feGaussianBlur stdDeviation="10" in="SourceAlpha" result="shadowBlurInner1"/><feOffset in="shadowBlurInner1" result="shadowOffsetInner1"/><feComposite in="shadowOffsetInner1" in2="SourceAlpha" operator="arithmetic" k2="-1" k3="1" result="shadowInnerInner1"/><feColorMatrix values="0 0 0 0 0.988235294 0 0 0 0 0.352941176 0 0 0 0 0.352941176 0 0 0 1 0" in="shadowInnerInner1"/></filter></defs><g id="页面-1" stroke="none" stroke-width="1" fill="none" fill-rule="evenodd"><g id="标准区屏POI点位分类" transform="translate(-1491 -2017)"><g id="编组-2备份-23" transform="translate(1501 2027)"><g id="红色" fill-rule="nonzero"><use fill="#000" filter="url(#filter-2)" xlink:href="#path-1"/><use fill-opacity=".8" fill="#020F2B" xlink:href="#path-1"/><use fill="#000" filter="url(#filter-3)" xlink:href="#path-1"/><circle stroke="#FC5A5A" stroke-width="3" stroke-linejoin="square" cx="72" cy="72" r="70.5"/></g><g id="危化品抢险" transform="translate(52 17.124)"><path id="28" d="M0 0h44v44H0z"/><path d="M4.613 39.39c-1.776 0-2.641-2.092-1.86-3.689 1.067-2.178 16.407-28 17.364-29.84.858-1.653 2.902-1.681 3.76 0C25.183 8.42 40.45 34.127 41.201 35.623c.947 1.87-.252 3.766-1.869 3.766H4.613zm15.56-23.803l1.223 12.815h1.83l1.223-12.815h-4.276zm4.276 14.649h-4.276v3.66h4.276v-3.66z" id="形状" fill="#FC5A5A"/></g></g></g></g></svg>