<svg width="164" height="164" viewBox="0 0 164 164" xmlns="http://www.w3.org/2000/svg" xmlns:xlink="http://www.w3.org/1999/xlink"><defs><circle id="path-1" cx="72" cy="72" r="72"/><filter x="-10.4%" y="-10.4%" width="120.8%" height="120.8%" filterUnits="objectBoundingBox" id="filter-2"><feOffset in="SourceAlpha" result="shadowOffsetOuter1"/><feGaussianBlur stdDeviation="5" in="shadowOffsetOuter1" result="shadowBlurOuter1"/><feComposite in="shadowBlurOuter1" in2="SourceAlpha" operator="out" result="shadowBlurOuter1"/><feColorMatrix values="0 0 0 0 0 0 0 0 0 0.917647059 0 0 0 0 0.611764706 0 0 0 0.6 0" in="shadowBlurOuter1"/></filter><filter x="-13.9%" y="-13.9%" width="127.8%" height="127.8%" filterUnits="objectBoundingBox" id="filter-3"><feGaussianBlur stdDeviation="10" in="SourceAlpha" result="shadowBlurInner1"/><feOffset in="shadowBlurInner1" result="shadowOffsetInner1"/><feComposite in="shadowOffsetInner1" in2="SourceAlpha" operator="arithmetic" k2="-1" k3="1" result="shadowInnerInner1"/><feColorMatrix values="0 0 0 0 0 0 0 0 0 0.917647059 0 0 0 0 0.611764706 0 0 0 1 0" in="shadowInnerInner1"/></filter></defs><g id="页面-1" stroke="none" stroke-width="1" fill="none" fill-rule="evenodd"><g id="标准区屏POI点位分类" transform="translate(-1147 -1794)"><g id="编组-2备份-20" transform="translate(1157 1804)"><g id="绿色" fill-rule="nonzero"><use fill="#000" filter="url(#filter-2)" xlink:href="#path-1"/><use fill-opacity=".8" fill="#020F2B" xlink:href="#path-1"/><use fill="#000" filter="url(#filter-3)" xlink:href="#path-1"/><circle stroke="#00EA9C" stroke-width="3" stroke-linejoin="square" cx="72" cy="72" r="70.5"/></g><g id="医疗" transform="translate(52 17.124)"><path id="28" d="M.915.915h42.483v42.483H.915z"/><path d="M31.584 8.409L24.85 1.674A3.249 3.249 0 0 1 22 3.377a3.247 3.247 0 0 1-2.85-1.703l-6.734 6.735a1.948 1.948 0 0 0 0 2.744l6.323 6.324v-6.919c0-.429.346-.776.777-.776h4.968c.43 0 .775.347.775.776v6.92l6.325-6.325a1.948 1.948 0 0 0 0-2.744m4.007 23.175l6.735-6.735c-1.012-.555-1.705-1.614-1.705-2.849 0-1.234.693-2.296 1.705-2.85l-6.735-6.734a1.948 1.948 0 0 0-2.744 0l-6.323 6.323h6.918c.429 0 .776.348.776.777v4.968c0 .43-.347.775-.776.775h-6.918l6.323 6.324c.754.755 1.99.755 2.744.001m-23.175 4.007l6.735 6.735A3.247 3.247 0 0 1 22 40.623c1.235 0 2.294.693 2.85 1.703l6.734-6.735a1.948 1.948 0 0 0 0-2.744l-6.325-6.323v6.919a.776.776 0 0 1-.775.777h-4.968a.777.777 0 0 1-.777-.777v-6.919l-6.323 6.323a1.948 1.948 0 0 0 0 2.744M8.409 12.416L1.674 19.15A3.25 3.25 0 0 1 3.377 22a3.249 3.249 0 0 1-1.703 2.85l6.735 6.736c.755.754 1.99.754 2.744 0l6.324-6.325h-6.92a.775.775 0 0 1-.775-.776v-4.967c0-.43.347-.777.775-.777h6.92l-6.324-6.324a1.946 1.946 0 0 0-2.744-.001" id="形状" fill="#00EA9C"/></g></g></g></g></svg>