<svg width="164" height="164" viewBox="0 0 164 164" xmlns="http://www.w3.org/2000/svg" xmlns:xlink="http://www.w3.org/1999/xlink"><defs><circle id="path-1" cx="72" cy="72" r="72"/><filter x="-10.4%" y="-10.4%" width="120.8%" height="120.8%" filterUnits="objectBoundingBox" id="filter-2"><feOffset in="SourceAlpha" result="shadowOffsetOuter1"/><feGaussianBlur stdDeviation="5" in="shadowOffsetOuter1" result="shadowBlurOuter1"/><feComposite in="shadowBlurOuter1" in2="SourceAlpha" operator="out" result="shadowBlurOuter1"/><feColorMatrix values="0 0 0 0 0 0 0 0 0 0.917647059 0 0 0 0 0.611764706 0 0 0 0.6 0" in="shadowBlurOuter1"/></filter><filter x="-13.9%" y="-13.9%" width="127.8%" height="127.8%" filterUnits="objectBoundingBox" id="filter-3"><feGaussianBlur stdDeviation="10" in="SourceAlpha" result="shadowBlurInner1"/><feOffset in="shadowBlurInner1" result="shadowOffsetInner1"/><feComposite in="shadowOffsetInner1" in2="SourceAlpha" operator="arithmetic" k2="-1" k3="1" result="shadowInnerInner1"/><feColorMatrix values="0 0 0 0 0 0 0 0 0 0.917647059 0 0 0 0 0.611764706 0 0 0 1 0" in="shadowInnerInner1"/></filter></defs><g id="页面-1" stroke="none" stroke-width="1" fill="none" fill-rule="evenodd"><g id="标准区屏POI点位分类" transform="translate(-1651 -1252)"><g id="编组-2备份-20" transform="translate(1661 1262)"><g id="绿色" fill-rule="nonzero"><use fill="#000" filter="url(#filter-2)" xlink:href="#path-1"/><use fill-opacity=".8" fill="#020F2B" xlink:href="#path-1"/><use fill="#000" filter="url(#filter-3)" xlink:href="#path-1"/><circle stroke="#00EA9C" stroke-width="3" stroke-linejoin="square" cx="72" cy="72" r="70.5"/></g><g id="水利设施" transform="translate(52 17.124)"><path id="28" d="M.734.929h44v44h-44z"/><path d="M39.369 22.035a5.326 5.326 0 0 1-4.226 1.865 8.562 8.562 0 0 1-4.848-1.726c-.31-.278-2.267-1.925-5.453 0a6.55 6.55 0 0 1-4.88 1.283l1.332 4.964c.691-.091 1.48-.34 2.382-.904a6.676 6.676 0 0 1 8.22.126s3.511 2.577 5.717.077a1.148 1.148 0 0 1 1.46-.077 1.15 1.15 0 0 1 .124 1.614l-.015.016a5.213 5.213 0 0 1-4.039 1.863 8.549 8.549 0 0 1-4.848-1.724c-.31-.28-2.267-1.925-5.453 0a6.537 6.537 0 0 1-2.946 1.253l1.185 4.419c.198-.102.386-.18.595-.313a6.656 6.656 0 0 1 8.22.156s3.511 2.578 5.717 0a1.16 1.16 0 0 1 1.647-.109c.481.42.528 1.149.124 1.616l-.015.015a5.283 5.283 0 0 1-4.226 1.925 8.662 8.662 0 0 1-4.848-1.645c-.31-.28-2.267-1.942-5.453 0a6.585 6.585 0 0 1-1.197.7c-.01.526-.409.977-.962.977H6.648a.835.835 0 0 1-.837-.84V8.29c0-.465.372-.837.837-.837H14.9c.465 0 .869.325.977.776l3.43 12.782c.898.358 2.397.536 4.37-.7a6.678 6.678 0 0 1 8.22.125s3.51 2.579 5.716.078a1.16 1.16 0 0 1 1.647-.108c.481.418.528 1.149.124 1.615l-.015.015z" id="路径" fill="#00EA9C"/></g></g></g></g></svg>