<svg width="164" height="164" viewBox="0 0 164 164" xmlns="http://www.w3.org/2000/svg" xmlns:xlink="http://www.w3.org/1999/xlink"><defs><circle id="path-1" cx="72" cy="72" r="72"/><filter x="-10.4%" y="-10.4%" width="120.8%" height="120.8%" filterUnits="objectBoundingBox" id="filter-2"><feOffset in="SourceAlpha" result="shadowOffsetOuter1"/><feGaussianBlur stdDeviation="5" in="shadowOffsetOuter1" result="shadowBlurOuter1"/><feComposite in="shadowBlurOuter1" in2="SourceAlpha" operator="out" result="shadowBlurOuter1"/><feColorMatrix values="0 0 0 0 0.411764706 0 0 0 0 0.901960784 0 0 0 0 0.909803922 0 0 0 0.6 0" in="shadowBlurOuter1"/></filter><filter x="-13.9%" y="-13.9%" width="127.8%" height="127.8%" filterUnits="objectBoundingBox" id="filter-3"><feGaussianBlur stdDeviation="10" in="SourceAlpha" result="shadowBlurInner1"/><feOffset in="shadowBlurInner1" result="shadowOffsetInner1"/><feComposite in="shadowOffsetInner1" in2="SourceAlpha" operator="arithmetic" k2="-1" k3="1" result="shadowInnerInner1"/><feColorMatrix values="0 0 0 0 0.411764706 0 0 0 0 0.901960784 0 0 0 0 0.909803922 0 0 0 1 0" in="shadowInnerInner1"/></filter></defs><g id="页面-1" stroke="none" stroke-width="1" fill="none" fill-rule="evenodd"><g id="标准区屏POI点位分类" transform="translate(-1987 -548)"><g id="编组-2备份-18" transform="translate(1997 558)"><g id="青色" fill-rule="nonzero"><use fill="#000" filter="url(#filter-2)" xlink:href="#path-1"/><use fill-opacity=".8" fill="#020F2B" xlink:href="#path-1"/><use fill="#000" filter="url(#filter-3)" xlink:href="#path-1"/><circle stroke="#69E6E8" stroke-width="3" stroke-linejoin="square" cx="72" cy="72" r="70.5"/></g><g id="酒店" transform="translate(52 17.124)"><path id="28" d="M0 0h44v44H0z"/><path d="M3.684 24.407l1.82-1.067 1.817 1.067-.45-2.062 1.575-1.401-2.096-.206-.847-1.934-.846 1.934-2.096.206 1.574 1.401-.45 2.062zm7.988-7.628l1.818-1.066 1.819 1.066-.452-2.061 1.577-1.401-2.098-.208-.846-1.934-.847 1.934-2.095.21 1.574 1.4-.45 2.06zM19.844 9.5l1.819-1.065 1.82 1.065-.453-2.06 1.575-1.402-2.097-.207-.846-1.933-.845 1.933-2.1.207 1.577 1.402-.45 2.06zm8.173 7.279l1.818-1.065 1.816 1.066-.45-2.06 1.578-1.402-2.1-.207-.844-1.934-.847 1.934-2.097.207 1.575 1.401-.449 2.06zm7.985 7.628l1.82-1.067 1.818 1.067-.452-2.062 1.575-1.401-2.097-.206-.845-1.934-.848 1.934-2.096.206 1.575 1.401-.45 2.062zM18.347 11.708v28.376h1.718v-3.309c0-.918.718-1.667 1.598-1.667.879 0 1.6.749 1.6 1.667v3.309h1.716V11.708h-6.632zm4.914 19.733h-3.196V28.24h3.196v3.201zm0-7.436h-3.196v-3.2h3.196v3.2zm0-7.47h-3.196v-3.2h3.196v3.2zM2.338 26.832v13.27h6.331v-13.27H2.338zm4.764 4.61H3.904V28.24h3.198v3.201zm3.232-12.122v20.783h6.314V19.319h-6.314zM15.1 31.441h-3.197V28.24h3.197v3.201zm0-7.436h-3.197v-3.2h3.197v3.2zm11.579-4.686v20.783h6.312V19.319h-6.312zm4.745 12.122h-3.197V28.24h3.197v3.201zm0-7.436h-3.197v-3.2h3.197v3.2zm3.234 2.826v13.27h6.33v-13.27h-6.33zm4.764 4.61h-3.198V28.24h3.198v3.201z" id="形状" fill="#00E9EA"/></g></g></g></g></svg>