<svg width="164" height="164" viewBox="0 0 164 164" xmlns="http://www.w3.org/2000/svg" xmlns:xlink="http://www.w3.org/1999/xlink"><defs><circle id="path-1" cx="72" cy="72" r="72"/><filter x="-10.4%" y="-10.4%" width="120.8%" height="120.8%" filterUnits="objectBoundingBox" id="filter-2"><feOffset in="SourceAlpha" result="shadowOffsetOuter1"/><feGaussianBlur stdDeviation="5" in="shadowOffsetOuter1" result="shadowBlurOuter1"/><feComposite in="shadowBlurOuter1" in2="SourceAlpha" operator="out" result="shadowBlurOuter1"/><feColorMatrix values="0 0 0 0 0.380392157 0 0 0 0 0.619607843 0 0 0 0 0.964705882 0 0 0 0.6 0" in="shadowBlurOuter1"/></filter><filter x="-13.9%" y="-13.9%" width="127.8%" height="127.8%" filterUnits="objectBoundingBox" id="filter-3"><feGaussianBlur stdDeviation="10" in="SourceAlpha" result="shadowBlurInner1"/><feOffset in="shadowBlurInner1" result="shadowOffsetInner1"/><feComposite in="shadowOffsetInner1" in2="SourceAlpha" operator="arithmetic" k2="-1" k3="1" result="shadowInnerInner1"/><feColorMatrix values="0 0 0 0 0.380392157 0 0 0 0 0.619607843 0 0 0 0 0.964705882 0 0 0 1 0" in="shadowInnerInner1"/></filter></defs><g id="页面-1" stroke="none" stroke-width="1" fill="none" fill-rule="evenodd"><g id="标准区屏POI点位分类" transform="translate(-1987 -1252)"><g id="蓝色" transform="translate(1997 1262)"><g fill-rule="nonzero"><use fill="#000" filter="url(#filter-2)" xlink:href="#path-1"/><use fill-opacity=".8" fill="#020F2B" xlink:href="#path-1"/><use fill="#000" filter="url(#filter-3)" xlink:href="#path-1"/><circle stroke="#619EF6" stroke-width="3" stroke-linejoin="square" cx="72" cy="72" r="70.5"/></g><g id="停车场" transform="translate(52 17.124)"><path id="bg" fill-opacity="0" fill="#FFF" d="M0 0h44v44H0z"/><path d="M5.214 3.143h33.572a.5.5 0 0 1 .5.5v36.714a.5.5 0 0 1-.5.5H5.214a.5.5 0 0 1-.5-.5V3.643a.5.5 0 0 1 .5-.5zm18.649 21.522H20.22v7.273h-3.642V13.753h7.285c3.596 0 5.347 2.498 5.347 5.454 0 2.957-1.38 5.454-4.98 5.454h-.367v.004zm0-7.277H20.22v3.639h3.643c1.538 0 1.819-.402 1.819-1.82 0-1.417.087-1.819-1.456-1.819h-.363z" id="形状" fill="#4F9EFD"/></g></g></g></g></svg>