<svg width="164" height="164" viewBox="0 0 164 164" xmlns="http://www.w3.org/2000/svg" xmlns:xlink="http://www.w3.org/1999/xlink"><defs><circle id="path-1" cx="72" cy="72" r="72"/><filter x="-10.4%" y="-10.4%" width="120.8%" height="120.8%" filterUnits="objectBoundingBox" id="filter-2"><feOffset in="SourceAlpha" result="shadowOffsetOuter1"/><feGaussianBlur stdDeviation="5" in="shadowOffsetOuter1" result="shadowBlurOuter1"/><feComposite in="shadowBlurOuter1" in2="SourceAlpha" operator="out" result="shadowBlurOuter1"/><feColorMatrix values="0 0 0 0 0.988235294 0 0 0 0 0.352941176 0 0 0 0 0.352941176 0 0 0 0.4 0" in="shadowBlurOuter1"/></filter><filter x="-13.9%" y="-13.9%" width="127.8%" height="127.8%" filterUnits="objectBoundingBox" id="filter-3"><feGaussianBlur stdDeviation="10" in="SourceAlpha" result="shadowBlurInner1"/><feOffset in="shadowBlurInner1" result="shadowOffsetInner1"/><feComposite in="shadowOffsetInner1" in2="SourceAlpha" operator="arithmetic" k2="-1" k3="1" result="shadowInnerInner1"/><feColorMatrix values="0 0 0 0 0.988235294 0 0 0 0 0.352941176 0 0 0 0 0.352941176 0 0 0 1 0" in="shadowInnerInner1"/></filter></defs><g id="页面-1" stroke="none" stroke-width="1" fill="none" fill-rule="evenodd"><g id="标准区屏POI点位分类" transform="translate(-1147 -282)"><g id="编组-2备份-23" transform="translate(1157 292)"><g id="红色" fill-rule="nonzero"><use fill="#000" filter="url(#filter-2)" xlink:href="#path-1"/><use fill-opacity=".8" fill="#020F2B" xlink:href="#path-1"/><use fill="#000" filter="url(#filter-3)" xlink:href="#path-1"/><circle stroke="#FC5A5A" stroke-width="3" stroke-linejoin="square" cx="72" cy="72" r="70.5"/></g><g id="党群服务阵地" transform="translate(52 17.124)"><path id="28" d="M.857.04h44v44h-44z"/><path d="M36.312 41.096a204.91 204.91 0 0 1-3.915-3.66c-3.4 2.307-7.205 3.04-11.176 2.761-3.972-.283-7.657-1.637-11.403-3.61-.228.738-.508 1.355-.68 2.032-.513 2.14-2.611 2.816-4.311 1.407-.795-.674-1.305-1.462-.907-2.478.394-1.067 1.021-1.97 2.268-2.194.396-.057.737-.283 1.307-.451L4.6 31.414l3.403-2.987c1.93 1.466 3.746 3.042 5.734 4.226 4.195 2.473 8.619 2.927 13.046.446.283-.167.507-.335.963-.618L15.778 20.716l-3.573 3.322-5.563-5.066 5.16-5.293c1.193-1.183 2.332-2.417 3.578-3.545a2.93 2.93 0 0 1 1.361-.566c.905-.055 1.815.06 2.722 0a3.375 3.375 0 0 0 1.589-.56c.682-.45 1.194-1.072 1.873-1.633 1.021.9 1.988 1.859 3.063 2.76l-4.48 4.954c3.936 4.067 7.89 8.121 11.857 12.16 2.325-4.504 2.779-8.953.737-13.513-1.59-3.434-4.2-5.91-7.263-8.05-1.307-.901-2.781-1.69-4.085-2.7 1.02.111 2.04.166 3.065.278 8.054 1.41 14.066 7.265 15.71 15.258.742 3.66-.168 7.149-1.697 10.416-.171.394-.398.729-.569 1.178-.795 1.525-.795 1.525.398 2.76a90.32 90.32 0 0 0 2.27 2.478l-5.62 5.742z" id="路径" fill="#FC5A5A"/></g></g></g></g></svg>