<svg width="164" height="164" viewBox="0 0 164 164" xmlns="http://www.w3.org/2000/svg" xmlns:xlink="http://www.w3.org/1999/xlink"><defs><circle id="path-1" cx="72" cy="72" r="72"/><filter x="-10.4%" y="-10.4%" width="120.8%" height="120.8%" filterUnits="objectBoundingBox" id="filter-2"><feOffset in="SourceAlpha" result="shadowOffsetOuter1"/><feGaussianBlur stdDeviation="5" in="shadowOffsetOuter1" result="shadowBlurOuter1"/><feComposite in="shadowBlurOuter1" in2="SourceAlpha" operator="out" result="shadowBlurOuter1"/><feColorMatrix values="0 0 0 0 1 0 0 0 0 0.568627451 0 0 0 0 0.247058824 0 0 0 0.4 0" in="shadowBlurOuter1"/></filter><filter x="-13.9%" y="-13.9%" width="127.8%" height="127.8%" filterUnits="objectBoundingBox" id="filter-3"><feGaussianBlur stdDeviation="10" in="SourceAlpha" result="shadowBlurInner1"/><feOffset in="shadowBlurInner1" result="shadowOffsetInner1"/><feComposite in="shadowOffsetInner1" in2="SourceAlpha" operator="arithmetic" k2="-1" k3="1" result="shadowInnerInner1"/><feColorMatrix values="0 0 0 0 1 0 0 0 0 0.568627451 0 0 0 0 0.247058824 0 0 0 1 0" in="shadowInnerInner1"/></filter></defs><g id="页面-1" stroke="none" stroke-width="1" fill="none" fill-rule="evenodd"><g id="标准区屏POI点位分类" transform="translate(-2155 -1794)"><g id="编组-2备份-22" transform="translate(2165 1804)"><g id="橙色" fill-rule="nonzero"><use fill="#000" filter="url(#filter-2)" xlink:href="#path-1"/><use fill-opacity=".8" fill="#020F2B" xlink:href="#path-1"/><use fill="#000" filter="url(#filter-3)" xlink:href="#path-1"/><circle stroke="#FF913F" stroke-width="3" stroke-linejoin="square" cx="72" cy="72" r="70.5"/></g><g id="编组" transform="translate(52 17.124)" fill="#FF913F"><g id="图例-救援队伍" transform="translate(1.571 6.286)"><path d="M26.421 11.816H14.986l-.016.691a8.802 8.802 0 0 0 2.604 6.1 1.912 1.912 0 0 1-.564 2.405l-.253.152-1.821.73-1.129.48-.565.316c-2.043 1.164-3.726 2.489-3.995 3.906l-.038.392v.856l.057.338c.385 1.114 2.536 2.114 3.734 2.593l.807.303 2.192-.29c.902-.101 3.066-.324 4.526-.324l.863.019c.462.02.946.055 1.414.09l2.678.263 1.88.242.809-.287c1.202-.466 3.351-1.441 3.733-2.596l.057-.35v-.846l-.035-.392c-.25-1.431-1.832-2.83-3.84-3.917l-.611-.316-1.052-.484-.677-.269c-.437-.2-.86-.415-1.328-.587-.239 0-1.306-.469-.599-2.538 1.655-1.54 2.6-3.718 2.626-5.992l-.022-.692v.004zM9.665 10.26H6.763l-.02.688c.023 2.274.96 4.452 2.608 5.992.723 2.074-.346 2.558-.58 2.558-.473.16-.894.373-1.333.575l-.675.282-1.053.468-.561.292c-2.027 1.099-3.638 2.508-3.891 3.945l-.035.392v.841l.058.357c.46 1.413 3.464 2.516 4.317 2.803l.223.074 1.364-.18-.124-.4-.072-.411-.024-.418v-.857l.032-.515c.253-2.208 2.123-4.095 4.901-5.57l.652-.337 1.099-.516h.173l.414-.16.404-.196.564-.242-.506-.577a9.782 9.782 0 0 1-2.148-5.668 3.074 3.074 0 0 1-2.07-.692 2.302 2.302 0 0 1-.895-2.175l.077-.353h.003zm24.43-.061H31.19l.076.353a2.298 2.298 0 0 1-.89 2.167 3.07 3.07 0 0 1-2.075.698 9.77 9.77 0 0 1-2.143 5.662l-.506.58.564.242.404.196.415.162h.17l1.1.518.653.33c2.777 1.468 4.648 3.37 4.901 5.612l.032.526v.857l-.024.423-.077.407-.12.399 1.365.18.806-.292c1.199-.46 3.35-1.44 3.734-2.593l.058-.353v-.841l-.046-.4c-.292-1.459-1.834-2.858-3.818-3.956l-.607-.319-1.069-.468-.675-.285c-.439-.2-.86-.41-1.333-.572l-.154-.037c-.364-.151-1.024-.769-.426-2.516 1.652-1.545 2.585-3.723 2.612-5.997l-.024-.683zM21.211 2.002a1.037 1.037 0 0 0-1.14 0 1.11 1.11 0 0 0-.493.81v3.05l.027.212a.924.924 0 0 0 .185.372l.154.141h-.13l-.1-.018a.52.52 0 0 1-.208-.134l-.04-.09-.298-3.41-.537.189a7.325 7.325 0 0 0-4.534 6.008 9.015 9.015 0 0 0-2.178 1.343c-1.175 1.34 4.125.615 8.959.615l1.82.012c3.699.061 5.822.261 6.544-.258.469-.372-.595-1.228-2.353-1.829a7.259 7.259 0 0 0-4.284-5.869l-.549-.21-.234 3.41-.028.089a.302.302 0 0 1-.18.134l-.153.018h-.112l.176-.207a1.01 1.01 0 0 0 .143-.333l.027-.186V2.813a1.108 1.108 0 0 0-.487-.811h.003zM12.186.35a1.066 1.066 0 0 0-.998.703l-.063.265v2.796l.05.273c.038.115.093.227.17.323l.122.135h-.138l-.154-.02a.287.287 0 0 1-.184-.131l-.023-.091-.24-3.4-.543.211a7.3 7.3 0 0 0-4.287 5.854c-1.755.614-2.823 1.475-2.35 1.829.402.288 1.206.36 2.434.352l4.122-.091.204-.25c.143-.159.302-.302.473-.43a7.547 7.547 0 0 1 1.565-.876 9.457 9.457 0 0 1 3.688-5.4 5.758 5.758 0 0 0-1.843-1.049l-.51-.15-.232 3.4-.038.09a.495.495 0 0 1-.215.133l-.111.019H12.9l.152-.146a.836.836 0 0 0 .178-.373l.015-.212V1.318l-.06-.265A1.069 1.069 0 0 0 12.181.35h.004zm16.551 0a1.068 1.068 0 0 0-.999.703l-.061.265v2.796l.015.212c.03.138.092.269.181.373l.153.146h-.115l-.107-.02a.49.49 0 0 1-.212-.131l-.038-.091-.239-3.4-.51.153a5.662 5.662 0 0 0-1.844 1.045 9.443 9.443 0 0 1 3.626 5.401 7.69 7.69 0 0 1 1.571.875l.245.205.223.226.203.25h.827c3.18.038 5.036.23 5.704-.261.468-.354-.6-1.215-2.354-1.83a7.288 7.288 0 0 0-4.3-5.853l-.548-.21-.239 3.399-.022.09a.285.285 0 0 1-.18.133l-.154.019h-.115l.18-.208c.067-.103.115-.218.142-.34l.027-.183V1.318l-.065-.265a1.07 1.07 0 0 0-.994-.703z" id="形状"/></g></g></g></g></g></svg>