<?xml version="1.0" encoding="UTF-8"?>
<svg width="28px" height="28px" viewBox="0 0 28 28" version="1.1" xmlns="http://www.w3.org/2000/svg" xmlns:xlink="http://www.w3.org/1999/xlink">
    <!-- Generator: Sketch 59 (86127) - https://sketch.com -->
    <title>重点孵化器-1</title>
    <desc>Created with Sketch.</desc>
    <g id="重点孵化器-1" stroke="none" stroke-width="1" fill="none" fill-rule="evenodd">
        <g id="编组" fill="#F4D168" fill-rule="nonzero">
            <path d="M11.8643519,0.00367697716 C15.2945513,0.00367697716 18.006802,2.76777956 18.006802,6.25780805 C18.006802,8.58316417 16.8660613,10.6213408 15.0073718,11.6384348 C15.438141,11.6384348 16.7224715,11.9296029 18.2939815,13.3854434 C18.4216168,13.5011129 18.5452636,13.6167824 18.6649217,13.7284633 L18.6649217,13.7284633 L12.6540954,19.6794605 C11.6449786,20.6646456 12.4746083,22.6948451 14.3572294,22.1803152 L14.3572294,22.1803152 L14.3573247,25.8380959 C14.3886741,26.8698528 14.9735736,27.4931357 16.0882835,27.6367254 C14.6204772,27.7244747 13.2723291,27.6367254 11.4375712,27.6367254 C4.72475071,27.6367254 0.153810529,27.6367254 0.0102207993,23.2731927 C-0.129380361,18.9096599 2.43928062,15.1284633 4.58116098,13.3854434 C6.7230413,11.6384348 8.15096154,11.6384348 8.15096154,11.6384348 L8.86492166,11.6384348 C7.0102208,10.4777511 5.86549145,8.58316417 5.86549145,6.25780805 C5.72190172,2.76777956 8.43814104,0.00367697716 11.8643519,0.00367697716 Z M20.9862892,13.8958939 C21.3013889,13.8958939 21.5766026,14.0116542 21.7919872,14.2429932 L27.6472578,20.3814548 C27.9184829,20.6686343 27.9424145,20.8800303 27.9184829,20.9398593 C27.8905627,21.0156428 27.8387108,21.083449 27.635292,21.0834491 L25.9959758,21.0834491 L25.9959758,25.0281784 C25.9959758,25.6543893 25.5851495,26.3324519 24.9230413,26.3324519 L23.223896,26.3324519 L23.223896,21.6657853 C23.2199074,20.8082354 22.5219017,20.1102297 21.6563746,20.1062411 L20.0888533,20.1062411 C19.2233262,20.1102297 18.5253205,20.8042468 18.5213319,21.6657853 L18.5213319,26.3364405 L17.0455484,26.3364405 C16.3794516,26.3364405 15.972614,25.6583778 15.972614,25.032167 L15.972614,21.0874377 L14.3332977,21.0874377 C14.1298789,21.0874377 14.0780271,21.0196314 14.0501068,20.9478365 C14.0261752,20.8760417 14.0501068,20.6646456 14.3213319,20.3814548 L20.1845798,14.2429932 C20.3919872,14.0196314 20.6831553,13.8919961 20.9862892,13.8958939 Z M21.5646367,21.7056713 L21.5646367,26.3364405 L20.1167735,26.3364405 L20.1167735,21.7056713 L21.5646367,21.7056713 Z" id="形状结合"></path>
        </g>
    </g>
</svg>