<?xml version="1.0" encoding="UTF-8"?>
<svg width="28px" height="28px" viewBox="0 0 28 28" version="1.1" xmlns="http://www.w3.org/2000/svg" xmlns:xlink="http://www.w3.org/1999/xlink">
    <!-- Generator: Sketch 59 (86127) - https://sketch.com -->
    <title>支柱产业企业-1</title>
    <desc>Created with Sketch.</desc>
    <g id="支柱产业企业-1" stroke="none" stroke-width="1" fill="none" fill-rule="evenodd">
        <g id="编组" fill="#FF4952" fill-rule="nonzero">
            <path d="M5.89669568,22.7530475 L7.87280011,21.7748758 L13.2906198,24.4706116 L18.6540965,21.8061642 L20.6302009,22.7843358 L13.2906198,26.440129 L5.89669568,22.7514008 L5.89669568,22.7530475 Z M13.2642717,7.77746946 L13.2642717,9.92483628 L7.98477936,12.6205721 L7.98477936,17.6003552 L5.89669568,18.6641581 L5.89669568,11.5551224 L13.2642717,7.77746946 Z M22.1040455,18.6641581 L20.0209021,17.6102358 L20.0209021,12.5925773 L14.7364695,9.88696095 L14.7364695,7.77911621 L22.1040455,11.5370081 L22.1040455,18.6641581 L22.1040455,18.6641581 Z M24.574176,19.494122 C24.3057552,19.494122 24.0538018,19.5303505 23.8018485,19.5846934 L23.8018485,10.7663274 C23.8006442,10.5809505 23.7058619,10.4087318 23.5498952,10.3085299 L16.2893582,6.03685083 C17.0000505,5.34102478 17.3852865,4.3783548 17.3508264,3.38433775 C17.3163663,2.3903207 16.8653886,1.45664016 16.1082153,0.811701352 C14.8857951,-0.231612798 13.0978537,-0.270166783 11.831596,0.71948316 C11.0489382,1.3306739 10.5586247,2.24220435 10.480045,3.23211973 C10.4014654,4.22203512 10.7418299,5.19950491 11.4182608,5.92651831 L11.4709569,5.9808612 L4.11984844,10.3101767 C3.95712126,10.4039068 3.8600148,10.5803486 3.86789514,10.7679742 L3.86789514,19.861348 C1.85556213,19.6061012 0.0391928086,21.1639302 0.00461097656,23.2898892 C-0.0316176055,24.8872403 1.04700605,26.3347368 2.55707919,26.7381915 C3.49564075,26.9884413 4.49635209,26.8274151 5.30903319,26.2953698 C6.1217143,25.7633245 6.66955148,24.9105484 6.81558423,23.9502374 L13.5738614,27.9287944 C13.7292044,28.0208977 13.922425,28.0208977 14.077768,27.9287944 L21.1950374,23.7295725 C21.6083726,25.7287314 23.6223524,26.975324 25.5819893,26.3709654 C27.0904157,25.8934068 28.0982289,24.3899207 27.9895432,22.7777488 C27.8643899,20.8889223 26.3543168,19.4957687 24.574176,19.4957687 L24.574176,19.494122 Z" id="形状"></path>
        </g>
    </g>
</svg>