<?xml version="1.0" encoding="UTF-8"?>
<svg width="28px" height="28px" viewBox="0 0 28 28" version="1.1" xmlns="http://www.w3.org/2000/svg" xmlns:xlink="http://www.w3.org/1999/xlink">
    <!-- Generator: Sketch 59 (86127) - https://sketch.com -->
    <title>企业基本信息-1</title>
    <desc>Created with Sketch.</desc>
    <g id="企业基本信息-1" stroke="none" stroke-width="1" fill="none" fill-rule="evenodd">
        <g id="编组" transform="translate(2.000000, 0.000000)" fill="#128BED" fill-rule="nonzero">
            <path d="M20.4166645,19.3619797 C21.5677117,19.3619797 22.6386128,19.8116709 23.4575372,20.6106367 L23.4575372,20.6106367 L23.4575372,20.6309071 C24.2561912,21.4498315 24.7058824,22.5204208 24.7058824,23.6515094 C24.7058824,24.1180406 24.6288548,24.5477732 24.4913279,24.9771939 C24.3534891,25.3663857 24.1788518,25.735619 23.9440269,26.0880122 L23.9440269,26.0880122 L23.903798,26.1282411 L23.903798,27.7660899 C23.903798,27.8431175 23.8264586,27.9204568 23.7491192,27.9204568 L23.7491192,27.9204568 L20.4163526,27.9204568 C19.8322531,27.9204568 19.2886944,27.8028885 18.7413934,27.588334 C18.2346333,27.3734677 17.7649836,27.0613035 17.3754799,26.6721117 L17.3754799,26.6721117 L17.3184109,26.6147309 C16.5394037,25.8129584 16.1099829,24.7623276 16.1099829,23.631239 C16.1302533,23.0642913 16.2478217,22.5204208 16.4623761,21.9734317 C16.6772424,21.4666715 16.9894067,21.0001403 17.3757918,20.6072063 L17.3757918,20.6072063 L17.4328608,20.5501373 C18.2349451,19.7917123 19.3058463,19.3619797 20.4166645,19.3619797 Z M21.4800812,1.07058927 C22.6616899,1.07058927 23.6281205,1.96342268 23.6216047,3.05428236 L23.6216047,3.05428236 L23.6216047,18.0705893 C22.6517106,17.5167491 21.5508717,17.2214249 20.4129223,17.2214249 C18.7413934,17.2214249 17.1574951,17.8523023 15.9490671,19.0002309 L15.9490671,19.0002309 L15.8517691,19.0975289 C15.2742185,19.6747677 14.797708,20.3829844 14.4755645,21.1448398 L14.4755645,21.1448398 L14.4552941,21.1950481 C14.1531091,21.9637642 13.9853325,22.7624182 13.9585132,23.5613841 L13.9585132,23.5613841 L13.9585132,23.6349812 C13.9585132,24.7829099 14.2572678,25.8871792 14.8176666,26.8536098 L14.8176666,26.8536098 L2.14460893,26.8536098 C2.01363092,26.8536098 1.88920181,26.8436305 1.76508456,26.8233601 L1.76508456,26.8233601 L1.66123771,26.8030897 C1.57734942,26.7828193 1.49346112,26.7594304 1.40957283,26.7326111 C1.37589277,26.7192014 1.34564309,26.7092221 1.31227488,26.6958125 L1.31227488,26.6958125 L1.21809546,26.6555835 C1.13763754,26.6219035 1.06372852,26.5816745 0.990131357,26.5380152 C0.936492745,26.504647 0.88254228,26.4709669 0.832334044,26.4338565 C0.74844575,26.3702386 0.667987832,26.3031903 0.594078814,26.2327117 C0.228275954,25.8768881 0,25.3935169 0,24.8664863 L0,24.8664863 L0,3.05428236 C0,1.96342268 0.966742427,1.07058927 2.1480393,1.07058927 L2.1480393,1.07058927 L2.1480393,3.21862858 C2.1480393,4.99400427 3.59472257,6.44068753 5.37009826,6.44068753 L5.37009826,6.44068753 L18.2580222,6.44068753 C20.0333979,6.44068753 21.4800812,4.99400427 21.4800812,3.21862858 L21.4800812,3.21862858 Z M21.258666,22.2285269 C21.0269596,22.2285269 20.7921348,22.3058663 20.5772685,22.4433932 L20.5772685,22.4433932 L20.5370395,22.4636636 L20.4968106,22.4433932 C20.2819443,22.3058663 20.0505498,22.2285269 19.8154131,22.2285269 C19.3083411,22.2285269 18.8218513,22.5609616 18.6272555,23.0474513 C18.4123892,23.4937121 18.5096871,23.9636737 18.8789203,24.3329069 L18.8789203,24.3329069 L20.419783,25.8163887 C20.4397416,25.8363473 20.476852,25.8566177 20.517081,25.8566177 C20.5573099,25.8566177 20.57415,25.8366591 20.6143789,25.8163887 L20.6143789,25.8163887 L22.1349712,24.3531773 L22.1549298,24.3329069 C22.524163,23.9636737 22.6214609,23.4971425 22.4468236,23.0474513 C22.2522277,22.5609616 21.7654261,22.2285269 21.258666,22.2285269 Z M17.1846263,13.9719229 L6.44442976,13.9719229 C6.14879369,13.9719229 5.88028878,14.0929216 5.68569288,14.2875175 C5.49078513,14.4824253 5.37009826,14.7509302 5.37009826,15.0462544 C5.37009826,15.6369028 5.85346947,16.120274 6.44411791,16.120274 L6.44411791,16.120274 L17.1843144,16.120274 C17.4796386,16.120274 17.7481436,15.9992753 17.9427394,15.8046794 C18.1373353,15.6097717 18.2580222,15.3412668 18.2586459,15.0459425 C18.2586459,14.4552941 17.7752747,13.9719229 17.1846263,13.9719229 L17.1846263,13.9719229 Z M17.1846263,9.68582356 L6.44442976,9.68582356 C6.14879369,9.68582356 5.88028878,9.80682229 5.68569288,10.0014182 C5.49078513,10.1963259 5.37009826,10.4648308 5.37009826,10.7601551 C5.37009826,11.3508035 5.85346947,11.8341747 6.44411791,11.8341747 L6.44411791,11.8341747 L17.1843144,11.8341747 C17.4796386,11.8341747 17.7481436,11.713176 17.9427394,11.5185801 C18.1373353,11.3239842 18.2580222,11.0554793 18.2586459,10.7598432 C18.2586459,10.1691948 17.7752747,9.68582356 17.1846263,9.68582356 L17.1846263,9.68582356 Z M18.2580222,-1.42108547e-14 C18.8489825,-1.42108547e-14 19.3320419,0.483059361 19.3320419,1.07401965 L19.3320419,3.22205895 C19.3320419,3.81270739 18.8486707,4.2960786 18.2580222,4.2960786 L5.37009826,4.2960786 C4.77944982,4.2960786 4.2960786,3.81270739 4.2960786,3.22205895 L4.2960786,1.07401965 C4.2960786,0.483371213 4.77944982,-1.42108547e-14 5.37009826,-1.42108547e-14 L18.2580222,-1.42108547e-14 Z" id="形状结合"></path>
        </g>
    </g>
</svg>