<?xml version="1.0" encoding="UTF-8"?>
<svg width="28px" height="28px" viewBox="0 0 28 28" version="1.1" xmlns="http://www.w3.org/2000/svg" xmlns:xlink="http://www.w3.org/1999/xlink">
    <!-- Generator: Sketch 59 (86127) - https://sketch.com -->
    <title>新兴产业企业-1</title>
    <desc>Created with Sketch.</desc>
    <g id="新兴产业企业-1" stroke="none" stroke-width="1" fill="none" fill-rule="evenodd">
        <g id="编组" transform="translate(1.000000, 0.000000)" fill="#319EFF" fill-rule="nonzero">
            <path d="M23.8644676,26.2673554 L26.5285301,26.2673554 L26.5285301,27.9165803 L18.9169637,27.9165803 L18.9169637,2.03716895 L7.49958554,5.71612597 L7.49958554,4.57437676 L20.0586844,0.00743689904 L23.8644676,3.17891817 L23.8644676,26.2673838 L23.8644676,26.2673554 Z M3.56694763,19.1632647 L3.56694763,16.6260569 L9.52934609,15.1037436 L9.52934609,18.0215155 L3.56694763,19.1632647 Z M3.56694763,27.9165803 L3.56694763,25.2524893 L9.52934609,24.8719253 L9.52934609,27.9165803 L3.56694763,27.9165803 L3.56694763,27.9165803 Z M3.56694763,23.4764667 L3.56694763,20.9392873 L9.52934609,19.9243928 L9.52934609,22.8421647 L3.56694763,23.4764667 L3.56694763,23.4764667 Z M3.56694763,14.723151 L3.56694763,12.0590885 L9.52934609,10.1562111 L9.52934609,13.2008377 L3.56694763,14.723151 L3.56694763,14.723151 Z M16.1260465,7.11158457 L16.1260465,27.9165518 L11.1785141,27.9165518 L11.1785141,7.36529395 L1.66404178,10.4099205 L1.66404178,27.9165518 L0.0148737981,27.9165518 L0.0148737981,9.52190919 L12.7008274,5.08182402 L16.1260465,7.11158457 Z" id="形状"></path>
        </g>
    </g>
</svg>