<?xml version="1.0" encoding="UTF-8"?>
<svg width="28px" height="28px" viewBox="0 0 28 28" version="1.1" xmlns="http://www.w3.org/2000/svg" xmlns:xlink="http://www.w3.org/1999/xlink">
    <!-- Generator: Sketch 59 (86127) - https://sketch.com -->
    <title>重点园区-1</title>
    <desc>Created with Sketch.</desc>
    <g id="重点园区-1" stroke="none" stroke-width="1" fill="none" fill-rule="evenodd">
        <path d="M16.63396,0.0411595673 C17.6344541,0.17097051 18.5969547,0.661719198 19.2396772,1.44375098 C19.7209275,2.02631716 20.0058784,2.77352161 19.99638,3.53339055 L19.99638,25.7912181 C19.3219963,25.8070487 18.6476127,25.7912181 17.973229,25.7975504 L14.8071084,25.7975504 L14.8071084,25.7975504 C15.5638112,25.813381 16.320514,25.8007165 17.0772169,25.8038826 L19.6449406,25.8038826 C19.7905822,25.8102148 19.9362237,25.7996611 20.0818653,25.794736 L22.9535366,25.7943842 C23.1055104,25.788052 23.2701487,25.8070487 23.4189563,25.7848859 L23.4221225,22.2008374 L23.4221225,22.2008374 C22.7857322,22.0615281 22.1936677,21.7322515 21.7345802,21.2668318 C21.2280009,20.7570864 20.889226,20.0795366 20.7879102,19.3671595 C20.7372522,19.037883 20.7499167,18.7086064 20.7499167,18.3761638 L20.7499167,14.6971317 C20.7514998,14.536451 20.757832,14.3757704 20.7784118,14.2158813 C20.8828938,13.2787096 21.4053037,12.4048604 22.1778371,11.8602876 C22.9662011,11.2903859 24.0046887,11.0940865 24.9481926,11.3220471 C25.7587194,11.5120144 26.4900933,12.0154275 26.9618453,12.6993096 C27.2752912,13.1488987 27.4747568,13.6776408 27.5412453,14.2222136 C27.5644635,14.3974056 27.5665743,14.5725976 27.5663398,14.7477896 L27.5665743,18.7814272 C27.5792388,19.3481628 27.4525939,19.9180645 27.1898059,20.4246438 C26.7370507,21.3174898 25.8726998,21.9855412 24.8943685,22.1976713 L24.8943685,25.788052 L27.2752912,25.788052 C27.6109,25.788052 27.9243459,26.0476739 27.9845022,26.3801165 C28.0541569,26.6998947 27.8831863,27.048168 27.5887371,27.1906434 C27.4842552,27.245259 27.3690875,27.2624748 27.2539199,27.2663335 L0.727370266,27.2666303 C0.35376804,27.2697964 0.0149931395,26.9500182 0.00232865723,26.576416 C-0.0230003073,26.2756346 0.160634685,25.971687 0.439253295,25.8545405 C0.597559323,25.7785536 0.778028195,25.788052 0.948998706,25.8007165 C2.09830047,25.8038826 3.24443611,25.8007165 4.39373788,25.8007165 C4.8596651,25.79533 5.32788328,25.8059803 5.79449487,25.7995381 L6.03378833,25.7975504 C4.81799803,25.8007165 3.60537386,25.7975504 2.38958356,25.7975504 C1.87350591,25.7943842 1.35426214,25.8038826 0.838184486,25.7912181 L0.838184486,3.50489546 C0.841350607,2.83684403 1.06297905,2.17829095 1.44924575,1.63371821 C1.98115401,0.889679878 2.79484699,0.370436106 3.67502851,0.142475425 C4.02330177,0.050657929 4.38423952,0.00633224113 4.74201114,1.49213975e-13 L15.5131533,1.49213975e-13 C15.8867555,0.00316612056 16.2635239,-0.0126644823 16.63396,0.0411595673 Z M12.5591628,17.6827833 L8.05060713,17.6827833 C7.61051637,17.6891156 7.17675785,17.8442555 6.83165071,18.1165419 C6.40739056,18.4426523 6.11927359,18.9428993 6.05278505,19.4748076 C6.02428997,19.6932699 6.03378833,19.9117322 6.03378833,20.1301945 L6.03313648,25.7945844 C6.03546457,25.7945182 6.0377926,25.7944515 6.04012057,25.7943842 C6.53086926,25.788052 7.02478407,25.7943842 7.51553276,25.7912181 L7.51553276,19.7439278 C7.51236663,19.4399803 7.77198852,19.1581955 8.07910222,19.1550294 L12.590824,19.1550294 C12.6984721,19.1550294 12.8092863,19.145531 12.9169344,19.1803584 C13.1575596,19.2531791 13.3348624,19.4906382 13.3316962,19.7439278 L13.3316962,25.7943842 L14.0694023,25.79478 L14.0694023,25.79478 L14.8007762,25.7975504 C14.8039423,23.7712332 14.8007762,21.744916 14.8007762,19.7185989 C14.8007762,19.2341824 14.6139751,18.7560982 14.297363,18.3919944 C13.9744187,18.0183921 13.5153312,17.7682686 13.0277487,17.7017801 C12.8726087,17.6764511 12.7143027,17.6859495 12.5591628,17.6827833 Z M14.664633,12.0882483 L6.18892824,12.0882483 C6.06861566,12.0882483 5.94513696,12.0819161 5.82482437,12.1104112 C5.65701998,12.1515707 5.5050462,12.2528866 5.40373034,12.3921959 C5.22009535,12.6359872 5.21692923,12.9969249 5.39106586,13.2470484 C5.5208768,13.4370157 5.74250524,13.5636605 5.97363204,13.5668266 L14.7501182,13.5668266 C15.0160724,13.5953217 15.294691,13.4781752 15.4466648,13.2533807 C15.6081369,13.0285861 15.6208014,12.7119741 15.4878243,12.4713489 C15.3928407,12.2972123 15.2218702,12.1642352 15.0255707,12.1135773 C14.9084243,12.0819161 14.7849456,12.0882483 14.664633,12.0882483 Z M14.9907434,8.74799112 L6.07811402,8.74799112 C6.03062221,8.74799112 5.97996428,8.75432336 5.92930635,8.77015396 C5.76150196,8.81447965 5.60952818,8.91896163 5.51454456,9.06460317 C5.33407569,9.31789282 5.34357405,9.68832893 5.53354128,9.93212021 C5.67285059,10.1189213 5.90397739,10.2297355 6.13510419,10.2234033 L14.9400855,10.2234033 C15.1142221,10.2234033 15.2883587,10.1727454 15.4213358,10.0619312 C15.6841238,9.85929944 15.7727752,9.47303273 15.6302998,9.17541739 C15.5194855,8.92845999 15.2630298,8.75115724 14.9907434,8.74799112 Z M14.9115904,5.39506944 C11.960766,5.39823556 9.00994166,5.39190332 6.06228342,5.39823556 C5.73300688,5.42039841 5.43855767,5.68951865 5.39423198,6.01879519 C5.34040793,6.32274277 5.50188008,6.64885318 5.77733257,6.78816249 C5.90397739,6.85781714 6.04961893,6.87997999 6.19526048,6.87364774 L14.9970756,6.87364774 C15.3611795,6.87048162 15.6904561,6.55070345 15.6999544,6.18343346 C15.7189511,5.93330994 15.6018047,5.68002029 15.3960068,5.53437875 C15.2566975,5.43306289 15.0825609,5.3887372 14.9115904,5.39506944 Z" id="形状结合" fill="#00CFD2" fill-rule="nonzero"></path>
    </g>
</svg>