<svg width="164" height="164" viewBox="0 0 164 164" xmlns="http://www.w3.org/2000/svg" xmlns:xlink="http://www.w3.org/1999/xlink"><defs><circle id="path-1" cx="72" cy="72" r="72"/><filter x="-10.4%" y="-10.4%" width="120.8%" height="120.8%" filterUnits="objectBoundingBox" id="filter-2"><feOffset in="SourceAlpha" result="shadowOffsetOuter1"/><feGaussianBlur stdDeviation="5" in="shadowOffsetOuter1" result="shadowBlurOuter1"/><feComposite in="shadowBlurOuter1" in2="SourceAlpha" operator="out" result="shadowBlurOuter1"/><feColorMatrix values="0 0 0 0 0 0 0 0 0 0.917647059 0 0 0 0 0.611764706 0 0 0 0.6 0" in="shadowBlurOuter1"/></filter><filter x="-13.9%" y="-13.9%" width="127.8%" height="127.8%" filterUnits="objectBoundingBox" id="filter-3"><feGaussianBlur stdDeviation="10" in="SourceAlpha" result="shadowBlurInner1"/><feOffset in="shadowBlurInner1" result="shadowOffsetInner1"/><feComposite in="shadowOffsetInner1" in2="SourceAlpha" operator="arithmetic" k2="-1" k3="1" result="shadowInnerInner1"/><feColorMatrix values="0 0 0 0 0 0 0 0 0 0.917647059 0 0 0 0 0.611764706 0 0 0 1 0" in="shadowInnerInner1"/></filter></defs><g id="页面-1" stroke="none" stroke-width="1" fill="none" fill-rule="evenodd"><g id="标准区屏POI点位分类" transform="translate(-1147 -968)"><g id="编组-2备份-20" transform="translate(1157 978)"><g id="绿色" fill-rule="nonzero"><use fill="#000" filter="url(#filter-2)" xlink:href="#path-1"/><use fill-opacity=".8" fill="#020F2B" xlink:href="#path-1"/><use fill="#000" filter="url(#filter-3)" xlink:href="#path-1"/><circle stroke="#00EA9C" stroke-width="3" stroke-linejoin="square" cx="72" cy="72" r="70.5"/></g><g id="挡土墙" transform="translate(52 17.124)"><path id="28" d="M0 0h44v44H0z"/><path d="M14.819 7.372C13.032 9.648 3.61 33.702 1.663 36.302v.326h28.1c.162 0 .324-.164.324-.327v-.161C27.976 33.7 16.768 9.648 15.144 7.372h-.325zm27.288 22.592c-1.462-1.951-10.07-19.342-11.045-20.479a.895.895 0 0 0-.812-.488.895.895 0 0 0-.813.488l-4.872 6.664 7.31 15.764h9.42c.487 0 .812-.161.975-.649.161-.488 0-.976-.163-1.3z" id="形状" fill="#00EA9C"/></g></g></g></g></svg>