<svg width="164" height="164" viewBox="0 0 164 164" xmlns="http://www.w3.org/2000/svg" xmlns:xlink="http://www.w3.org/1999/xlink"><defs><circle id="path-1" cx="72" cy="72" r="72"/><filter x="-10.4%" y="-10.4%" width="120.8%" height="120.8%" filterUnits="objectBoundingBox" id="filter-2"><feOffset in="SourceAlpha" result="shadowOffsetOuter1"/><feGaussianBlur stdDeviation="5" in="shadowOffsetOuter1" result="shadowBlurOuter1"/><feComposite in="shadowBlurOuter1" in2="SourceAlpha" operator="out" result="shadowBlurOuter1"/><feColorMatrix values="0 0 0 0 0.988235294 0 0 0 0 0.352941176 0 0 0 0 0.352941176 0 0 0 0.4 0" in="shadowBlurOuter1"/></filter><filter x="-13.9%" y="-13.9%" width="127.8%" height="127.8%" filterUnits="objectBoundingBox" id="filter-3"><feGaussianBlur stdDeviation="10" in="SourceAlpha" result="shadowBlurInner1"/><feOffset in="shadowBlurInner1" result="shadowOffsetInner1"/><feComposite in="shadowOffsetInner1" in2="SourceAlpha" operator="arithmetic" k2="-1" k3="1" result="shadowInnerInner1"/><feColorMatrix values="0 0 0 0 0.988235294 0 0 0 0 0.352941176 0 0 0 0 0.352941176 0 0 0 1 0" in="shadowInnerInner1"/></filter></defs><g id="页面-1" stroke="none" stroke-width="1" fill="none" fill-rule="evenodd"><g id="标准区屏POI点位分类" transform="translate(-1483 -968)"><g id="编组-2备份-23" transform="translate(1493 978)"><g id="红色" fill-rule="nonzero"><use fill="#000" filter="url(#filter-2)" xlink:href="#path-1"/><use fill-opacity=".8" fill="#020F2B" xlink:href="#path-1"/><use fill="#000" filter="url(#filter-3)" xlink:href="#path-1"/><circle stroke="#FC5A5A" stroke-width="3" stroke-linejoin="square" cx="72" cy="72" r="70.5"/></g><g id="危树" transform="translate(52 17.124)"><path id="28" d="M1.38.518h44v44h-44z"/><path d="M27.972 38.22c.95.276 1.949.587 2.998.937 1.05.35 1.987.7 2.812 1.049.825.35 1.449.674 1.873.974.426.3.487.537.188.712-.8.424-1.855.774-3.168 1.048-1.312.275-2.748.48-4.31.62-1.562.136-3.174.199-4.835.186a54.864 54.864 0 0 1-4.685-.225c-1.463-.136-2.762-.344-3.898-.617-1.138-.275-1.955-.613-2.455-1.012-.275-.225-.201-.494.225-.805.424-.313 1.043-.638 1.854-.974a32.954 32.954 0 0 1 2.774-.993c1.037-.326 2.03-.624 2.98-.9.45-.123.794-.112 1.032.039.237.149.462.336.674.56.212.225.474.44.787.639.313.2.768.298 1.367.298.6 0 1.05-.099 1.35-.298.3-.2.563-.414.787-.638.225-.225.45-.412.674-.561.227-.151.55-.162.976-.038zm-10.72-26.558a.438.438 0 0 1 .074-.485c.125-.151.287-.288.488-.414.225-.124.499-.248.824-.374l-.225-.45c-.099-.174-.224-.398-.374-.673s-.325-.624-.525-1.05c-.224-.424-.306-.798-.243-1.124.061-.323.212-.535.45-.636.236-.099.518-.063.843.113.324.175.637.536.937 1.086.3.574.718 1.285 1.255 2.136a78.332 78.332 0 0 0 1.631 2.471c.65.95 1.323 1.924 2.024 2.922l2.398-1.911a5.865 5.865 0 0 0-.149-.861 8.148 8.148 0 0 0-.225-.9c-.1-.323-.25-.673-.45-1.047-.175-.35-.244-.687-.206-1.012.037-.326.131-.57.28-.73a.656.656 0 0 1 .582-.207c.238.025.456.2.656.525.2.324.43.655.694.992.26.337.505.644.73.917l.824.975 3.636-.786.6 1.386-2.023 1.348c-.575.374-1.157.756-1.743 1.143-.588.386-1.081.705-1.482.955-.399.25-.81.548-1.236.899-.425.349-.811.762-1.162 1.235a6.502 6.502 0 0 0-.863 1.63c-.224.612-.337 1.293-.337 2.042v2.884l-.074 3.522v3.221l.074 1.985.3.993.487.842c.201.275.413.538.638.787a4.381 4.381 0 0 1-.638.712c-.225.2-.5.387-.824.561a3.197 3.197 0 0 1-1.162.338c-.45.049-.855.02-1.218-.094a7.957 7.957 0 0 1-.956-.357c-.3-.15-.575-.336-.825-.56.1-.45.2-.912.3-1.387.076-.424.143-.874.206-1.348.063-.475.095-.937.095-1.386V21.627c0-.675.025-1.336.073-1.985.05-.65.114-1.224.19-1.724.098-.599.199-1.161.3-1.685a89.25 89.25 0 0 0-1.164-2.06c-.3-.5-.594-.961-.881-1.386-.286-.426-.481-.613-.58-.562-.1.05-.25.081-.45.092-.2.015-.4 0-.6-.036a2.058 2.058 0 0 1-.581-.206.833.833 0 0 1-.393-.413zM14.74 18.63c-.5.575-1.037 1.006-1.612 1.292a8.013 8.013 0 0 1-1.613.619 6.927 6.927 0 0 1-1.724.15 3.152 3.152 0 0 1-.45-1.2c-.05-.4-.037-.899.039-1.498.073-.598.323-1.323.75-2.173.398-.823.955-1.453 1.666-1.89.712-.437 1.407-.756 2.081-.956a9.244 9.244 0 0 1 2.511-.338c-.25.45-.38.906-.393 1.368-.012.462-.031.936-.056 1.423s-.107 1-.244 1.536c-.138.537-.455 1.093-.955 1.667zm22.864-3.484c.5.5.867.95 1.105 1.348.237.401.394.75.468 1.05.1.349.113.674.038.974-.4.175-.824.299-1.275.374-.374.05-.81.057-1.31.02-.5-.039-1-.194-1.5-.47-.5-.249-.875-.543-1.124-.88a6.372 6.372 0 0 1-.62-1.011 22.305 22.305 0 0 1-.45-.992 2.273 2.273 0 0 0-.654-.862 6.915 6.915 0 0 1 1.873-.488 6.94 6.94 0 0 1 1.724.076c.625.1 1.2.386 1.725.861zm-27.7-7.678a8.157 8.157 0 0 1-2.212-1.161c-.674-.5-1.262-.987-1.762-1.462a15.278 15.278 0 0 1-1.574-1.76c.6-.649 1.238-1.112 1.912-1.386.575-.25 1.25-.344 2.024-.28.775.062 1.6.492 2.474 1.29.875.826 1.55 1.525 2.024 2.099.474.575.85 1.037 1.125 1.386.275.424.474.774.598 1.05-.273.25-.636.424-1.085.523-.376.1-.857.144-1.444.132-.587-.013-1.281-.156-2.08-.43zM36.78 1.662c1.274-.326 2.274-.437 2.998-.338.725.1 1.287.287 1.688.562.45.3.76.712.937 1.237-.326.498-.712.998-1.163 1.498-.374.424-.836.88-1.386 1.367a8.664 8.664 0 0 1-1.875 1.255c-.7.374-1.348.618-1.948.73-.6.113-1.145.207-1.632.28-.487.076-.898.2-1.236.376-.337.175-.593.498-.769.973-.05-1.248.063-2.409.338-3.482.124-.45.288-.905.487-1.367.2-.464.456-.895.769-1.294.312-.399.699-.756 1.16-1.067a5.545 5.545 0 0 1 1.632-.73z" id="形状" fill="#FC5A5A"/></g></g></g></g></svg>