<svg width="164" height="164" viewBox="0 0 164 164" xmlns="http://www.w3.org/2000/svg" xmlns:xlink="http://www.w3.org/1999/xlink"><defs><circle id="path-1" cx="72" cy="72" r="72"/><filter x="-10.4%" y="-10.4%" width="120.8%" height="120.8%" filterUnits="objectBoundingBox" id="filter-2"><feOffset in="SourceAlpha" result="shadowOffsetOuter1"/><feGaussianBlur stdDeviation="5" in="shadowOffsetOuter1" result="shadowBlurOuter1"/><feComposite in="shadowBlurOuter1" in2="SourceAlpha" operator="out" result="shadowBlurOuter1"/><feColorMatrix values="0 0 0 0 0.988235294 0 0 0 0 0.352941176 0 0 0 0 0.352941176 0 0 0 0.4 0" in="shadowBlurOuter1"/></filter><filter x="-13.9%" y="-13.9%" width="127.8%" height="127.8%" filterUnits="objectBoundingBox" id="filter-3"><feGaussianBlur stdDeviation="10" in="SourceAlpha" result="shadowBlurInner1"/><feOffset in="shadowBlurInner1" result="shadowOffsetInner1"/><feComposite in="shadowOffsetInner1" in2="SourceAlpha" operator="arithmetic" k2="-1" k3="1" result="shadowInnerInner1"/><feColorMatrix values="0 0 0 0 0.988235294 0 0 0 0 0.352941176 0 0 0 0 0.352941176 0 0 0 1 0" in="shadowInnerInner1"/></filter></defs><g id="页面-1" stroke="none" stroke-width="1" fill="none" fill-rule="evenodd"><g id="标准区屏POI点位分类" transform="translate(-1987 -755)"><g id="编组-2备份-23" transform="translate(1997 765)"><g id="红色" fill-rule="nonzero"><use fill="#000" filter="url(#filter-2)" xlink:href="#path-1"/><use fill-opacity=".8" fill="#020F2B" xlink:href="#path-1"/><use fill="#000" filter="url(#filter-3)" xlink:href="#path-1"/><circle stroke="#FC5A5A" stroke-width="3" stroke-linejoin="square" cx="72" cy="72" r="70.5"/></g><g id="危房" transform="translate(52 17.124)"><path id="28" d="M.244 0h44v44h-44z"/><path d="M20.202 2.081a3.127 3.127 0 0 1 4.084 0l18.043 15.586a3.126 3.126 0 1 1-2.043 5.492H38.58V39.55a3.127 3.127 0 0 1-2.824 3.112l-.299.015h-8.452L27 36.227l-6.618-1.857-.98-6.604-5.053-1.25-5.563-3.357H4.205a3.119 3.119 0 0 1-2.16-.863l-.208-.218a3.125 3.125 0 0 1 .323-4.411L20.202 2.08zM9.364 25.488l4.73 3.006 3.753 1.068.844 6.534 6.15 1.639v4.943H8.697a3.126 3.126 0 0 1-3.125-3.127V25.487h3.792z" id="形状" fill="#FC5A5A"/></g></g></g></g></svg>