<svg width="164" height="164" viewBox="0 0 164 164" xmlns="http://www.w3.org/2000/svg" xmlns:xlink="http://www.w3.org/1999/xlink"><defs><circle id="path-1" cx="72" cy="72" r="72"/><filter x="-10.4%" y="-10.4%" width="120.8%" height="120.8%" filterUnits="objectBoundingBox" id="filter-2"><feOffset in="SourceAlpha" result="shadowOffsetOuter1"/><feGaussianBlur stdDeviation="5" in="shadowOffsetOuter1" result="shadowBlurOuter1"/><feComposite in="shadowBlurOuter1" in2="SourceAlpha" operator="out" result="shadowBlurOuter1"/><feColorMatrix values="0 0 0 0 0.411764706 0 0 0 0 0.901960784 0 0 0 0 0.909803922 0 0 0 0.6 0" in="shadowBlurOuter1"/></filter><filter x="-13.9%" y="-13.9%" width="127.8%" height="127.8%" filterUnits="objectBoundingBox" id="filter-3"><feGaussianBlur stdDeviation="10" in="SourceAlpha" result="shadowBlurInner1"/><feOffset in="shadowBlurInner1" result="shadowOffsetInner1"/><feComposite in="shadowOffsetInner1" in2="SourceAlpha" operator="arithmetic" k2="-1" k3="1" result="shadowInnerInner1"/><feColorMatrix values="0 0 0 0 0.411764706 0 0 0 0 0.901960784 0 0 0 0 0.909803922 0 0 0 1 0" in="shadowInnerInner1"/></filter></defs><g id="页面-1" stroke="none" stroke-width="1" fill="none" fill-rule="evenodd"><g id="标准区屏POI点位分类" transform="translate(-1483 -552)"><g id="编组-2备份-18" transform="translate(1493 562)"><g id="青色" fill-rule="nonzero"><use fill="#000" filter="url(#filter-2)" xlink:href="#path-1"/><use fill-opacity=".8" fill="#020F2B" xlink:href="#path-1"/><use fill="#000" filter="url(#filter-3)" xlink:href="#path-1"/><circle stroke="#69E6E8" stroke-width="3" stroke-linejoin="square" cx="72" cy="72" r="70.5"/></g><g id="教育机构-" transform="translate(52 17.124)"><path id="bg" d="M0 0h44v44H0z"/><path d="M34.8 23.515c.327.184.528.524.527.89v4.841c0 .371-.206.714-.54.897l-11.502 6.294a2.179 2.179 0 0 1-2.052.016L9.228 30.14a1.025 1.025 0 0 1-.555-.906v-4.828c0-.366.201-.705.528-.889.326-.184.73-.186 1.058-.004l11.2 6.188c.325.18.724.18 1.05 0l11.233-6.192c.329-.18.732-.179 1.058.006zM20.26 4.397a2.174 2.174 0 0 1 2.08-.014l18.36 9.876c.34.182.55.53.55.906v12.813c.014.466-.234.904-.647 1.141a1.344 1.344 0 0 1-1.34 0 1.277 1.277 0 0 1-.647-1.143V16.028l-15.876 8.86a2.177 2.177 0 0 1-2.077.019l-17.358-9.27a1.032 1.032 0 0 1-.554-.9 1.031 1.031 0 0 1 .539-.909z" id="形状结合" fill="#00E9EA"/></g></g></g></g></svg>