<svg width="164" height="164" viewBox="0 0 164 164" xmlns="http://www.w3.org/2000/svg" xmlns:xlink="http://www.w3.org/1999/xlink"><defs><circle id="path-1" cx="72" cy="72" r="72"/><filter x="-10.4%" y="-10.4%" width="120.8%" height="120.8%" filterUnits="objectBoundingBox" id="filter-2"><feOffset in="SourceAlpha" result="shadowOffsetOuter1"/><feGaussianBlur stdDeviation="5" in="shadowOffsetOuter1" result="shadowBlurOuter1"/><feComposite in="shadowBlurOuter1" in2="SourceAlpha" operator="out" result="shadowBlurOuter1"/><feColorMatrix values="0 0 0 0 0.411764706 0 0 0 0 0.901960784 0 0 0 0 0.909803922 0 0 0 0.6 0" in="shadowBlurOuter1"/></filter><filter x="-13.9%" y="-13.9%" width="127.8%" height="127.8%" filterUnits="objectBoundingBox" id="filter-3"><feGaussianBlur stdDeviation="10" in="SourceAlpha" result="shadowBlurInner1"/><feOffset in="shadowBlurInner1" result="shadowOffsetInner1"/><feComposite in="shadowOffsetInner1" in2="SourceAlpha" operator="arithmetic" k2="-1" k3="1" result="shadowInnerInner1"/><feColorMatrix values="0 0 0 0 0.411764706 0 0 0 0 0.901960784 0 0 0 0 0.909803922 0 0 0 1 0" in="shadowInnerInner1"/></filter></defs><g id="页面-1" stroke="none" stroke-width="1" fill="none" fill-rule="evenodd"><g id="标准区屏POI点位分类" transform="translate(-1147 -1504)"><g id="编组-2备份-18" transform="translate(1157 1514)"><g id="青色" fill-rule="nonzero"><use fill="#000" filter="url(#filter-2)" xlink:href="#path-1"/><use fill-opacity=".8" fill="#020F2B" xlink:href="#path-1"/><use fill="#000" filter="url(#filter-3)" xlink:href="#path-1"/><circle stroke="#69E6E8" stroke-width="3" stroke-linejoin="square" cx="72" cy="72" r="70.5"/></g><g id="摄像头" transform="translate(52 17.124)"><path id="bg" fill-opacity="0" fill="#FFF" d="M0 0h44v44H0z"/><g id="编组" transform="translate(3.238 1.53)" fill="#00E9EA"><path d="M19.14 9.535l.053.074 3.26 5.552h13.064a.5.5 0 0 1 .492.41l.008.09v23.305a.5.5 0 0 1-.41.492l-.09.008H2.007a.5.5 0 0 1-.492-.41l-.008-.09V15.661a.5.5 0 0 1 .41-.492l.09-.008H15.07l3.26-5.552a.5.5 0 0 1 .81-.074zm-7.307 14.08a4.714 4.714 0 1 0 0 9.43 4.714 4.714 0 0 0 0-9.43zm12.537 0h-3.143v9.43h3.143v-9.43zm5.608 0h-3.143v9.43h3.143v-9.43zM9.863 4.389a15.012 15.012 0 0 1 17.773 0l-2.958 3.944a10.008 10.008 0 0 0-11.857 0z" id="形状结合"/></g></g></g></g></g></svg>