<?xml version="1.0" encoding="UTF-8"?>
<svg width="32px" height="30px" viewBox="0 0 32 30" version="1.1" xmlns="http://www.w3.org/2000/svg" xmlns:xlink="http://www.w3.org/1999/xlink">
    <title>烟感</title>
    <defs>
        <filter id="filter-1">
            <feColorMatrix in="SourceGraphic" type="matrix" values="0 0 0 0 0.952941 0 0 0 0 0.592157 0 0 0 0 0.290196 0 0 0 1.000000 0"></feColorMatrix>
        </filter>
        <filter x="-40.1%" y="-45.1%" width="180.5%" height="191.8%" filterUnits="objectBoundingBox" id="filter-2">
            <feOffset dx="0" dy="2" in="SourceAlpha" result="shadowOffsetOuter1"></feOffset>
            <feGaussianBlur stdDeviation="2" in="shadowOffsetOuter1" result="shadowBlurOuter1"></feGaussianBlur>
            <feColorMatrix values="0 0 0 0 0.364668252   0 0 0 0 0   0 0 0 0 0  0 0 0 0.644476617 0" type="matrix" in="shadowBlurOuter1" result="shadowMatrixOuter1"></feColorMatrix>
            <feMerge>
                <feMergeNode in="shadowMatrixOuter1"></feMergeNode>
                <feMergeNode in="SourceGraphic"></feMergeNode>
            </feMerge>
        </filter>
    </defs>
    <g id="页面-1" stroke="none" stroke-width="1" fill="none" fill-rule="evenodd">
        <g id="AI手绘传感器-1" transform="translate(-2870.000000, -525.000000)">
            <g id="icon-map-disposal" transform="translate(2826.000000, 483.000000)">
                <g id="烟感" transform="translate(27.254335, 27.254335)" filter="url(#filter-1)">
                    <g filter="url(#filter-2)" transform="translate(15.953757, 17.947977)">
                        <path d="M9.82472277,15.7277457 C10.192058,15.6455596 10.5534106,15.8969522 10.6299887,16.2885444 C11.0655262,18.5003153 10.4744395,20.2528114 8.87348,21.3913295 L8.76220255,21.4747241 C8.53127192,21.6535996 8.51093088,21.7430373 8.56357827,21.8977404 C8.6174222,22.0584866 8.67126613,22.164845 8.89023145,22.4561219 L9.63208115,23.4109301 C10.3260696,24.331897 10.644347,25.00268 10.644347,25.8644246 C10.644347,26.2644771 10.340428,26.5895954 9.96471699,26.5895954 C9.58900601,26.5895954 9.28508694,26.2644771 9.28508694,25.8644246 L9.27671121,25.714556 C9.2384222,25.3640568 9.06133549,24.9990541 8.70237596,24.4974777 L8.3912777,24.0865476 C7.64105227,23.1341566 7.48550314,22.9299002 7.34790199,22.5673148 L7.2844858,22.3860221 C7.0021043,21.544824 7.29166499,20.7737257 8.11966498,20.1851287 L8.32068232,20.0316343 C9.2838904,19.2436153 9.60456092,18.1377299 9.29944532,16.587073 C9.22286728,16.1942722 9.45738751,15.8099317 9.8259193,15.7277457 L9.82472277,15.7277457 Z M15.8073817,15.7277457 C16.1747169,15.6455596 16.5360695,15.8969522 16.6126475,16.2885444 C17.0481851,18.5003153 16.4570984,20.2528114 14.8561389,21.3913295 L14.7448614,21.4747241 C14.5139308,21.6535996 14.4935898,21.7430373 14.5462372,21.8977404 C14.6000811,22.0584866 14.653925,22.164845 14.8728903,22.4561219 L15.61474,23.4109301 C16.3087285,24.331897 16.6270059,25.00268 16.6270059,25.8644246 C16.6270059,26.2644771 16.3230869,26.5895954 15.9473759,26.5895954 C15.5716649,26.5895954 15.2677458,26.2644771 15.2677458,25.8644246 L15.2593701,25.714556 C15.2210811,25.3640568 15.0439944,24.9990541 14.6850349,24.4974777 L14.3739366,24.0865476 C13.6237112,23.1341566 13.468162,22.9299002 13.3305609,22.5673148 L13.2671447,22.3860221 C12.9847632,21.544824 13.2743239,20.7737257 14.1023239,20.1851287 L14.3033412,20.0316343 C15.2665493,19.2436153 15.5872198,18.1377299 15.2821042,16.587073 C15.2055262,16.1942722 15.4400464,15.8099317 15.8085782,15.7277457 L15.8073817,15.7277457 Z M21.7900406,15.7277457 C22.1573758,15.6455596 22.5187284,15.8969522 22.5953064,16.2885444 C23.030844,18.5003153 22.4397573,20.2528114 20.8387978,21.3913295 L20.7275203,21.4747241 C20.4965897,21.6535996 20.4762487,21.7430373 20.5288961,21.8977404 C20.58274,22.0584866 20.6365839,22.164845 20.8555492,22.4561219 L21.5973989,23.4109301 C22.2913874,24.331897 22.6096648,25.00268 22.6096648,25.8644246 C22.6096648,26.2644771 22.3057457,26.5895954 21.9300348,26.5895954 C21.5543238,26.5895954 21.2504047,26.2644771 21.2504047,25.8644246 L21.242029,25.714556 C21.20374,25.3640568 21.0266533,24.9990541 20.6676937,24.4974777 L20.3565955,24.0865476 C19.6063701,23.1341566 19.4508209,22.9299002 19.3132198,22.5673148 L19.2498036,22.3860221 C18.9674221,21.544824 19.2569828,20.7737257 20.0849828,20.1851287 L20.2860001,20.0316343 C21.2492082,19.2436153 21.5698787,18.1377299 21.2647631,16.587073 C21.1881851,16.1942722 21.4227053,15.8099317 21.7912371,15.7277457 L21.7900406,15.7277457 Z M29.9132948,0 L29.9132948,0 C29.9132948,1.60200424 28.6276027,2.90068313 27.0416185,2.90068313 L27.0643526,2.90068313 L27.0643526,9.66894377 L27.0643526,9.66894377 C27.0643526,12.3389471 24.9215287,14.5034157 22.2782255,14.5034157 L7.63506961,14.5034157 L7.6350694,14.5034157 C4.99176618,14.5034157 2.84894229,12.3389471 2.84894229,9.66894377 C2.84894229,9.66894377 2.84894229,9.66894377 2.84894229,9.66894377 L2.84894229,2.90068313 L2.87167639,2.90068313 L2.87167627,2.90068313 C1.28569209,2.90068306 0,1.60200424 0,0 C0,0 0,0 0,0 L29.9132948,0 L29.9132948,0 Z M8.54682683,7.25170733 L8.54682678,7.25170733 C7.81642639,7.2516039 7.20440039,7.80976452 7.13013316,8.54372044 L7.12175744,8.68996322 L7.12175744,10.1644771 L7.12175744,10.1644766 C7.11331453,10.9587577 7.74392405,11.6095645 8.5302623,11.618089 C9.27229522,11.6261367 9.89603602,11.0571845 9.96352042,10.3107194 L9.97069961,10.1644766 L9.97069961,8.68996272 L9.97069961,8.68996272 C9.97069961,7.89563633 9.33320991,7.25170733 8.54682679,7.25170733 L8.54682683,7.25170733 Z M21.3664683,7.25168647 L21.3664683,7.25168647 C20.6360679,7.2516039 20.0240419,7.80976452 19.9497746,8.54372044 L19.942594,8.68996322 L19.942594,10.1644771 L19.942594,10.1645011 C19.9415094,10.9588275 20.5781183,11.6036441 21.3645014,11.6047446 C22.0963526,11.6057641 22.7097845,11.0462144 22.7831656,10.3106986 L22.7915413,10.1644558 L22.7915413,8.68994186 L22.7915413,8.68994186 C22.7915413,7.89561546 22.1540516,7.25168647 21.3676685,7.25168647 C21.3676685,7.25168647 21.3676685,7.25168647 21.3676685,7.25168647 L21.3664683,7.25168647 Z M14.9566476,7.25170783 C14.219584,7.25170783 13.6129424,7.82217551 13.5399539,8.55338939 L13.5327747,8.7020494 L13.5327747,10.152391 L13.5399539,10.301051 L13.5399539,10.3010507 C13.6117623,11.0377524 14.2237905,11.6000959 14.9566475,11.6027322 C15.6937111,11.6027322 16.3003527,11.0322646 16.3733412,10.3010507 L16.3805204,10.1523907 L16.3805204,8.70204911 L16.3733412,8.5533891 L16.3733412,8.55338951 C16.3015328,7.81668775 15.6895046,7.25434425 14.9566476,7.25170783 L14.9566476,7.25170783 Z" id="形状" fill="#000000" fill-rule="nonzero"></path>
                    </g>
                </g>
            </g>
        </g>
    </g>
</svg>