<svg width="164" height="164" viewBox="0 0 164 164" xmlns="http://www.w3.org/2000/svg" xmlns:xlink="http://www.w3.org/1999/xlink"><defs><circle id="path-1" cx="72" cy="72" r="72"/><filter x="-10.4%" y="-10.4%" width="120.8%" height="120.8%" filterUnits="objectBoundingBox" id="filter-2"><feOffset in="SourceAlpha" result="shadowOffsetOuter1"/><feGaussianBlur stdDeviation="5" in="shadowOffsetOuter1" result="shadowBlurOuter1"/><feComposite in="shadowBlurOuter1" in2="SourceAlpha" operator="out" result="shadowBlurOuter1"/><feColorMatrix values="0 0 0 0 0 0 0 0 0 0.917647059 0 0 0 0 0.611764706 0 0 0 0.6 0" in="shadowBlurOuter1"/></filter><filter x="-13.9%" y="-13.9%" width="127.8%" height="127.8%" filterUnits="objectBoundingBox" id="filter-3"><feGaussianBlur stdDeviation="10" in="SourceAlpha" result="shadowBlurInner1"/><feOffset in="shadowBlurInner1" result="shadowOffsetInner1"/><feComposite in="shadowOffsetInner1" in2="SourceAlpha" operator="arithmetic" k2="-1" k3="1" result="shadowInnerInner1"/><feColorMatrix values="0 0 0 0 0 0 0 0 0 0.917647059 0 0 0 0 0.611764706 0 0 0 1 0" in="shadowInnerInner1"/></filter><path id="path-4" d="M0 0h44v44H0z"/></defs><g id="页面-1" stroke="none" stroke-width="1" fill="none" fill-rule="evenodd"><g id="标准区屏POI点位分类" transform="translate(-1483 -1252)"><g id="编组-2备份-20" transform="translate(1493 1262)"><g id="绿色" fill-rule="nonzero"><use fill="#000" filter="url(#filter-2)" xlink:href="#path-1"/><use fill-opacity=".8" fill="#020F2B" xlink:href="#path-1"/><use fill="#000" filter="url(#filter-3)" xlink:href="#path-1"/><circle stroke="#00EA9C" stroke-width="3" stroke-linejoin="square" cx="72" cy="72" r="70.5"/></g><g id="体育设施" transform="translate(52 17.124)"><mask id="mask-5" fill="#fff"><use xlink:href="#path-4"/></mask><path d="M35.718 33.85L23.868 22l2.142-2.142c4.178 3.6 9.546 4.824 14.061 3.548a18.05 18.05 0 0 1-4.353 10.445zM3.936 23.583c3.684-1.402 8.364-.476 12.023 2.591l-7.678 7.678a18.05 18.05 0 0 1-4.345-10.269zM23.6 3.937A18.05 18.05 0 0 1 33.85 8.28l-7.679 7.677c-3.068-3.66-3.98-8.335-2.572-12.021zm-3.198 36.127a18.062 18.062 0 0 1-10.253-4.344l7.678-7.678c3.069 3.66 3.98 8.338 2.575 12.022zm7.638-22.237l7.679-7.678a18.049 18.049 0 0 1 4.343 10.247c-3.684 1.41-8.36.5-12.022-2.569zM20.579 3.93c-1.272 4.515-.036 9.885 3.563 14.061L22 20.132 10.149 8.282a18.048 18.048 0 0 1 10.43-4.353zm-.447 18.07l-2.142 2.142c-4.177-3.599-9.546-4.83-14.061-3.556A18.045 18.045 0 0 1 8.28 10.15L20.13 22zm3.285 18.072c1.273-4.515.04-9.885-3.559-14.061L22 23.868l11.851 11.85a18.055 18.055 0 0 1-10.434 4.353z" id="形状" fill="#00EA9C" mask="url(#mask-5)"/></g></g></g></g></svg>