<svg width="164" height="164" viewBox="0 0 164 164" xmlns="http://www.w3.org/2000/svg" xmlns:xlink="http://www.w3.org/1999/xlink"><defs><circle id="path-1" cx="72" cy="72" r="72"/><filter x="-10.4%" y="-10.4%" width="120.8%" height="120.8%" filterUnits="objectBoundingBox" id="filter-2"><feOffset in="SourceAlpha" result="shadowOffsetOuter1"/><feGaussianBlur stdDeviation="5" in="shadowOffsetOuter1" result="shadowBlurOuter1"/><feComposite in="shadowBlurOuter1" in2="SourceAlpha" operator="out" result="shadowBlurOuter1"/><feColorMatrix values="0 0 0 0 1 0 0 0 0 0.568627451 0 0 0 0 0.247058824 0 0 0 0.4 0" in="shadowBlurOuter1"/></filter><filter x="-13.9%" y="-13.9%" width="127.8%" height="127.8%" filterUnits="objectBoundingBox" id="filter-3"><feGaussianBlur stdDeviation="10" in="SourceAlpha" result="shadowBlurInner1"/><feOffset in="shadowBlurInner1" result="shadowOffsetInner1"/><feComposite in="shadowOffsetInner1" in2="SourceAlpha" operator="arithmetic" k2="-1" k3="1" result="shadowInnerInner1"/><feColorMatrix values="0 0 0 0 1 0 0 0 0 0.568627451 0 0 0 0 0.247058824 0 0 0 1 0" in="shadowInnerInner1"/></filter></defs><g id="页面-1" stroke="none" stroke-width="1" fill="none" fill-rule="evenodd"><g id="标准区屏POI点位分类" transform="translate(-1542 -1794)"><g id="编组-2备份-22" transform="translate(1552 1804)"><g id="橙色" fill-rule="nonzero"><use fill="#000" filter="url(#filter-2)" xlink:href="#path-1"/><use fill-opacity=".8" fill="#020F2B" xlink:href="#path-1"/><use fill="#000" filter="url(#filter-3)" xlink:href="#path-1"/><circle stroke="#FF913F" stroke-width="3" stroke-linejoin="square" cx="72" cy="72" r="70.5"/></g><g id="街道应急人员" transform="translate(52 17.124)"><path id="28" d="M1.48.781h44v44h-44z"/><path d="M40.64 26.548H19.526a.733.733 0 0 1-.37-.112 4.421 4.421 0 0 1-1.952 2.266h-.189v12.95h-3.19l-1.314-8.258-1.315 8.258H7.82v-12.95c-1.314-.751-2.252-2.065-2.252-3.754v-6.57c0-2.44 2.065-4.317 4.316-4.317h5.257c1.554 0 2.876.842 3.633 2.034V4.664c0-.416.336-.754.754-.754H40.64c.417 0 .755.338.755.754v21.128a.755.755 0 0 1-.755.756zm-2.985-11.084a.752.752 0 0 0-1.029-.276l-4.571 2.641-1.884-3.268 6.529-3.773a.754.754 0 1 0-.754-1.306l-6.53 3.773-3.392-5.882a.755.755 0 0 0-1.306.754l.753 1.308-4.57 2.641a.753.753 0 1 0 .753 1.306l4.57-2.64 1.886 3.267-6.53 3.773a.756.756 0 0 0 .756 1.308l6.529-3.773 3.393 5.88a.755.755 0 0 0 1.306-.754l-.755-1.306 4.571-2.642a.755.755 0 0 0 .275-1.03zM12.7 13.31c-2.44 0-4.505-2.065-4.505-4.505C8.383 6.365 10.26 4.3 12.7 4.3s4.506 2.065 4.506 4.504c0 2.44-2.065 4.505-4.505 4.505z" id="形状" fill="#FF913F"/></g></g></g></g></svg>