<svg width="164" height="164" viewBox="0 0 164 164" xmlns="http://www.w3.org/2000/svg" xmlns:xlink="http://www.w3.org/1999/xlink"><defs><circle id="path-1" cx="72" cy="72" r="72"/><filter x="-10.4%" y="-10.4%" width="120.8%" height="120.8%" filterUnits="objectBoundingBox" id="filter-2"><feOffset in="SourceAlpha" result="shadowOffsetOuter1"/><feGaussianBlur stdDeviation="5" in="shadowOffsetOuter1" result="shadowBlurOuter1"/><feComposite in="shadowBlurOuter1" in2="SourceAlpha" operator="out" result="shadowBlurOuter1"/><feColorMatrix values="0 0 0 0 0.988235294 0 0 0 0 0.352941176 0 0 0 0 0.352941176 0 0 0 0.4 0" in="shadowBlurOuter1"/></filter><filter x="-13.9%" y="-13.9%" width="127.8%" height="127.8%" filterUnits="objectBoundingBox" id="filter-3"><feGaussianBlur stdDeviation="10" in="SourceAlpha" result="shadowBlurInner1"/><feOffset in="shadowBlurInner1" result="shadowOffsetInner1"/><feComposite in="shadowOffsetInner1" in2="SourceAlpha" operator="arithmetic" k2="-1" k3="1" result="shadowInnerInner1"/><feColorMatrix values="0 0 0 0 0.988235294 0 0 0 0 0.352941176 0 0 0 0 0.352941176 0 0 0 1 0" in="shadowInnerInner1"/></filter></defs><g id="页面-1" stroke="none" stroke-width="1" fill="none" fill-rule="evenodd"><g id="标准区屏POI点位分类" transform="translate(-1483 -282)"><g id="编组-2备份-23" transform="translate(1493 292)"><g id="红色" fill-rule="nonzero"><use fill="#000" filter="url(#filter-2)" xlink:href="#path-1"/><use fill-opacity=".8" fill="#020F2B" xlink:href="#path-1"/><use fill="#000" filter="url(#filter-3)" xlink:href="#path-1"/><circle stroke="#FC5A5A" stroke-width="3" stroke-linejoin="square" cx="72" cy="72" r="70.5"/></g><g id="党群服务阵地" transform="translate(52 17.124)"><path id="28" d="M0 0h44v44H0z"/><path d="M28.637 1.312c.13 0 .236.106.236.236v3.69c0 .13-.106.236-.236.236H21.92v3.389l8.395 6.248a1 1 0 0 1 .403.802v9.994h8.27a1 1 0 0 1 1 1v14.781a1 1 0 0 1-1 1H3.244a1 1 0 0 1-1-1v-14.78a1 1 0 0 1 1-1h9.122V15.91a1 1 0 0 1 .399-.8l8.304-6.239v-7.37a.19.19 0 0 1 .189-.19h7.379zM20.393 21.04c.637.493 1.357.878 1.995 1.318 1.496 1.045 2.77 2.255 3.548 3.932.996 2.227.775 4.4-.36 6.599a1111.51 1111.51 0 0 1-5.792-5.939l2.188-2.42c-.524-.44-.996-.907-1.495-1.347-.332.274-.582.578-.915.797-.23.155-.497.25-.776.274-.443.03-.887-.026-1.33 0-.242.035-.471.13-.664.277-.608.55-1.165 1.153-1.747 1.731l-2.52 2.585 2.716 2.474 1.745-1.622 5.845 5.745c-.222.139-.332.22-.47.302-2.162 1.212-4.322.99-6.372-.218-.97-.578-1.857-1.348-2.8-2.064l-1.661 1.46 1.413 1.703c-.278.082-.445.193-.638.22-.609.11-.915.55-1.108 1.072-.194.496.055.88.443 1.21.83.688 1.855.358 2.105-.687.085-.33.221-.632.333-.992 1.83.963 3.629 1.624 5.569 1.763 1.94.135 3.797-.222 5.458-1.349.63.604 1.267 1.2 1.912 1.788l2.744-2.805a44.11 44.11 0 0 1-1.109-1.21c-.583-.603-.583-.603-.194-1.348.083-.219.194-.383.278-.575.746-1.596 1.19-3.3.828-5.087-.802-3.904-3.739-6.763-7.672-7.452-.5-.054-.999-.08-1.497-.135z" id="形状" fill="#FC5A5A"/></g></g></g></g></svg>