<svg width="164" height="164" viewBox="0 0 164 164" xmlns="http://www.w3.org/2000/svg" xmlns:xlink="http://www.w3.org/1999/xlink"><defs><circle id="path-1" cx="72" cy="72" r="72"/><filter x="-10.4%" y="-10.4%" width="120.8%" height="120.8%" filterUnits="objectBoundingBox" id="filter-2"><feOffset in="SourceAlpha" result="shadowOffsetOuter1"/><feGaussianBlur stdDeviation="5" in="shadowOffsetOuter1" result="shadowBlurOuter1"/><feComposite in="shadowBlurOuter1" in2="SourceAlpha" operator="out" result="shadowBlurOuter1"/><feColorMatrix values="0 0 0 0 1 0 0 0 0 0.568627451 0 0 0 0 0.247058824 0 0 0 0.4 0" in="shadowBlurOuter1"/></filter><filter x="-13.9%" y="-13.9%" width="127.8%" height="127.8%" filterUnits="objectBoundingBox" id="filter-3"><feGaussianBlur stdDeviation="10" in="SourceAlpha" result="shadowBlurInner1"/><feOffset in="shadowBlurInner1" result="shadowOffsetInner1"/><feComposite in="shadowOffsetInner1" in2="SourceAlpha" operator="arithmetic" k2="-1" k3="1" result="shadowInnerInner1"/><feColorMatrix values="0 0 0 0 1 0 0 0 0 0.568627451 0 0 0 0 0.247058824 0 0 0 1 0" in="shadowInnerInner1"/></filter></defs><g id="页面-1" stroke="none" stroke-width="1" fill="none" fill-rule="evenodd"><g id="标准区屏POI点位分类" transform="translate(-1760 -1794)"><g id="编组-2备份-22" transform="translate(1770 1804)"><g id="橙色" fill-rule="nonzero"><use fill="#000" filter="url(#filter-2)" xlink:href="#path-1"/><use fill-opacity=".8" fill="#020F2B" xlink:href="#path-1"/><use fill="#000" filter="url(#filter-3)" xlink:href="#path-1"/><circle stroke="#FF913F" stroke-width="3" stroke-linejoin="square" cx="72" cy="72" r="70.5"/></g><g id="编组" transform="translate(52 17.124)"><path id="矩形" d="M0 0h44v44H0z"/><path d="M6.492 2.874c0-.285.232-.517.517-.517h29.982c.285 0 .517.232.517.517v38.252a.517.517 0 0 1-.517.517H7.009a.517.517 0 0 1-.517-.517v-8.27c0-.286.232-.518.517-.518h3.619v-4.135H7.009a.517.517 0 0 1-.517-.517v-3.101c0-.286.232-.517.517-.517h3.619v-4.136H7.009a.517.517 0 0 1-.517-.517v-3.101c0-.286.232-.517.517-.517h3.619v-4.135H7.009a.517.517 0 0 1-.517-.517v-8.27zM23.111 6.99c2.101 0 3.88 1.78 3.88 3.882 0 2.101-1.779 3.881-3.88 3.881-2.103 0-3.881-1.78-3.881-3.881.16-2.102 1.778-3.882 3.88-3.882zm3.88 21.023c1.132-.647 1.94-1.778 1.94-3.235v-5.66c0-1.94-1.615-3.718-3.719-3.718h-4.528c-1.94 0-3.719 1.617-3.719 3.719v5.66c0 1.456.81 2.587 1.941 3.234V39.17h2.911l1.131-7.116 1.133 7.116h2.749V28.012h.16z" id="形状" fill="#FF913F"/></g></g></g></g></svg>