<svg width="164" height="164" viewBox="0 0 164 164" xmlns="http://www.w3.org/2000/svg" xmlns:xlink="http://www.w3.org/1999/xlink"><defs><circle id="path-1" cx="72" cy="72" r="72"/><filter x="-10.4%" y="-10.4%" width="120.8%" height="120.8%" filterUnits="objectBoundingBox" id="filter-2"><feOffset in="SourceAlpha" result="shadowOffsetOuter1"/><feGaussianBlur stdDeviation="5" in="shadowOffsetOuter1" result="shadowBlurOuter1"/><feComposite in="shadowBlurOuter1" in2="SourceAlpha" operator="out" result="shadowBlurOuter1"/><feColorMatrix values="0 0 0 0 1 0 0 0 0 0.866666667 0 0 0 0 0.466666667 0 0 0 0.4 0" in="shadowBlurOuter1"/></filter><filter x="-13.9%" y="-13.9%" width="127.8%" height="127.8%" filterUnits="objectBoundingBox" id="filter-3"><feGaussianBlur stdDeviation="10" in="SourceAlpha" result="shadowBlurInner1"/><feOffset in="shadowBlurInner1" result="shadowOffsetInner1"/><feComposite in="shadowOffsetInner1" in2="SourceAlpha" operator="arithmetic" k2="-1" k3="1" result="shadowInnerInner1"/><feColorMatrix values="0 0 0 0 1 0 0 0 0 0.866666667 0 0 0 0 0.466666667 0 0 0 1 0" in="shadowInnerInner1"/></filter></defs><g id="页面-1" stroke="none" stroke-width="1" fill="none" fill-rule="evenodd"><g id="标准区屏POI点位分类" transform="translate(-1827 -2017)"><g id="编组-2备份-21" transform="translate(1837 2027)"><g id="黄色" fill-rule="nonzero"><use fill="#000" filter="url(#filter-2)" xlink:href="#path-1"/><use fill-opacity=".8" fill="#020F2B" xlink:href="#path-1"/><use fill="#000" filter="url(#filter-3)" xlink:href="#path-1"/><circle stroke="#FD7" stroke-width="3" stroke-linejoin="square" cx="72" cy="72" r="70.5"/></g><g id="应急仓库" transform="translate(52 17.124)"><path id="28" d="M0 0h44v44H0z"/><path d="M40.399 17.654c-2.193-1.57-16.341-11.991-17.712-12.98-.67-.486-.675-.49-1.348-.005C19.075 6.3 5.721 16.157 3.783 17.536c-.28.2-.386.418-.386.763.014 3.48.01 17.305.01 20.736 0 .658 0 .658.654.658h36.142c.4 0 .4 0 .4-.398V18.148c.004-.194-.014-.358-.204-.494zM16.358 36.33c0 .36 0 .36-.44.36h-4.09c-1.393 0-2.781-.005-4.173.004-.277 0-.372-.073-.372-.305a619.83 619.83 0 0 0 0-5.8c0-.222.086-.296.352-.296 2.805.005 5.605.005 8.41 0 .231 0 .317.052.317.264-.009 1.92-.004 3.85-.004 5.773zm-.278-8.078c-1.624-.005-3.249 0-4.873 0-1.198 0-2.396-.005-3.594.004-.254.005-.33-.063-.33-.277.009-1.942.009-3.884 0-5.823 0-.24.104-.303.375-.303 1.402.009 2.804.003 4.207.003 1.393 0 2.781.006 4.175-.003.227 0 .322.04.322.253-.009 1.983-.009 3.967.005 5.945 0 .2-.113.2-.287.2zm10.4 8.437c-1.323.005-2.648 0-3.974 0-1.393 0-2.786-.004-4.175.005-.286 0-.368-.082-.363-.314a300.6 300.6 0 0 0 .018-4.04c-.004-.611-.032-1.22.01-1.833.008-.177.096-.218.286-.218 2.831.004 5.663.004 8.499 0 .221 0 .29.078.29.246 0 .512.005 1.025.01 1.542v4.107c-.01.596-.01.5-.6.505z" id="形状" fill="#FD7"/></g></g></g></g></svg>