<svg width="164" height="164" viewBox="0 0 164 164" xmlns="http://www.w3.org/2000/svg" xmlns:xlink="http://www.w3.org/1999/xlink"><defs><circle id="path-1" cx="72" cy="72" r="72"/><filter x="-10.4%" y="-10.4%" width="120.8%" height="120.8%" filterUnits="objectBoundingBox" id="filter-2"><feOffset in="SourceAlpha" result="shadowOffsetOuter1"/><feGaussianBlur stdDeviation="5" in="shadowOffsetOuter1" result="shadowBlurOuter1"/><feComposite in="shadowBlurOuter1" in2="SourceAlpha" operator="out" result="shadowBlurOuter1"/><feColorMatrix values="0 0 0 0 1 0 0 0 0 0.568627451 0 0 0 0 0.247058824 0 0 0 0.4 0" in="shadowBlurOuter1"/></filter><filter x="-13.9%" y="-13.9%" width="127.8%" height="127.8%" filterUnits="objectBoundingBox" id="filter-3"><feGaussianBlur stdDeviation="10" in="SourceAlpha" result="shadowBlurInner1"/><feOffset in="shadowBlurInner1" result="shadowOffsetInner1"/><feComposite in="shadowOffsetInner1" in2="SourceAlpha" operator="arithmetic" k2="-1" k3="1" result="shadowInnerInner1"/><feColorMatrix values="0 0 0 0 1 0 0 0 0 0.568627451 0 0 0 0 0.247058824 0 0 0 1 0" in="shadowInnerInner1"/></filter></defs><g id="页面-1" stroke="none" stroke-width="1" fill="none" fill-rule="evenodd"><g id="标准区屏POI点位分类" transform="translate(-1963 -1794)"><g id="编组-2备份-22" transform="translate(1973 1804)"><g id="橙色" fill-rule="nonzero"><use fill="#000" filter="url(#filter-2)" xlink:href="#path-1"/><use fill-opacity=".8" fill="#020F2B" xlink:href="#path-1"/><use fill="#000" filter="url(#filter-3)" xlink:href="#path-1"/><circle stroke="#FF913F" stroke-width="3" stroke-linejoin="square" cx="72" cy="72" r="70.5"/></g><g id="三防应急人员" transform="translate(52 17.124)"><path id="28" d="M0 0h44v44H0z"/><path d="M38.344 32.065c2.754 1.032 4.303 2.409 4.303 3.958 0 3.44-9.292 6.366-20.647 6.366-11.357 0-20.647-2.926-20.647-6.366 0-1.549 1.72-2.926 4.301-3.958-.515.344-.86.861-.86 1.377 0 2.409 7.743 4.3 17.206 4.3s17.206-1.891 17.206-4.3c0-.516-.345-1.033-.862-1.377zM11.85 2.987c2.064 0 3.785 1.721 3.785 3.786s-1.72 3.785-3.785 3.785c-2.065 0-3.786-1.72-3.786-3.785 0-2.065 1.72-3.786 3.786-3.786zm20.302 0c-2.064 0-3.785 1.721-3.785 3.786s1.72 3.785 3.785 3.785c2.065 0 3.786-1.72 3.786-3.785-.173-2.065-1.72-3.786-3.786-3.786zm-3.785 21.68v9.807h2.58l1.033-6.883 1.032 6.883h2.926v-10.84c1.204-.515 1.892-1.72 1.892-3.097v-5.678c0-1.892-1.548-3.612-3.613-3.612h-4.302c-.344 0-.516 0-.86.171.516.861.86 1.894.86 3.097v6.022c.173 1.55-.516 3.097-1.548 4.13zM22 1.61c2.236 0 4.128 1.893 4.128 4.13 0 2.236-1.892 4.13-4.128 4.13-2.238 0-4.13-1.894-4.13-4.13.172-2.237 1.892-4.13 4.13-4.13zm4.128 22.367c1.205-.688 2.065-1.892 2.065-3.441v-6.022c0-2.065-1.72-3.957-3.957-3.957h-4.818c-2.065 0-3.957 1.721-3.957 3.957v6.022c0 1.55.861 2.753 2.065 3.441v11.873h3.097l1.204-7.572 1.205 7.572h2.925V23.978h.171zm-10.494.689c-1.032-1.033-1.72-2.58-1.72-4.13v-6.022c0-1.203.344-2.236.859-3.097-.344 0-.515-.171-.86-.171H9.611c-1.892 0-3.613 1.548-3.613 3.612v5.678c0 1.377.86 2.582 1.892 3.097v11.013h2.926l1.033-6.883 1.032 6.883h2.58v-9.98h.173z" id="形状" fill="#FF913F"/></g></g></g></g></svg>