<svg width="164" height="164" viewBox="0 0 164 164" xmlns="http://www.w3.org/2000/svg" xmlns:xlink="http://www.w3.org/1999/xlink"><defs><circle id="path-1" cx="72" cy="72" r="72"/><filter x="-10.4%" y="-10.4%" width="120.8%" height="120.8%" filterUnits="objectBoundingBox" id="filter-2"><feOffset in="SourceAlpha" result="shadowOffsetOuter1"/><feGaussianBlur stdDeviation="5" in="shadowOffsetOuter1" result="shadowBlurOuter1"/><feComposite in="shadowBlurOuter1" in2="SourceAlpha" operator="out" result="shadowBlurOuter1"/><feColorMatrix values="0 0 0 0 0 0 0 0 0 0.917647059 0 0 0 0 0.611764706 0 0 0 0.6 0" in="shadowBlurOuter1"/></filter><filter x="-13.9%" y="-13.9%" width="127.8%" height="127.8%" filterUnits="objectBoundingBox" id="filter-3"><feGaussianBlur stdDeviation="10" in="SourceAlpha" result="shadowBlurInner1"/><feOffset in="shadowBlurInner1" result="shadowOffsetInner1"/><feComposite in="shadowOffsetInner1" in2="SourceAlpha" operator="arithmetic" k2="-1" k3="1" result="shadowInnerInner1"/><feColorMatrix values="0 0 0 0 0 0 0 0 0 0.917647059 0 0 0 0 0.611764706 0 0 0 1 0" in="shadowInnerInner1"/></filter></defs><g id="页面-1" stroke="none" stroke-width="1" fill="none" fill-rule="evenodd"><g id="标准区屏POI点位分类" transform="translate(-1659 -2017)"><g id="编组-2备份-20" transform="translate(1669 2027)"><g id="绿色" fill-rule="nonzero"><use fill="#000" filter="url(#filter-2)" xlink:href="#path-1"/><use fill-opacity=".8" fill="#020F2B" xlink:href="#path-1"/><use fill="#000" filter="url(#filter-3)" xlink:href="#path-1"/><circle stroke="#00EA9C" stroke-width="3" stroke-linejoin="square" cx="72" cy="72" r="70.5"/></g><g id="三防保障" transform="translate(52 17.124)"><path id="28" d="M0 0h44v44H0z"/><path d="M37.588 6.604c-.212-.212-.627-.212-.84-.212-1.263.424-3.983 0-4.822-.627-3.983-2.103-7.137-2.73-9.23-2.73h-1.467c-2.517 0-5.459.84-8.814 2.73-1.263.627-3.568 1.05-5.035.627-.212 0-.628 0-.839.212-.212.212-.424.424-.424.839v10.073c0 9.86 6.501 18.89 15.317 23.29.21.212.627.212.839 0 9.017-4.197 15.526-13.43 15.526-23.29V7.443c.204-.415 0-.627-.211-.84zm-4.823 19.102c-.424.84-.839 1.89-1.466 2.73-2.517 3.78-5.662 7.341-9.23 8.817v-15.32h-11.96s-.628-2.307-.628-5.46V9.97s1.264-.425 2.942-.84c1.678-.424 3.567-1.68 5.246-2.102 2.305-.627 4.195-.627 4.195-.627v15.532c0-.629 0-.629 0 0h11.74c.415-.01-.636 3.56-.839 3.773z" id="形状" fill="#00EA9C"/></g></g></g></g></svg>