<svg width="164" height="164" viewBox="0 0 164 164" xmlns="http://www.w3.org/2000/svg" xmlns:xlink="http://www.w3.org/1999/xlink"><defs><circle id="path-1" cx="72" cy="72" r="72"/><filter x="-10.4%" y="-10.4%" width="120.8%" height="120.8%" filterUnits="objectBoundingBox" id="filter-2"><feOffset in="SourceAlpha" result="shadowOffsetOuter1"/><feGaussianBlur stdDeviation="5" in="shadowOffsetOuter1" result="shadowBlurOuter1"/><feComposite in="shadowBlurOuter1" in2="SourceAlpha" operator="out" result="shadowBlurOuter1"/><feColorMatrix values="0 0 0 0 0.411764706 0 0 0 0 0.901960784 0 0 0 0 0.909803922 0 0 0 0.6 0" in="shadowBlurOuter1"/></filter><filter x="-13.9%" y="-13.9%" width="127.8%" height="127.8%" filterUnits="objectBoundingBox" id="filter-3"><feGaussianBlur stdDeviation="10" in="SourceAlpha" result="shadowBlurInner1"/><feOffset in="shadowBlurInner1" result="shadowOffsetInner1"/><feComposite in="shadowOffsetInner1" in2="SourceAlpha" operator="arithmetic" k2="-1" k3="1" result="shadowInnerInner1"/><feColorMatrix values="0 0 0 0 0.411764706 0 0 0 0 0.901960784 0 0 0 0 0.909803922 0 0 0 1 0" in="shadowInnerInner1"/></filter></defs><g id="页面-1" stroke="none" stroke-width="1" fill="none" fill-rule="evenodd"><g id="标准区屏POI点位分类" transform="translate(-1651 -552)"><g id="编组-2备份-18" transform="translate(1661 562)"><g id="青色" fill-rule="nonzero"><use fill="#000" filter="url(#filter-2)" xlink:href="#path-1"/><use fill-opacity=".8" fill="#020F2B" xlink:href="#path-1"/><use fill="#000" filter="url(#filter-3)" xlink:href="#path-1"/><circle stroke="#69E6E8" stroke-width="3" stroke-linejoin="square" cx="72" cy="72" r="70.5"/></g><g id="编组" transform="translate(52 17.124)"><g id="教育机构-" transform="translate(0 -.786)"><path id="28" d="M0 .786h44v44H0z"/><path d="M41.579 13.824v7.175l1.594 1.594-3.189 3.188-3.188-3.188 2.126-1.86v-5.845c-9.033 3.72-11.955 5.047-14.08 5.845-1.86 1.062-3.454 1.062-5.313.266-2.125-.798-11.69-4.252-16.47-6.643-3.188-1.595-3.455-2.391 0-3.72C7.575 9.04 15.012 6.118 18.732 4.79c2.656-1.065 3.72-1.596 5.845-.267 3.718 1.594 12.486 4.784 16.735 6.643 3.985 1.594 1.33 2.125.267 2.657zm-7.704 6.111v17.383s-4.251 4.518-11.69 4.518c-7.97 0-12.22-4.518-12.22-4.518v-16.85c2.39 1.063 5.314 1.859 8.767 3.188 2.125.798 4.782 1.063 6.64 0 2.126-.798 5.314-2.392 8.503-3.721zm-7.024 6.06H16.555v9.943c0 .622-.41 1.018-.721 1.216.254.325.636 1.06.75 1.485.438-.24 1.13-.382 5.289-1.343a10.572 10.572 0 0 1-.184-1.599l-3.366.708V33.76h3.691c.778 2.687 2.263 4.639 4.03 4.639 1.274 0 1.882-.524 2.122-2.871-.466-.142-1.075-.453-1.456-.792-.085 1.4-.227 1.994-.58 1.994-.778 0-1.697-1.216-2.32-2.97h4.045v-1.57h-4.469a14.489 14.489 0 0 1-.226-1.598h3.691v-4.597zm-5.417 4.597c.043.551.113 1.075.212 1.598h-3.323v-1.598h3.111zm3.706-3.04v1.484h-6.817v-1.485h6.817z" id="形状" fill="#00E9EA"/></g></g></g></g></g></svg>