<svg width="164" height="164" viewBox="0 0 164 164" xmlns="http://www.w3.org/2000/svg" xmlns:xlink="http://www.w3.org/1999/xlink"><defs><circle id="path-1" cx="72" cy="72" r="72"/><filter x="-10.4%" y="-10.4%" width="120.8%" height="120.8%" filterUnits="objectBoundingBox" id="filter-2"><feOffset in="SourceAlpha" result="shadowOffsetOuter1"/><feGaussianBlur stdDeviation="5" in="shadowOffsetOuter1" result="shadowBlurOuter1"/><feComposite in="shadowBlurOuter1" in2="SourceAlpha" operator="out" result="shadowBlurOuter1"/><feColorMatrix values="0 0 0 0 0.988235294 0 0 0 0 0.352941176 0 0 0 0 0.352941176 0 0 0 0.4 0" in="shadowBlurOuter1"/></filter><filter x="-13.9%" y="-13.9%" width="127.8%" height="127.8%" filterUnits="objectBoundingBox" id="filter-3"><feGaussianBlur stdDeviation="10" in="SourceAlpha" result="shadowBlurInner1"/><feOffset in="shadowBlurInner1" result="shadowOffsetInner1"/><feComposite in="shadowOffsetInner1" in2="SourceAlpha" operator="arithmetic" k2="-1" k3="1" result="shadowInnerInner1"/><feColorMatrix values="0 0 0 0 0.988235294 0 0 0 0 0.352941176 0 0 0 0 0.352941176 0 0 0 1 0" in="shadowInnerInner1"/></filter><path id="path-4" d="M14.338 0H41.72v7.874H14.338z"/><mask id="mask-5" maskContentUnits="userSpaceOnUse" maskUnits="objectBoundingBox" x="0" y="0" width="27.384" height="7.874" fill="#fff"><use xlink:href="#path-4"/></mask></defs><g id="页面-1" stroke="none" stroke-width="1" fill="none" fill-rule="evenodd"><g id="标准区屏POI点位分类" transform="translate(-1315 -755)"><g id="编组-2备份-23" transform="translate(1325 765)"><g id="红色" fill-rule="nonzero"><use fill="#000" filter="url(#filter-2)" xlink:href="#path-1"/><use fill-opacity=".8" fill="#020F2B" xlink:href="#path-1"/><use fill="#000" filter="url(#filter-3)" xlink:href="#path-1"/><circle stroke="#FC5A5A" stroke-width="3" stroke-linejoin="square" cx="72" cy="72" r="70.5"/></g><g id="墙-" transform="translate(52 17.124)"><path id="28" d="M.17 0h44v44h-44z"/><g id="编组-3" transform="translate(.955 7.857)"><path d="M29.22 17.06v-6.875a.5.5 0 0 1 .5-.5h11.501a.5.5 0 0 1 .5.5v6.874a.5.5 0 0 1-.5.5h-11.5a.5.5 0 0 1-.5-.5zM.5 9.684h26.382a.5.5 0 0 1 .5.5v6.874a.5.5 0 0 1-.5.5H.5a.5.5 0 0 1-.5-.5v-6.874a.5.5 0 0 1 .5-.5zM.544 0h11.502a.5.5 0 0 1 .5.5v6.874a.5.5 0 0 1-.5.5H.544a.5.5 0 0 1-.5-.5V.5a.5.5 0 0 1 .5-.5zm11.458 27.201H.5a.5.5 0 0 1-.5-.5v-6.874a.5.5 0 0 1 .5-.5h11.502a.5.5 0 0 1 .5.5v6.874a.5.5 0 0 1-.5.5zm29.199 0H14.817a.5.5 0 0 1-.5-.5v-6.874a.5.5 0 0 1 .5-.5h26.384a.5.5 0 0 1 .5.5v6.874a.5.5 0 0 1-.5.5z" id="形状" fill="#FC5A5A"/><use id="路径" stroke="#FC5A5A" mask="url(#mask-5)" stroke-width="2" stroke-dasharray="4,2" xlink:href="#path-4"/></g></g></g></g></g></svg>