<svg width="164" height="164" viewBox="0 0 164 164" xmlns="http://www.w3.org/2000/svg" xmlns:xlink="http://www.w3.org/1999/xlink"><defs><circle id="path-1" cx="72" cy="72" r="72"/><filter x="-10.4%" y="-10.4%" width="120.8%" height="120.8%" filterUnits="objectBoundingBox" id="filter-2"><feOffset in="SourceAlpha" result="shadowOffsetOuter1"/><feGaussianBlur stdDeviation="5" in="shadowOffsetOuter1" result="shadowBlurOuter1"/><feComposite in="shadowBlurOuter1" in2="SourceAlpha" operator="out" result="shadowBlurOuter1"/><feColorMatrix values="0 0 0 0 0.988235294 0 0 0 0 0.352941176 0 0 0 0 0.352941176 0 0 0 0.4 0" in="shadowBlurOuter1"/></filter><filter x="-13.9%" y="-13.9%" width="127.8%" height="127.8%" filterUnits="objectBoundingBox" id="filter-3"><feGaussianBlur stdDeviation="10" in="SourceAlpha" result="shadowBlurInner1"/><feOffset in="shadowBlurInner1" result="shadowOffsetInner1"/><feComposite in="shadowOffsetInner1" in2="SourceAlpha" operator="arithmetic" k2="-1" k3="1" result="shadowInnerInner1"/><feColorMatrix values="0 0 0 0 0.988235294 0 0 0 0 0.352941176 0 0 0 0 0.352941176 0 0 0 1 0" in="shadowInnerInner1"/></filter></defs><g id="页面-1" stroke="none" stroke-width="1" fill="none" fill-rule="evenodd"><g id="标准区屏POI点位分类" transform="translate(-1147 -755)"><g id="编组-2备份-23" transform="translate(1157 765)"><g id="红色" fill-rule="nonzero"><use fill="#000" filter="url(#filter-2)" xlink:href="#path-1"/><use fill-opacity=".8" fill="#020F2B" xlink:href="#path-1"/><use fill="#000" filter="url(#filter-3)" xlink:href="#path-1"/><circle stroke="#FC5A5A" stroke-width="3" stroke-linejoin="square" cx="72" cy="72" r="70.5"/></g><g id="内涝点" transform="translate(52 17.124)"><path id="28" d="M.124.058h44v44h-44z"/><path d="M40.767 32.961s-4.131 3.384-8.236 3.384c-3.913 0-6.306-3.384-9.73-3.384-4.484 0-8.045 3.384-11.226 3.384-3.913 0-8.996-4.222-8.996-4.222-.543-.559-.924-1.398-.76-1.676.327-.59.624-1.399 1.495-.839 0 0 4.891 4.223 8.234 4.223 3.208 0 6.306-3.384 11.226-3.384 3.398 0 6.061 3.384 9.73 3.384 4.512 0 8.234-3.384 8.234-3.384.68-.56 1.362.154 1.497.837.107.404-.463 1.18-1.468 1.677zm-4.486-3.383c-.352.62-2.12 1.675-2.99 1.675-4.865 0-6.548-4.224-11.222-4.224-4.678 0-7.367 4.224-9.733 4.224-2.363 0-3.75-1.675-3.75-1.675v-9.254H4.81l17.232-18.57 7.503 7.734V5.14h2.989v7.452l7.5 7.732h-3.75v9.254h-.002zm-32.967 5.93s4.891 4.221 8.235 4.221c3.207 0 6.306-3.384 11.225-3.384 3.398 0 6.061 3.384 9.73 3.384 4.512 0 8.234-3.384 8.234-3.384.68-.558 1.362.157 1.497.838.08.405-.49 1.181-1.496 1.677 0 0-4.13 3.386-8.235 3.386-3.914 0-6.305-3.386-9.73-3.386-4.486 0-8.044 3.386-11.225 3.386-3.915 0-8.996-4.223-8.996-4.223-.545-.559-.926-1.398-.762-1.678.355-.589.652-1.428 1.523-.837z" id="形状" fill="#FC5A5A"/></g></g></g></g></svg>