<svg width="164" height="164" viewBox="0 0 164 164" xmlns="http://www.w3.org/2000/svg" xmlns:xlink="http://www.w3.org/1999/xlink"><defs><circle id="path-1" cx="72" cy="72" r="72"/><filter x="-10.4%" y="-10.4%" width="120.8%" height="120.8%" filterUnits="objectBoundingBox" id="filter-2"><feOffset in="SourceAlpha" result="shadowOffsetOuter1"/><feGaussianBlur stdDeviation="5" in="shadowOffsetOuter1" result="shadowBlurOuter1"/><feComposite in="shadowBlurOuter1" in2="SourceAlpha" operator="out" result="shadowBlurOuter1"/><feColorMatrix values="0 0 0 0 0.988235294 0 0 0 0 0.352941176 0 0 0 0 0.352941176 0 0 0 0.4 0" in="shadowBlurOuter1"/></filter><filter x="-13.9%" y="-13.9%" width="127.8%" height="127.8%" filterUnits="objectBoundingBox" id="filter-3"><feGaussianBlur stdDeviation="10" in="SourceAlpha" result="shadowBlurInner1"/><feOffset in="shadowBlurInner1" result="shadowOffsetInner1"/><feComposite in="shadowOffsetInner1" in2="SourceAlpha" operator="arithmetic" k2="-1" k3="1" result="shadowInnerInner1"/><feColorMatrix values="0 0 0 0 0.988235294 0 0 0 0 0.352941176 0 0 0 0 0.352941176 0 0 0 1 0" in="shadowInnerInner1"/></filter></defs><g id="页面-1" stroke="none" stroke-width="1" fill="none" fill-rule="evenodd"><g id="标准区屏POI点位分类" transform="translate(-1315 -282)"><g id="编组-2备份-23" transform="translate(1325 292)"><g id="红色" fill-rule="nonzero"><use fill="#000" filter="url(#filter-2)" xlink:href="#path-1"/><use fill-opacity=".8" fill="#020F2B" xlink:href="#path-1"/><use fill="#000" filter="url(#filter-3)" xlink:href="#path-1"/><circle stroke="#FC5A5A" stroke-width="3" stroke-linejoin="square" cx="72" cy="72" r="70.5"/></g><g id="党群服务阵地" transform="translate(52 17.124)"><path id="28" d="M0 0h44v44H0z"/><path d="M39.056 3.143v31.679H8.976a1.509 1.509 0 0 0 0 3.018h30.078v3.017H5.446a.5.5 0 0 1-.5-.5V3.643a.5.5 0 0 1 .5-.5h33.61zm-17.79 4.755c.709.549 1.51.977 2.22 1.467 1.664 1.162 3.082 2.508 3.946 4.374 1.11 2.478.863 4.895-.4 7.342a1236.648 1236.648 0 0 1-6.443-6.607l2.434-2.692c-.584-.49-1.109-1.01-1.664-1.5-.369.305-.647.643-1.018.888a1.834 1.834 0 0 1-.863.304c-.493.033-.987-.03-1.479 0-.27.039-.525.145-.74.308-.676.613-1.295 1.283-1.943 1.926l-2.804 2.876 3.022 2.752 1.942-1.805 6.503 6.393c-.248.154-.37.245-.524.336-2.405 1.348-4.809 1.101-7.088-.243-1.08-.643-2.067-1.5-3.116-2.296l-1.849 1.623 1.573 1.896c-.31.091-.495.214-.71.245-.677.121-1.018.612-1.232 1.192-.216.552.06.98.492 1.346.924.766 2.064.398 2.342-.764.094-.368.246-.703.37-1.104 2.036 1.072 4.038 1.808 6.196 1.961 2.158.152 4.225-.246 6.073-1.5.7.672 1.41 1.336 2.127 1.989l3.053-3.12a49.075 49.075 0 0 1-1.234-1.347c-.648-.67-.648-.67-.216-1.499.093-.244.216-.426.31-.64.83-1.775 1.325-3.67.922-5.66-.894-4.343-4.16-7.524-8.536-8.29-.557-.06-1.112-.09-1.666-.151z" id="形状结合" fill="#FC5A5A"/></g></g></g></g></svg>