<?xml version="1.0" encoding="UTF-8"?>
<svg width="28px" height="28px" viewBox="0 0 28 28" version="1.1" xmlns="http://www.w3.org/2000/svg" xmlns:xlink="http://www.w3.org/1999/xlink">
    <!-- Generator: Sketch 59 (86127) - https://sketch.com -->
    <title>镇街综合服务大厅-1</title>
    <desc>Created with Sketch.</desc>
    <g id="镇街综合服务大厅-1" stroke="none" stroke-width="1" fill="none" fill-rule="evenodd">
        <g id="编组" fill="#F4D168">
            <path d="M14.9749747,3.55271368e-14 C16.4073775,3.55271368e-14 17.5792951,1.15971569 17.5792951,2.57673335 L17.5792951,2.57673335 L17.5793847,18.3762909 C16.256923,19.7017642 15.4392523,21.5310944 15.4392523,23.5514019 C15.4392523,24.8212397 15.7622802,26.0156304 16.3306453,27.056883 L0.650947454,27.056496 C0.259954559,27.056496 4.90612325e-14,26.7986635 0.000529697663,26.4124453 L0.000529697663,26.4124453 L0.000529697663,25.1238133 C0.000529697663,24.7375951 0.261015628,24.4797626 0.651477989,24.4797626 L0.651477989,24.4797626 L1.95284239,24.4797626 L1.95284239,2.57673335 C1.95284239,1.15971569 3.12529054,3.55271368e-14 4.55769328,3.55271368e-14 L4.55769328,3.55271368e-14 Z M7.81349162,16.7490321 L5.20864073,16.7490321 C4.81764784,16.7490321 4.55769328,17.0068646 4.55769328,17.3936133 L4.55769328,17.3936133 L4.55769328,18.6817147 C4.55769328,19.0684634 4.81817837,19.3262959 5.20864073,19.3262959 L5.20864073,19.3262959 L7.81296111,19.3262959 C8.203954,19.3262959 8.4644391,19.0684634 8.4644391,18.6817147 L8.4644391,18.6817147 L8.4644391,17.3936133 C8.4644391,17.0068646 8.20395398,16.7490321 7.81349162,16.7490321 L7.81349162,16.7490321 Z M14.3240273,16.7490321 L11.7197069,16.7490321 C11.328714,16.7490321 11.0687594,17.0068646 11.0687594,17.3936133 L11.0687594,17.3936133 L11.0687594,18.6817147 C11.0687594,19.0684634 11.3292445,19.3262959 11.7191764,19.3262959 L11.7191764,19.3262959 L14.3240273,19.3262959 C14.7150202,19.3262959 14.9749747,19.0684634 14.9749747,18.6817147 L14.9749747,18.6817147 L14.9749747,17.3936133 C14.9749747,17.0068646 14.7144896,16.7490321 14.3240273,16.7490321 L14.3240273,16.7490321 Z M24.0903613,6.44209864 C25.522764,6.44209864 26.6946817,7.60181433 26.6946817,9.01883198 L26.6946817,9.01883198 L26.694893,17.3654002 C25.5595357,16.6428633 24.2118259,16.2242991 22.7663551,16.2242991 C21.3394905,16.2242991 20.0078862,16.6321571 18.8817655,17.33765 L18.8817206,6.44209864 Z M7.81349162,11.5955654 L5.20864073,11.5955654 C4.81764784,11.5955654 4.55769328,11.8533978 4.55769328,12.239616 L4.55769328,12.239616 L4.55769328,13.528248 C4.55769328,13.9149967 4.81817837,14.1722987 5.20864073,14.1722987 L5.20864073,14.1722987 L7.81296111,14.1722987 C8.203954,14.1722987 8.4644391,13.9149967 8.4644391,13.528248 L8.4644391,13.528248 L8.4644391,12.239616 C8.4644391,11.8533979 8.20395398,11.5955654 7.81349162,11.5955654 L7.81349162,11.5955654 Z M14.3240273,11.5955654 L11.7197069,11.5955654 C11.328714,11.5955654 11.0687594,11.8533978 11.0687594,12.239616 L11.0687594,12.239616 L11.0687594,13.528248 C11.0687594,13.9149967 11.3292445,14.1722987 11.7191764,14.1722987 L11.7191764,14.1722987 L14.3240273,14.1722987 C14.7150202,14.1722987 14.9749747,13.9149967 14.9749747,13.528248 L14.9749747,13.528248 L14.9749747,12.239616 C14.9749747,11.8533979 14.7144896,11.5955654 14.3240273,11.5955654 L14.3240273,11.5955654 Z M24.0908918,11.5955654 L21.4860409,11.5955654 C21.095048,11.5955654 20.8350935,11.8533978 20.8350935,12.239616 L20.8350935,12.239616 L20.8350935,13.528248 C20.8350935,13.9149967 21.0955786,14.1722987 21.4860409,14.1722987 L21.4860409,14.1722987 L24.0903613,14.1722987 C24.4808237,14.1722987 24.7418393,13.9149967 24.7418393,13.528248 L24.7418393,13.528248 L24.7413087,13.528248 L24.7413087,12.239616 C24.7413088,11.8533979 24.4808237,11.5955654 24.0908918,11.5955654 L24.0908918,11.5955654 Z M7.81349162,6.44209864 L5.20864073,6.44209864 C4.81764784,6.44209864 4.55769328,6.69993114 4.55769328,7.08614935 L4.55769328,7.08614935 L4.55769328,8.37478129 C4.55769328,8.76099948 4.81817837,9.01883198 5.20864073,9.01883198 L5.20864073,9.01883198 L7.81296111,9.01883198 C8.203954,9.01883198 8.4644391,8.76099951 8.4644391,8.37478129 L8.4644391,8.37478129 L8.4644391,7.08614935 C8.4644391,6.69993114 8.20395398,6.44209864 7.81349162,6.44209864 L7.81349162,6.44209864 Z M14.3240273,6.44209864 L11.7197069,6.44209864 C11.328714,6.44209864 11.0687594,6.69993114 11.0687594,7.08614935 L11.0687594,7.08614935 L11.0687594,8.37478129 C11.0687594,8.76099948 11.3292445,9.01883198 11.7191764,9.01883198 L11.7191764,9.01883198 L14.3240273,9.01883198 C14.7150202,9.01883198 14.9749747,8.76099951 14.9749747,8.37478129 L14.9749747,8.37478129 L14.9749747,7.08614935 C14.9749747,6.69993114 14.7144896,6.44209864 14.3240273,6.44209864 L14.3240273,6.44209864 Z" id="形状结合" fill-rule="nonzero"></path>
            <text id="镇" font-family="SourceHanSansCN-Bold, Source Han Sans CN" font-size="9.42056075" font-weight="bold">
                <tspan x="17.7943925" y="26.5794393">镇</tspan>
            </text>
        </g>
    </g>
</svg>