<?xml version="1.0" encoding="UTF-8"?>
<svg width="28px" height="28px" viewBox="0 0 28 28" version="1.1" xmlns="http://www.w3.org/2000/svg" xmlns:xlink="http://www.w3.org/1999/xlink">
    <!-- Generator: Sketch 59 (86127) - https://sketch.com -->
    <title>政务云-1</title>
    <desc>Created with Sketch.</desc>
    <g id="政务云-1" stroke="none" stroke-width="1" fill="none" fill-rule="evenodd">
        <path d="M14.0010196,0 C6.3001448,0 0,6.3001448 0,14.0009788 C0,21.7018537 6.3001448,28.0019577 14.0010196,28.0019577 C21.699896,28.0019577 28,21.7018537 28,14.0009788 C28,6.3001448 21.6998552,0 14.0010196,0 M21.0005506,18.2011706 L8.40030182,18.2011706 L7.70087485,18.2011706 C5.73820504,18.2011706 4.20002855,16.662056 4.20002855,14.7004466 C4.20002855,12.7408765 5.73820504,11.2017619 7.70087485,11.2017619 L8.53974673,11.2017619 C9.09944329,8.82051269 11.3390452,7.00144788 14.0010196,7.00144788 C17.0793711,7.00144788 19.5998614,9.52214204 19.5998614,12.6003304 L21.0005506,12.6003304 C22.5386048,12.6003304 23.7998491,13.8606367 23.7998491,15.4017497 C23.7998491,16.9409866 22.5386047,18.2011706 21.0005506,18.2011706" id="形状" fill="#319EFF" fill-rule="nonzero"></path>
    </g>
</svg>