<?xml version="1.0" encoding="UTF-8"?>
<svg width="28px" height="28px" viewBox="0 0 28 28" version="1.1" xmlns="http://www.w3.org/2000/svg" xmlns:xlink="http://www.w3.org/1999/xlink">
    <!-- Generator: Sketch 59 (86127) - https://sketch.com -->
    <title>政专网-1</title>
    <desc>Created with Sketch.</desc>
    <g id="政专网-1" stroke="none" stroke-width="1" fill="none" fill-rule="evenodd">
        <g id="编组" fill="#EFD177" fill-rule="nonzero">
            <g id="形状结合">
                <path d="M7.35201641,11.4367737 C11.3465482,11.7867396 15.0786056,12.9542037 18.5235817,15.012987 C19.2235133,15.4313055 19.8906357,15.9070403 20.5741627,16.3581681 C20.6698565,16.4210526 20.7546138,16.4976077 20.8393712,16.5659604 C20.5030759,18.1435407 20.9295967,18.9419002 22.4497608,19.5242652 C22.4497608,20.65892 22.4743677,21.8181818 22.4415585,22.9719754 C22.4224197,23.6473001 22.3321941,24.3226247 22.2310321,24.9897471 C22.2009569,25.1866029 22.0642515,25.4217362 21.9029392,25.5338346 C19.9562543,26.8844839 17.7990431,27.6855776 15.4395079,27.9261791 C15.3547505,27.9343814 15.2727273,27.9726589 15.190704,27.9972659 C14.3950786,28 13.6021873,28 12.809296,28 C12.1093643,27.8714969 11.4012304,27.7840055 10.7149692,27.6090225 C6.33766232,26.4825701 3.20164045,23.8468899 1.24675324,19.7840055 C1.10457963,19.4914559 1.08817496,19.2317156 1.18933697,18.911825 C1.83732057,16.8694463 2.71770335,14.936432 3.82228298,13.1018455 C3.95625429,12.8803828 4.06561859,12.7874231 4.35816814,12.8585099 C5.26315789,13.0799727 6.21736158,12.6561859 6.61927547,11.8250171 C6.79425838,11.4586466 7.00205059,11.4066986 7.35201641,11.4367737 Z M24.0082023,19.3547505 C24.582365,20.0027341 25.1483253,20.6561859 25.7033493,21.3233083 C25.7580314,21.3889269 25.7552973,21.5775803 25.7006152,21.6486671 C25.0580998,22.4935065 24.3964457,23.3274094 23.6910458,24.2241969 L23.6914508,21.4141414 C23.6910458,20.9636212 23.6901344,20.5185692 23.6883117,20.0738209 C23.6883117,19.8961039 23.6500342,19.7183869 23.6527683,19.5406699 C23.6555024,19.4531784 23.6910458,19.3274094 23.7539303,19.291866 C23.8113466,19.2590567 23.9589884,19.2973342 24.0082023,19.3547505 Z M20.1831852,1.48735475 C24.7491456,3.89336979 27.3547505,7.65003416 27.9289132,12.7956254 C27.9371155,12.8803828 27.9726589,12.962406 27.9945318,13.0444293 C27.9972659,13.6814764 27.9972659,14.3212577 27.9972659,14.961039 C27.8961039,15.6008202 27.8140807,16.2433356 27.6883117,16.8776487 C27.4531784,18.0560492 27.0594668,19.1852358 26.4962406,20.278879 C25.9166097,19.6390977 25.3506494,19.0211893 24.7983595,18.3896104 C24.7464115,18.32946 24.7573479,18.1790841 24.7819549,18.0861244 C25.1319207,16.8557758 24.5413534,15.7539303 23.3110048,15.3957621 C23.1168831,15.3383459 23.0266576,15.2617908 22.9774436,15.0567327 C21.9521531,10.7833219 20.0054682,6.97744362 17.16473,3.6254272 C17.0854409,3.53246753 17.0854409,3.34107998 17.1018455,3.20164048 C17.1346548,2.95010253 17.2522215,2.70676692 17.2522215,2.4579631 C17.2522215,2.19002052 17.3397129,2.07518798 17.5885168,2.00410115 C18.252905,1.8181818 18.9036227,1.59398496 19.570745,1.42447028 C19.7593985,1.37525634 20.0136705,1.39712921 20.1831852,1.48735475 Z M22.8024607,16.0464704 C23.5789474,16.0492139 24.1695147,16.6561859 24.1613124,17.443609 C24.1531101,18.1982228 23.5406699,18.7997266 22.7887901,18.7942584 C22.0232399,18.7887902 21.3943951,18.1462748 21.4135338,17.391661 C21.4326726,16.6370472 22.0451128,16.0437457 22.8024607,16.0464704 Z M2.96103896,12.1394395 C1.94668491,13.7552973 1.12098427,15.4641148 0.366370484,17.2522215 C0.270676711,16.6233766 0.174982938,15.9917977 0.0765550352,15.3629528 C0.054682168,15.2262474 0.0246069961,15.0922761 2.66453526e-14,14.9583048 L2.66453526e-14,13.0416952 C0.0492139375,12.7300068 0.0820232383,12.4155844 0.153110043,12.1093643 C0.177717012,12.0027341 0.292549551,11.8496241 0.385509223,11.8332194 C1.11551606,11.7074505 1.848257,11.6008202 2.58099795,11.5105947 C2.87081339,11.4750513 3.11961721,11.8851675 2.96103896,12.1394395 Z M13.5912509,3.78127135 C13.6814764,3.85235815 13.7662338,3.92071086 13.8537252,3.98906356 C14.4142173,4.42105262 15.0430622,4.59330143 15.7238551,4.37183868 C16.0300752,4.2734108 16.177717,4.36910458 16.3581681,4.58509912 C18.7286398,7.41216678 20.4347232,10.5946685 21.468216,14.1380725 C21.5748462,14.5044429 21.67054,14.8762816 21.7634997,15.2481203 C21.7908407,15.3602187 21.7908407,15.4777854 21.8127136,15.6937799 C21.6076555,15.5625427 21.4900888,15.4996582 21.3834587,15.4203691 C17.6377307,12.6807929 13.4654819,11.0102529 8.87491456,10.3786739 C8.35543404,10.3075871 7.83321941,10.2447026 7.31373891,10.2255639 C6.97744362,10.2118934 6.72043747,10.1544771 6.62200957,9.78810662 C6.6001367,9.70608338 6.531784,9.63226247 6.4634313,9.51742993 C8.50854408,7.1825017 10.8735475,5.28503076 13.5912509,3.78127135 Z M4.8229665,9.44087493 C5.58304852,9.44907726 6.21462748,10.0943267 6.19822282,10.8407382 C6.17908405,11.6035543 5.55570745,12.2050581 4.784689,12.1995899 C4.01913876,12.1941217 3.40396446,11.5652768 3.41763499,10.8024607 C3.43130553,10.0369105 4.05468216,9.42993849 4.8229665,9.44087493 Z M11.8796993,0.410116191 C12.2870814,0.69446341 12.6698565,1.01708816 13.0580998,1.32604238 C13.1073137,1.36431988 13.1838688,1.40533151 13.1920711,1.45727955 C13.2084757,1.55023922 13.2139439,1.67053996 13.1701982,1.7416268 C12.9596719,2.07245385 13.2987013,2.55365688 12.8065619,2.82159946 C10.9036227,3.85782638 9.15926178,5.12371839 7.57621326,6.60560493 C6.90635679,7.23444977 6.28298018,7.90977444 5.64593302,8.57416268 C5.50649351,8.72180452 5.39439507,8.79835953 5.16199589,8.76281613 C4.13123717,8.60697198 3.31373889,9.07450444 2.85714286,10.0177717 C2.80519482,10.1244019 2.68762815,10.252905 2.58373205,10.2693096 C1.89473684,10.3759398 1.2002734,10.4524949 0.448393723,10.5481887 C0.924128516,8.70266575 1.71155162,7.05673273 2.84620643,5.58578264 C5.02255638,2.76144909 7.8605605,0.981544758 11.3656869,0.295283652 C11.5269993,0.265208453 11.745728,0.31715652 11.8796993,0.410116191 Z M15.1797676,1.03896103 C15.923445,1.04442923 16.4894054,1.61038959 16.4921493,2.35133287 C16.4948736,3.11414901 15.9261791,3.68557757 15.1660971,3.68557757 C14.4278879,3.68284347 13.8537252,3.11414901 13.8455229,2.37593986 C13.8373206,1.63226249 14.4360902,1.03349282 15.1797676,1.03896103 Z M13.4982912,0 C13.9084074,0.00273410156 14.3185236,0.00273410156 14.7286398,0.00273410156 L16.1023772,0.20647578 C16.3311309,0.241512867 16.5595808,0.277967639 16.7874231,0.31715652 C17.1346548,0.377306891 17.4736842,0.475734793 17.8263841,0.631578937 C17.5092276,0.740943246 17.1948052,0.863978117 16.8721804,0.954203687 C16.8038277,0.973342453 16.6862611,0.907723852 16.6206425,0.84757348 C15.9179768,0.229665078 15.1414901,0.114832539 14.277512,0.462064258 C13.8400547,0.63978127 13.7088175,0.240601512 13.4982912,0 Z"></path>
            </g>
        </g>
    </g>
</svg>