<?xml version="1.0" encoding="UTF-8"?>
<svg width="28px" height="28px" viewBox="0 0 28 28" version="1.1" xmlns="http://www.w3.org/2000/svg" xmlns:xlink="http://www.w3.org/1999/xlink">
    <!-- Generator: Sketch 59 (86127) - https://sketch.com -->
    <title>银行一体机-1</title>
    <desc>Created with Sketch.</desc>
    <g id="银行一体机-1" stroke="none" stroke-width="1" fill="none" fill-rule="evenodd">
        <g id="编组" transform="translate(1.000000, 0.000000)" fill="#128BED" fill-rule="nonzero">
            <g transform="translate(1.157025, 0.000000)" id="形状">
                <path d="M23.0177076,15.2953921 C23.0177076,16.1236873 22.8261643,16.7863234 22.4430778,17.2833005 C22.0599913,17.7802776 21.3818247,18.0287662 20.4085778,18.0287662 L2.64164679,18.0287662 C1.77193688,18.0287662 1.1144776,17.7543934 0.669268956,17.2056478 C0.22406031,16.6569023 0.00145598758,15.8959061 0.00145598758,14.9226593 L0.00145598758,3.08839231 C0.00145598758,2.13585289 0.198176087,1.3852104 0.591616285,0.836464862 C0.985056483,0.287719323 1.69946105,0.0133465528 2.73483,0.0133465528 L20.2532725,0.0133465528 C21.3093488,0.0133465528 22.0341071,0.246304565 22.4275473,0.712220589 C22.8209875,1.17813661 23.0177076,1.88736434 23.0177076,2.83990377 L23.0177076,15.2953921 L23.0177076,15.2953921 Z M14.3827306,3.02627018 C14.3827306,2.44646357 14.1238884,2.15656026 13.6062039,2.15656026 L3.29392923,2.15656026 C2.73483,2.15656026 2.45528038,2.46717095 2.45528038,3.08839231 L2.45528038,8.02710217 C2.45528038,8.31700547 2.51222567,8.53443295 2.62611626,8.6793846 C2.74000684,8.82433625 2.95225747,8.90716577 3.26286816,8.92787315 L13.4819596,8.95893422 C14.0824736,8.95893422 14.3827306,8.66903091 14.3827306,8.08922431 L14.3827306,3.02627018 Z M20.6881275,12.2824685 C20.6881275,12.0132726 20.5431758,11.8786746 20.2532725,11.8786746 L17.1471657,11.8786746 C16.8572624,11.8786746 16.7123107,12.0132726 16.7123107,12.2824685 C16.7123107,12.5516644 16.8572624,12.6862624 17.1471657,12.6862624 L20.2532725,12.6862624 C20.5431758,12.6862624 20.6881275,12.5516644 20.6881275,12.2824685 Z M20.6570664,3.67855261 C20.6570664,3.26440503 20.4810537,3.05733124 20.1290282,3.05733124 L17.5820206,3.05733124 C17.3542395,3.05733124 17.204111,3.11945338 17.1316351,3.24369765 C17.0591593,3.36794193 17.0229214,3.54395465 17.0229214,3.77173581 L17.0229214,7.09527012 C17.0229214,7.32305129 17.0591593,7.51459454 17.1316351,7.66989988 C17.204111,7.82520522 17.3542395,7.9028579 17.5820206,7.9028579 L20.1600893,7.9028579 C20.4085778,7.9028579 20.5535295,7.83038207 20.5949443,7.68543042 C20.636359,7.54047877 20.6570664,7.35411236 20.6570664,7.12633119 L20.6570664,3.67855261 Z M6.08942537,10.7915372 C5.9651811,10.7915372 5.8616442,10.8070678 5.77881469,10.8381288 C5.69598517,10.8691899 5.65457041,10.9571963 5.65457041,11.1021479 L5.65457041,11.599125 C5.65457041,11.7854914 5.75810731,11.8786746 5.9651811,11.8786746 L6.24473071,11.8786746 L6.67958567,11.8786746 L7.11444062,11.8786746 L7.36292917,11.8786746 C7.50788082,11.8786746 7.59588718,11.8527904 7.62694825,11.801022 C7.65800932,11.7492535 7.67353985,11.6819545 7.67353985,11.599125 L7.67353985,11.1021479 C7.67353985,11.0193184 7.66318616,10.9416657 7.64247878,10.8691899 C7.62177141,10.7967141 7.54929558,10.7708299 7.42505131,10.7915372 L6.08942537,10.7915372 L6.08942537,10.7915372 Z M9.41295968,10.7915372 C9.2887154,10.7915372 9.19035535,10.7967141 9.11787953,10.8070678 C9.0454037,10.8174215 8.9988121,10.8950741 8.97810472,11.0400258 C8.97810472,11.1642701 8.98328156,11.2781606 8.99363525,11.3816975 C9.00398894,11.4852344 8.9988121,11.5887713 8.97810472,11.6923082 C8.97810472,11.7958451 9.01434263,11.8527904 9.08681846,11.8631441 C9.15929429,11.8734978 9.23694696,11.8786746 9.31977647,11.8786746 L10.8107077,11.8786746 C10.9556594,11.8786746 11.0281352,11.8061988 11.0281352,11.6612472 L11.0281352,11.0089647 C11.0281352,10.9468426 11.0177815,10.8898973 10.9970742,10.8381288 C10.9763668,10.7863604 10.903891,10.7708299 10.7796467,10.7915372 L9.41295968,10.7915372 Z M2.79695213,10.7915372 C2.67270786,10.7915372 2.57434781,10.8070678 2.50187198,10.8381288 C2.42939616,10.8691899 2.39315825,10.9571963 2.39315825,11.1021479 C2.37245087,11.1849774 2.36727402,11.2729838 2.37762771,11.366167 C2.3879814,11.4593502 2.39315825,11.5473566 2.39315825,11.6301861 C2.37245087,11.733723 2.39833509,11.8061988 2.47081092,11.8476136 C2.54328674,11.8890283 2.61058572,11.9097357 2.67270786,11.9097357 L4.07045593,11.9097357 C4.25682234,11.8890283 4.35000555,11.7854914 4.35000555,11.599125 L4.35000555,11.133209 C4.35000555,11.0503795 4.33965186,10.9727268 4.31894448,10.900251 C4.2982371,10.8277752 4.22576127,10.7915372 4.101517,10.7915372 C3.99798011,10.8122446 3.81679054,10.8174215 3.55794831,10.8070678 C3.29910607,10.7967141 3.04544068,10.7915372 2.79695213,10.7915372 Z M12.7986161,10.7915372 C12.6536645,10.7915372 12.5449507,10.7967141 12.4724749,10.8070678 C12.3999991,10.8174215 12.3637612,10.8950741 12.3637612,11.0400258 C12.3430538,11.1642701 12.3378769,11.2781606 12.3482306,11.3816975 C12.3585843,11.4852344 12.3637612,11.5887713 12.3637612,11.6923082 C12.3430538,11.7958451 12.368938,11.8527904 12.4414138,11.8631441 C12.5138897,11.8734978 12.5915423,11.8786746 12.6743718,11.8786746 L14.2274253,11.8786746 C14.3930843,11.8786746 14.4759138,11.8061988 14.4759138,11.6612472 L14.4759138,11.0089647 C14.4759138,10.9468426 14.4655601,10.8898973 14.4448527,10.8381288 C14.4241454,10.7863604 14.3516695,10.7708299 14.2274253,10.7915372 L12.7986161,10.7915372 Z M6.08942537,12.8105067 C5.9651811,12.8105067 5.8616442,12.8156835 5.77881469,12.8260372 C5.69598517,12.8363909 5.65457041,12.9140436 5.65457041,13.0589952 L5.65457041,13.7112777 C5.65457041,13.8355219 5.75810731,13.8976441 5.9651811,13.8976441 L7.42505131,13.8976441 C7.59071034,13.8976441 7.67353985,13.8148146 7.67353985,13.6491555 L7.67353985,13.0279342 C7.67353985,12.965812 7.66318616,12.9088667 7.64247878,12.8570983 C7.62177141,12.8053298 7.54929558,12.7897993 7.42505131,12.8105067 L6.08942537,12.8105067 Z M9.41295968,12.8105067 C9.2887154,12.8105067 9.19035535,12.8156835 9.11787953,12.8260372 C9.0454037,12.8363909 8.9988121,12.9140436 8.97810472,13.0589952 C8.97810472,13.1832395 8.98328156,13.2971301 8.99363525,13.400667 C9.00398894,13.5042039 8.9988121,13.6077408 8.97810472,13.7112777 C8.97810472,13.7941072 9.01434263,13.8458756 9.08681846,13.866583 C9.15929429,13.8872904 9.23694696,13.8976441 9.31977647,13.8976441 L10.8107077,13.8976441 C10.9556594,13.8976441 11.0281352,13.8148146 11.0281352,13.6491555 L11.0281352,13.0279342 C11.0281352,12.965812 11.0177815,12.9088667 10.9970742,12.8570983 C10.9763668,12.8053298 10.903891,12.7897993 10.7796467,12.8105067 L9.41295968,12.8105067 Z M2.79695213,12.8105067 C2.67270786,12.8105067 2.57434781,12.8156835 2.50187198,12.8260372 C2.42939616,12.8363909 2.39315825,12.9140436 2.39315825,13.0589952 C2.37245087,13.2039469 2.36727402,13.3281912 2.37762771,13.431728 C2.3879814,13.5352649 2.39315825,13.6284481 2.39315825,13.7112777 C2.37245087,13.8148146 2.39833509,13.8769367 2.47081092,13.8976441 C2.54328674,13.9183515 2.61058572,13.9287051 2.67270786,13.9287051 L4.13257807,13.9287051 C4.2982371,13.9287051 4.38106661,13.8458756 4.38106661,13.6802166 L4.38106661,13.0589952 C4.38106661,12.9968731 4.37071293,12.9399278 4.35000555,12.8881594 C4.32929817,12.8363909 4.25682234,12.8105067 4.13257807,12.8105067 C4.02904117,12.8312141 3.84267476,12.8363909 3.57347884,12.8260372 C3.30428291,12.8156835 3.04544068,12.8105067 2.79695213,12.8105067 L2.79695213,12.8105067 Z M12.7986161,12.8105067 C12.6743718,12.8105067 12.570835,12.8156835 12.4880054,12.8260372 C12.4051759,12.8363909 12.3637612,12.9140436 12.3637612,13.0589952 C12.3430538,13.1832395 12.3378769,13.2971301 12.3482306,13.400667 C12.3585843,13.5042039 12.3637612,13.6077408 12.3637612,13.7112777 C12.3430538,13.7941072 12.368938,13.8458756 12.4414138,13.866583 C12.5138897,13.8872904 12.5915423,13.8976441 12.6743718,13.8976441 L14.2274253,13.8976441 C14.3930843,13.8976441 14.4759138,13.8148146 14.4759138,13.6491555 L14.4759138,13.0279342 C14.4759138,12.965812 14.4655601,12.9088667 14.4448527,12.8570983 C14.4241454,12.8053298 14.3516695,12.7897993 14.2274253,12.8105067 L12.7986161,12.8105067 L12.7986161,12.8105067 Z M6.08942537,14.767354 C5.9651811,14.767354 5.8616442,14.7725308 5.77881469,14.7828845 C5.69598517,14.7932382 5.65457041,14.8708909 5.65457041,15.0158425 L5.65457041,15.668125 C5.65457041,15.7716619 5.68563148,15.8286072 5.74775362,15.8389608 C5.80987576,15.8493145 5.88235158,15.8544914 5.9651811,15.8544914 L7.42505131,15.8544914 C7.59071034,15.8544914 7.67353985,15.7820155 7.67353985,15.6370639 L7.67353985,15.0158425 C7.67353985,14.933013 7.66318616,14.8708909 7.64247878,14.8294761 C7.62177141,14.7880614 7.54929558,14.767354 7.42505131,14.767354 L6.08942537,14.767354 L6.08942537,14.767354 Z M9.41295968,14.767354 C9.2887154,14.767354 9.19035535,14.7725308 9.11787953,14.7828845 C9.0454037,14.7932382 8.9988121,14.8708909 8.97810472,15.0158425 C8.97810472,15.1607942 8.98328156,15.2798616 8.99363525,15.3730448 C9.00398894,15.466228 8.9988121,15.5645881 8.97810472,15.668125 C8.97810472,15.7716619 9.01434263,15.8286072 9.08681846,15.8389608 C9.15929429,15.8493145 9.23694696,15.8544914 9.31977647,15.8544914 L10.8107077,15.8544914 C10.9556594,15.8544914 11.0281352,15.7820155 11.0281352,15.6370639 L11.0281352,15.0158425 C11.0281352,14.933013 11.0177815,14.8708909 10.9970742,14.8294761 C10.9763668,14.7880614 10.903891,14.767354 10.7796467,14.767354 L9.41295968,14.767354 L9.41295968,14.767354 Z M2.79695213,14.7984151 C2.67270786,14.7984151 2.57434781,14.8035919 2.50187198,14.8139456 C2.42939616,14.8242993 2.39315825,14.8915983 2.39315825,15.0158425 C2.37245087,15.1607942 2.36727402,15.2850385 2.37762771,15.3885754 C2.3879814,15.4921122 2.39315825,15.5956491 2.39315825,15.699186 C2.37245087,15.7820155 2.39833509,15.833784 2.47081092,15.8544914 C2.54328674,15.8751988 2.61058572,15.8855524 2.67270786,15.8855524 L4.13257807,15.8855524 C4.27752972,15.8855524 4.35000555,15.8027229 4.35000555,15.6370639 L4.35000555,15.0158425 C4.35000555,14.9537204 4.33965186,14.8967751 4.31894448,14.8450067 C4.2982371,14.7932382 4.23611496,14.7777077 4.13257807,14.7984151 L2.79695213,14.7984151 L2.79695213,14.7984151 Z M12.7986161,14.767354 C12.6743718,14.767354 12.570835,14.7725308 12.4880054,14.7828845 C12.4051759,14.7932382 12.3637612,14.8708909 12.3637612,15.0158425 C12.3430538,15.1607942 12.3378769,15.2798616 12.3482306,15.3730448 C12.3585843,15.466228 12.3637612,15.5645881 12.3637612,15.668125 C12.3430538,15.7716619 12.368938,15.8286072 12.4414138,15.8389608 C12.5138897,15.8493145 12.5915423,15.8544914 12.6743718,15.8544914 L14.2274253,15.8544914 C14.3930843,15.8544914 14.4759138,15.7820155 14.4759138,15.6370639 L14.4759138,15.0158425 C14.4759138,14.933013 14.4655601,14.8708909 14.4448527,14.8294761 C14.4241454,14.7880614 14.3516695,14.767354 14.2274253,14.767354 L12.7986161,14.767354 L12.7986161,14.767354 Z M23.0177076,25.6076668 C23.0177076,26.3945472 22.8520486,26.9743538 22.5207305,27.3470866 C22.1894124,27.7198195 21.5474837,27.9061859 20.5949443,27.9061859 L2.70376893,27.9061859 C1.91688853,27.9061859 1.26978294,27.7508805 0.76245216,27.4402698 C0.255121379,27.1296592 0.00145598758,26.4980841 0.00145598758,25.5455447 L0.00145598758,21.9424608 C0.00145598758,21.0520435 0.172291863,20.4204684 0.513963614,20.0477356 C0.855635365,19.6750028 1.51309464,19.4886364 2.48634145,19.4886364 L20.3464557,19.4886364 C21.1747509,19.4886364 21.8270333,19.6491185 22.303303,19.9700829 C22.7795727,20.2910473 23.0177076,20.9070918 23.0177076,21.8182165 L23.0177076,25.6076668 Z M20.6260053,22.5947432 C20.6260053,22.2427178 20.5328221,21.9528144 20.3464557,21.7250333 C20.1600893,21.4972521 19.870186,21.3626541 19.4767458,21.3212394 L3.5113567,21.3212394 C3.09720913,21.300532 2.79177529,21.4195994 2.59505519,21.6784417 C2.39833509,21.9372839 2.28962135,22.2737788 2.26891397,22.6879264 L2.26891397,24.4584073 C2.28962135,24.8518475 2.36727402,25.1365739 2.50187198,25.3125867 C2.63646995,25.4885994 2.9315501,25.5973131 3.38711243,25.6387279 L19.569929,25.669789 C19.9633692,25.669789 20.237742,25.5662521 20.3930473,25.3591783 C20.5483527,25.1521045 20.6260053,24.8518475 20.6260053,24.4584073 L20.6260053,22.5947432 L20.6260053,22.5947432 Z"></path>
            </g>
        </g>
    </g>
</svg>