<?xml version="1.0" encoding="UTF-8"?>
<svg width="28px" height="28px" viewBox="0 0 28 28" version="1.1" xmlns="http://www.w3.org/2000/svg" xmlns:xlink="http://www.w3.org/1999/xlink">
    <!-- Generator: Sketch 59 (86127) - https://sketch.com -->
    <title>政务小屋-1</title>
    <desc>Created with Sketch.</desc>
    <g id="政务小屋-1" stroke="none" stroke-width="1" fill="none" fill-rule="evenodd">
        <g id="编组" transform="translate(0.000000, 2.000000)" fill="#FF8B1D" fill-rule="nonzero">
            <path d="M26.8107495,8.86676357 L27.9382663,8.86676357 L24.7268901,0.373175975 L21.5162581,8.86676357 L22.6482403,8.86676357 L21.5162581,11.8530085 L22.6482403,11.8530085 L21.5162581,14.844091 L24.0924293,14.844091 L24.0924293,22.0773158 L0.701107624,22.0773158 L0.701107624,24.5932039 L27.3038055,24.5932039 L27.3038055,22.0773158 L25.3617229,22.0773158 L25.3617229,14.8437189 L27.9382663,14.8437189 L26.8107495,11.8526364 L27.9382663,11.8526364 L26.8107495,8.86639144 L26.8107495,8.86676357 Z M2.07012884,21.2962406 L19.1533104,21.2962406 L19.1533104,11.2371536 L20.640293,11.2371536 C21.1329769,11.2371536 21.3837842,10.6492076 21.038459,10.2964399 L11.0776111,0.227677936 C10.9551947,0.103245878 10.7879481,0.0331687117 10.6133942,0.0331687117 C10.4388402,0.0331687117 10.2715936,0.103245878 10.1491773,0.227677936 L0.189817853,10.2964399 C-0.156251657,10.64437 0.0949278104,11.2371536 0.587611719,11.2371536 L2.07459424,11.2371536 L2.07459424,21.2962406 L2.06975671,21.2962406 L2.07012884,21.2962406 Z M11.1304518,11.2367815 L14.5591447,11.2367815 L14.5591447,14.6416589 L11.1304518,14.6416589 L11.1304518,11.2367815 Z M11.1304518,15.6902867 L14.5591447,15.6902867 L14.5591447,19.0951641 L11.1304518,19.0951641 L11.1304518,15.6902867 Z M5.46086575,11.2371536 L8.88993081,11.2371536 L8.88993081,14.642031 L5.46086575,14.642031 L5.46086575,11.2371536 Z M5.46086575,15.6906589 L8.88993081,15.6906589 L8.88993081,19.0955363 L5.46086575,19.0955363 L5.46086575,15.6906589 Z" id="形状"></path>
        </g>
    </g>
</svg>