<?xml version="1.0" encoding="UTF-8"?>
<svg width="28px" height="28px" viewBox="0 0 28 28" version="1.1" xmlns="http://www.w3.org/2000/svg" xmlns:xlink="http://www.w3.org/1999/xlink">
    <!-- Generator: Sketch 59 (86127) - https://sketch.com -->
    <title>综合一体机-1</title>
    <desc>Created with Sketch.</desc>
    <g id="综合一体机-1" stroke="none" stroke-width="1" fill="none" fill-rule="evenodd">
        <g id="编组" transform="translate(0.000000, 1.000000)" fill="#FF4952" fill-rule="nonzero">
            <path d="M0.00706260032,26.8569021 L0.523247726,24.9000535 L27.3516586,24.9000535 L27.8678438,26.8569021 L0.00706260032,26.8569021 Z M20.4355805,13.0888175 L24.776351,15.0313537 L27.0936865,23.9354735 L20.4355805,23.9354735 L20.4355805,13.0888175 Z M12.4510433,23.9354735 L12.4510433,18.7463884 L15.444489,18.7463884 L15.444489,23.9354735 L12.4510433,23.9354735 L12.4510433,23.9354735 Z M16.4768593,17.7159444 L11.4186731,17.7159444 L11.4186731,23.9354735 L8.4923221,23.9354735 L8.4923221,5.14815409 L19.403237,5.14815409 L19.403237,23.9354735 L16.4768593,23.9354735 L16.4768593,17.7159444 Z M15.444489,8.83247726 L12.4510433,8.83247726 L12.4510433,14.1708935 L15.444489,14.1708935 L15.444489,8.83247726 L15.444489,8.83247726 Z M14.0148475,0.0264044944 L16.4768593,2.48418941 L14.0148475,4.94221509 L14.0148475,0.0264044944 Z M3.0987694,15.0313537 L7.43932584,13.0888175 L7.43932584,23.9354735 L0.781193151,23.9354735 L3.09874264,15.0313537 L3.0987694,15.0313537 Z" id="形状"></path>
        </g>
    </g>
</svg>