<?xml version="1.0" encoding="UTF-8"?>
<svg width="28px" height="28px" viewBox="0 0 28 28" version="1.1" xmlns="http://www.w3.org/2000/svg" xmlns:xlink="http://www.w3.org/1999/xlink">
    <!-- Generator: Sketch 59 (86127) - https://sketch.com -->
    <title>专家服务大厅-1</title>
    <desc>Created with Sketch.</desc>
    <g id="专家服务大厅-1" stroke="none" stroke-width="1" fill="none" fill-rule="evenodd">
        <g id="编组" fill="#FF8B1D" fill-rule="nonzero">
            <path d="M19.0847451,12.1415929 C23.4701739,12.141939 27.0298781,15.6998781 27.0235184,20.0764468 C27.017107,24.4401752 23.4611407,27.9917115 19.0965817,27.9933389 C14.7111529,27.9953109 11.1480223,24.4396906 11.1504437,20.0641256 C11.1532484,15.6905335 14.7075188,12.141143 19.0847451,12.1415929 Z M14.0168932,1.01341443 C14.9295581,1.54170096 15.548765,2.32028677 15.9364312,3.28299756 C16.3280084,4.25508767 16.5397175,5.27244763 16.5996274,6.31988365 C16.6209817,6.69062562 16.6340643,7.06202516 16.6549341,7.43294016 C16.6575645,7.4810134 16.6698856,7.54272297 16.7017268,7.57293747 C17.0301061,7.88394264 17.1432115,8.27894616 17.128433,8.7117438 C17.1125125,9.1794975 17.0532602,9.64098677 16.7731271,10.0416317 C16.6129176,10.2705767 16.4092726,10.4414115 16.1547162,10.5583932 C16.0931797,10.586808 16.0304665,10.6526361 16.0063779,10.7157647 L15.7129546,11.543289 L15.7129546,11.543289 C15.6905966,11.6025412 15.6297177,11.6657044 15.5713307,11.6900006 C14.3341628,12.2037163 13.2621883,12.9571407 12.3399712,13.9231394 C11.0334449,15.2914098 10.1877504,16.9006348 9.87639915,18.7728609 C9.52403508,20.8924445 9.88640144,22.8950117 10.9093682,24.7810818 C10.9456049,24.8478791 10.9779306,24.9167875 11.0245502,25.0100268 C10.943459,25.0169142 10.888983,25.0251513 10.8346453,25.0256012 C9.32575463,25.0392029 7.82094791,24.9535433 6.31991367,24.809462 C5.22675788,24.7044208 4.1329099,24.596403 3.04442648,24.4518372 C2.29934313,24.3528873 1.56277383,24.190082 0.82308963,24.052542 C0.48498488,23.9896904 0.311692767,23.7666291 0.221429987,23.4456563 C0.0220419744,22.7351829 -0.0159251649,22.0128729 0.0440192941,21.2835371 C0.0794945116,20.8512586 0.124591283,20.4188071 0.187304559,19.9896089 C0.300582976,19.2148302 0.773389726,18.6933965 1.41457396,18.2949319 C1.96556462,17.9524317 2.58999763,17.809631 3.19837162,17.6202106 C3.84190932,17.4198535 4.49313045,17.2366976 5.11957083,16.9913475 C5.76324699,16.7394216 6.33683794,16.3613077 6.75745286,15.790797 C6.9823138,15.4860563 7.09683819,15.1431754 7.08323648,14.7640924 C7.07340724,14.4926464 7.05731361,14.2206813 7.02858734,13.9507236 C6.99397738,13.6247669 6.83529067,13.3572665 6.59533978,13.1383238 C6.43305364,12.9902624 6.27547448,12.8339984 6.09823684,12.7055262 C5.71960382,12.4307923 5.47228098,12.0626807 5.30404195,11.637255 C5.18491445,11.3360791 5.08776428,11.0264237 4.97237465,10.7237942 C4.94904754,10.6627422 4.897894,10.5903727 4.84175665,10.5675302 C4.5234834,10.4385388 4.29440004,10.2049908 4.1438813,9.91551301 C3.72603517,9.11214648 3.682392,8.31777854 4.27321875,7.56238142 C4.31014757,7.5151042 4.31738107,7.43799321 4.32229568,7.37348022 C4.37646027,6.66449506 4.3925539,5.95059529 4.4883889,5.24745923 C4.60066363,4.42343054 4.78773048,3.60871194 5.18986369,2.86691653 C6.00056751,1.37055466 7.24898359,0.446226298 8.91756468,0.134736605 C10.717629,-0.201395381 12.424281,0.0913703071 14.0168932,1.01341443 Z M18.5200251,16.1532073 L18.4635136,16.2486963 L17.6186987,17.9585855 C17.5327411,18.1322371 17.3783153,18.2604912 17.1949711,18.3140042 L17.1010723,18.3343964 L15.2159397,18.6078977 C14.6869807,18.6848199 14.4562734,19.2985951 14.7658691,19.7030377 L14.8350639,19.7809141 L16.1995312,21.1099274 C16.3345935,21.2416132 16.4084557,21.421837 16.4070488,21.6072194 L16.3970598,21.7187209 L16.0749362,23.5967627 C15.9843649,24.1258892 16.5012658,24.5365722 16.9829608,24.3617933 L17.0727092,24.3220474 L18.7593001,23.4357008 C18.9262971,23.3479099 19.1203817,23.3332781 19.296408,23.3918054 L19.3994955,23.4357008 L21.0860864,24.3220474 C21.5608703,24.5718333 22.1110273,24.2069687 22.0938796,23.6944719 L22.0838594,23.5967627 L21.7617358,21.7187209 C21.7296585,21.5330102 21.7756641,21.3437822 21.8856836,21.1944164 L21.9592644,21.1099274 L23.3237317,19.7799011 C23.7064435,19.4066859 23.5327156,18.7743923 23.0445993,18.6292061 L22.9428559,18.6068847 L21.0577233,18.3333835 C20.8658384,18.3055992 20.69628,18.1981833 20.5885983,18.0404793 L20.5400969,17.9575725 L19.696295,16.2486963 C19.4608814,15.771251 18.8107363,15.7394213 18.5200251,16.1532073 Z" id="形状结合"></path>
        </g>
    </g>
</svg>