<?xml version="1.0" encoding="UTF-8"?>
<svg width="164px" height="164px" viewBox="0 0 164 164" version="1.1" xmlns="http://www.w3.org/2000/svg" xmlns:xlink="http://www.w3.org/1999/xlink">
    <title>地下车库</title>
    <defs>
        <circle id="path-1" cx="72" cy="72" r="72"></circle>
        <filter x="-10.4%" y="-10.4%" width="120.8%" height="120.8%" filterUnits="objectBoundingBox" id="filter-2">
            <feOffset dx="0" dy="0" in="SourceAlpha" result="shadowOffsetOuter1"></feOffset>
            <feGaussianBlur stdDeviation="5" in="shadowOffsetOuter1" result="shadowBlurOuter1"></feGaussianBlur>
            <feComposite in="shadowBlurOuter1" in2="SourceAlpha" operator="out" result="shadowBlurOuter1"></feComposite>
            <feColorMatrix values="0 0 0 0 0.380392157   0 0 0 0 0.619607843   0 0 0 0 0.964705882  0 0 0 0.6 0" type="matrix" in="shadowBlurOuter1"></feColorMatrix>
        </filter>
        <filter x="-13.9%" y="-13.9%" width="127.8%" height="127.8%" filterUnits="objectBoundingBox" id="filter-3">
            <feGaussianBlur stdDeviation="10" in="SourceAlpha" result="shadowBlurInner1"></feGaussianBlur>
            <feOffset dx="0" dy="0" in="shadowBlurInner1" result="shadowOffsetInner1"></feOffset>
            <feComposite in="shadowOffsetInner1" in2="SourceAlpha" operator="arithmetic" k2="-1" k3="1" result="shadowInnerInner1"></feComposite>
            <feColorMatrix values="0 0 0 0 0.380392157   0 0 0 0 0.619607843   0 0 0 0 0.964705882  0 0 0 1 0" type="matrix" in="shadowInnerInner1"></feColorMatrix>
        </filter>
    </defs>
    <g id="页面-1" stroke="none" stroke-width="1" fill="none" fill-rule="evenodd">
        <g id="标准区屏POI点位分类" transform="translate(-1819.000000, -1252.000000)">
            <g id="蓝色" transform="translate(1829.000000, 1262.000000)">
                <g fill-rule="nonzero">
                    <use fill="black" fill-opacity="1" filter="url(#filter-2)" xlink:href="#path-1"></use>
                    <use fill-opacity="0.8" fill="#020F2B" xlink:href="#path-1"></use>
                    <use fill="black" fill-opacity="1" filter="url(#filter-3)" xlink:href="#path-1"></use>
                    <circle stroke="#619EF6" stroke-width="3" stroke-linejoin="square" cx="72" cy="72" r="70.5"></circle>
                </g>
                <g id="地下车库" transform="translate(52.000000, 17.124000)">
                    <polygon id="28" points="0 0 44 0 44 44 0 44"></polygon>
                    <path d="M39.853,15.1077374 L38.5267143,15.1077374 L41.8298571,11.7134517 L41.8298571,13.071166 L39.853,15.1077374 Z M35.2204286,15.1077374 L41.8298571,8.31288027 L41.8298571,9.67059456 L36.5388571,15.1077374 L35.2204286,15.1077374 Z M33.2372857,15.1077374 L31.9141429,15.1077374 L39.8404286,6.94573741 L37.8572857,6.95202313 L29.931,15.1077374 L28.6062857,15.1077374 L36.5388571,6.94573741 L34.5494286,6.95202313 L26.62,15.1077374 L25.3078571,15.1077374 L33.2372857,6.94573741 L31.2541429,6.95202313 L23.3247143,15.1077374 L21.9937143,15.1077374 L29.9294286,6.94573741 L27.94,6.95202313 L20.0168571,15.1077374 L18.6968571,15.1077374 L26.6278571,6.94573741 L24.6462857,6.95202313 L16.7074286,15.1077374 L15.3905714,15.1077374 L23.331,6.94573741 L21.3415714,6.95202313 L13.4152857,15.1077374 L12.0952857,15.1077374 L20.0168571,6.94573741 L18.0337143,6.95202313 L10.1011429,15.1077374 L8.778,15.1077374 L16.7168571,6.94573741 L14.7274286,6.95202313 L6.79485714,15.1077374 L5.478,15.1077374 L13.4074286,6.94573741 L11.4242857,6.95202313 L3.49014286,15.1077374 L2.17014286,15.1077374 L10.1042857,6.94573741 L8.118,6.95202313 L2.827,12.3875946 L2.17014286,11.7134517 L6.798,6.94573741 L4.81485714,6.95202313 L2.83171429,8.99330884 L2.17014286,8.30502313 L3.49485714,6.94102313 L2.17014286,6.95202313 L2.17014286,5.59273741 L41.8298571,5.59273741 L41.8298571,6.95516599 L41.173,6.95516599 L33.2372857,15.1077374 Z M6.74142857,22.4997374 C7.25842857,22.5075946 7.76757143,22.5783088 8.26728571,22.7118803 C8.77171429,22.8045946 9.24471429,23.004166 9.669,23.2870231 C11.7165714,21.4295946 14.6394286,18.7707374 15.0998571,18.439166 C15.7991429,17.966166 15.7991429,17.8105946 16.621,17.8105946 L20.9518571,17.8105946 L25.8955714,17.8153088 C26.8604286,17.8153088 27.511,17.691166 28.0672857,18.2317374 C28.5057143,18.6465946 31.8795714,21.5835946 33.8077143,23.3043088 C34.2461429,23.0167374 34.7317143,22.8187374 35.2455714,22.7165946 C35.7405714,22.5830231 36.2544286,22.5170231 36.7667143,22.5075946 C37.3057143,22.366166 37.8635714,22.641166 38.0851429,23.1503088 C38.3318571,23.7553088 38.8724286,24.9228803 37.2082857,24.852166 C36.4744286,24.8175946 35.8427143,24.764166 35.3555714,24.7280231 C36.1255714,25.4807374 36.7714286,26.1753088 36.7714286,28.2574517 L36.7714286,36.5074517 C36.7714286,37.2365946 36.0548571,38.3994517 35.3162857,38.3994517 L29.9514286,38.3994517 C29.9027143,38.4088803 29.8492857,38.4088803 29.8005714,38.404166 C29.3668571,38.3695946 29.04,37.9877374 29.0761429,37.5508803 L29.0761429,35.8647374 L14.1177143,35.8647374 L14.1177143,37.3418803 C13.981,37.953166 13.4231429,38.382166 12.8008571,38.3507374 L8.31128571,38.3507374 C7.36528571,38.1967374 6.67542857,37.3733088 6.68328571,36.4178803 L6.68328571,28.2543088 C6.68328571,26.9185946 7.08242857,25.578166 7.70471429,25.0470231 L8.07242857,24.720166 C7.59471429,24.7688803 6.985,24.808166 6.303,24.8443088 C4.64042857,24.9150231 5.17942857,23.7474517 5.42771429,23.1408803 C5.64928571,22.6364517 6.20557143,22.3630231 6.74142857,22.4997374 Z M30.646,23.5698803 C29.9781429,22.9413088 27.214,20.6375946 26.9704286,20.4113088 C26.5901429,20.1284517 26.1297143,19.979166 25.6567143,19.979166 L17.0594286,19.979166 C16.4795714,19.9335946 15.9138571,20.1724517 15.5382857,20.6203088 C14.9584286,21.2300231 12.3891429,23.2728803 11.8627143,23.7773088 C11.341,24.2990231 11.6552857,24.423166 12.5305714,24.423166 L30.2075714,24.423166 C31.2384286,24.423166 31.3138571,24.1984517 30.646,23.5698803 Z M31.6312857,31.0404517 C32.2237143,31.0404517 32.9591429,31.2133088 33.3661429,30.6020231 C33.7731429,30.0095946 33.5782857,30.6727374 34.2414286,29.1075946 C34.9265714,27.5455946 33.2592857,27.5455946 32.2818571,27.8378803 C31.2997143,28.1207374 30.195,28.1914517 28.7964286,28.4695946 C27.4135714,28.7398803 27.1872857,29.0227374 27.0631429,29.5444517 C26.9704286,30.0410231 26.8997143,30.5407374 26.8557143,31.0404517 L31.6312857,31.0404517 Z M9.02785714,28.6738803 C9.69571429,30.2437374 9.47885714,29.5758803 9.88585714,30.1683088 C10.2928571,30.7607374 11.044,30.6020231 11.6411429,30.6020231 L16.1652857,30.6020231 C16.1212857,30.1023088 16.0505714,29.6025946 15.9578571,29.1075946 C15.8117143,28.5858803 15.6042857,28.328166 14.2025714,28.0500231 C12.8008571,27.7718803 11.9774286,27.679166 10.9952857,27.3868803 C9.99585714,27.1087374 8.35057143,27.1087374 9.02785714,28.6738803 Z" id="形状" fill="#4F9EFD"></path>
                </g>
            </g>
        </g>
    </g>
</svg>