<?xml version="1.0" encoding="UTF-8"?>
<svg width="164px" height="164px" viewBox="0 0 164 164" version="1.1" xmlns="http://www.w3.org/2000/svg" xmlns:xlink="http://www.w3.org/1999/xlink">
    <title>无人机</title>
    <defs>
        <circle id="path-1" cx="72" cy="72" r="72"></circle>
        <filter x="-10.4%" y="-10.4%" width="120.8%" height="120.8%" filterUnits="objectBoundingBox" id="filter-2">
            <feOffset dx="0" dy="0" in="SourceAlpha" result="shadowOffsetOuter1"></feOffset>
            <feGaussianBlur stdDeviation="5" in="shadowOffsetOuter1" result="shadowBlurOuter1"></feGaussianBlur>
            <feComposite in="shadowBlurOuter1" in2="SourceAlpha" operator="out" result="shadowBlurOuter1"></feComposite>
            <feColorMatrix values="0 0 0 0 0.411764706   0 0 0 0 0.901960784   0 0 0 0 0.909803922  0 0 0 0.6 0" type="matrix" in="shadowBlurOuter1"></feColorMatrix>
        </filter>
        <filter x="-13.9%" y="-13.9%" width="127.8%" height="127.8%" filterUnits="objectBoundingBox" id="filter-3">
            <feGaussianBlur stdDeviation="10" in="SourceAlpha" result="shadowBlurInner1"></feGaussianBlur>
            <feOffset dx="0" dy="0" in="shadowBlurInner1" result="shadowOffsetInner1"></feOffset>
            <feComposite in="shadowOffsetInner1" in2="SourceAlpha" operator="arithmetic" k2="-1" k3="1" result="shadowInnerInner1"></feComposite>
            <feColorMatrix values="0 0 0 0 0.411764706   0 0 0 0 0.901960784   0 0 0 0 0.909803922  0 0 0 1 0" type="matrix" in="shadowInnerInner1"></feColorMatrix>
        </filter>
    </defs>
    <g id="页面-1" stroke="none" stroke-width="1" fill="none" fill-rule="evenodd">
        <g id="标准区屏POI点位分类" transform="translate(-1315.000000, -1252.000000)">
            <g id="编组-2备份-18" transform="translate(1325.000000, 1262.000000)">
                <g id="青色" fill-rule="nonzero">
                    <use fill="black" fill-opacity="1" filter="url(#filter-2)" xlink:href="#path-1"></use>
                    <use fill-opacity="0.8" fill="#020F2B" xlink:href="#path-1"></use>
                    <use fill="black" fill-opacity="1" filter="url(#filter-3)" xlink:href="#path-1"></use>
                    <circle stroke="#69E6E8" stroke-width="3" stroke-linejoin="square" cx="72" cy="72" r="70.5"></circle>
                </g>
                <g id="教育机构-" transform="translate(52.000000, 17.124000)">
                    <rect id="bg" fill-opacity="0" fill="#FFFFFF" x="0" y="0" width="44" height="44"></rect>
                    <path d="M9.92682178,26.9693927 C10.1580759,26.9693927 10.3869799,26.9794546 10.6131199,26.9991646 L10.0859507,27.5679996 C9.97630934,27.683692 9.86470119,27.8001582 9.7511726,27.9173327 L9.04732658,28.628356 C8.92630159,28.7481018 8.80344882,28.8684248 8.67881461,28.9892596 L7.90484193,29.7252362 L7.5417024,30.0532257 L7.29484896,30.2877948 L7.16824976,30.420912 L6.90751872,30.7327736 C6.63101176,31.100829 6.41362265,31.4952241 6.25581525,31.9029158 C5.636952,32.693499 5.2682806,33.6890911 5.2682806,34.770791 C5.2682806,37.3436322 7.35398053,39.4293322 9.92682178,39.4293322 C12.4021145,39.4293322 14.4265053,37.4987913 14.5764554,35.0612485 L14.8783821,34.7463416 L15.5607437,34.0630421 C15.7917683,33.8361566 16.0203631,33.6166884 16.2459427,33.40498 L16.9130505,32.793477 L17.3619543,32.4015443 C17.5998437,33.1487338 17.7282201,33.9447704 17.7282201,34.770791 C17.7282201,39.0793843 14.2354151,42.5721893 9.92682178,42.5721893 C5.61822846,42.5721893 2.12542346,39.0793843 2.12542346,34.770791 C2.12542346,30.4621977 5.61822846,26.9693927 9.92682178,26.9693927 Z M34.0731782,26.9693927 C38.3817715,26.9693927 41.8745765,30.4621977 41.8745765,34.770791 C41.8745765,39.0793843 38.3817715,42.5721893 34.0731782,42.5721893 C29.7645849,42.5721893 26.2717799,39.0793843 26.2717799,34.770791 C26.2717799,33.8559682 26.4292425,32.9779227 26.7185431,32.1622791 L27.350891,32.710622 C27.4598799,32.8074251 27.569875,32.9063075 27.6808019,33.0072317 L28.3569513,33.6369763 C28.4713084,33.7459167 28.5864488,33.8568235 28.7022981,33.9696591 L29.4037215,34.666822 L29.4154775,34.6814039 C29.414918,34.7111323 29.414637,34.7409288 29.414637,34.770791 C29.414637,37.3436322 31.500337,39.4293322 34.0731782,39.4293322 C36.6460195,39.4293322 38.7317194,37.3436322 38.7317194,34.770791 C38.7317194,34.1614138 38.6147161,33.5793643 38.4019491,33.045882 C38.3128159,32.2385212 38.0031149,31.4402506 37.4791198,30.7483888 C37.3427899,30.5917339 37.225407,30.4619095 37.1179439,30.3484344 L36.8162874,30.0465761 C36.7679623,30.0009473 36.7198602,29.9567856 36.670853,29.9127808 L36.4709109,29.7403526 L35.8019689,29.1061302 L35.1143726,28.4324027 C34.6202462,27.9391769 34.154223,27.4525249 33.721319,26.9778242 C33.8380154,26.9720074 33.9552914,26.9693927 34.0731782,26.9693927 Z M11.5544293,7.53055146 L11.7634168,7.67457576 L11.8173288,7.71923503 C11.9991552,7.88405208 12.1721934,8.05831176 12.3468232,8.25397951 L12.4409806,8.36297402 L13.1416272,9.10710642 L13.8473815,9.82931258 L14.5546577,10.5249791 C17.2642174,13.1349386 19.9282787,13.4868068 21.6378706,13.5540533 L21.9039285,13.5588976 L22.5776894,13.5570811 L22.8098759,13.5491694 C24.258719,13.4391632 26.3476778,13.6421126 28.5828927,11.6576816 L29.2930357,11.0112937 C29.649962,10.6786118 30.0092386,10.3322599 30.3689213,9.9747672 L31.0882524,9.24567698 L31.9352272,8.34862591 L32.3094718,7.9383014 L32.4200169,7.83577071 C33.4447084,6.91415932 34.9628806,6.85229097 35.8834592,7.77286957 C36.7436489,8.63305933 36.7502447,10.0259452 35.9328399,11.1020972 C35.823064,11.2229887 35.7091718,11.3400441 35.5874584,11.4564828 L35.2901668,11.7246805 L34.9199127,12.0707795 L34.1950623,12.7665039 L33.4946182,13.4641927 C33.3801466,13.5804553 33.2668685,13.6966629 33.1548719,13.812747 L32.4989782,14.5072224 C30.2621199,16.9288673 30.2397115,19.2356906 30.1060323,20.7938474 L30.0969566,21.0112798 L30.0964918,21.8710459 C30.0336455,23.6891435 30.7608377,26.7513015 33.7950678,29.7797532 L34.5075929,30.4774467 L35.2417941,31.170454 L35.4109862,31.3158681 C35.5929925,31.479296 35.7665769,31.6518665 35.9758826,31.886895 C36.7494588,32.9082935 36.742389,34.3017478 35.8828181,35.1613169 C35.0201993,36.0269974 33.6315231,36.0258651 32.6431654,35.2851998 L32.3615794,35.0497056 L32.1057377,34.7778474 L31.8040636,34.4448495 L31.4477299,34.0670414 L30.7329264,33.3292374 L30.0180126,32.6188024 C27.2814964,29.953476 24.6149642,29.5585813 22.8511807,29.3922984 L22.7360011,29.3853653 L22.1549121,29.3775129 L21.7415551,29.3829688 L21.466399,29.3968858 C19.656814,29.6001012 16.9407237,30.0647638 14.2259517,32.7310328 L13.5183771,33.4400856 L12.8144438,34.172984 L12.3331016,34.6981831 C12.1697173,34.880674 11.9970111,35.0545993 11.762154,35.2637025 C10.7409199,36.037926 9.34718284,36.0306191 8.48743132,35.1708658 C7.62159239,34.3080891 7.62251261,32.9191945 8.3634809,31.9311444 L8.52150432,31.7391536 L8.59636242,31.6523391 L8.80728215,31.4511621 L9.20438973,31.0916527 L9.99141971,30.3431378 C12.9610302,27.4640561 13.7751336,24.5019389 14.2071352,22.4700928 C14.2204836,22.4070358 14.2316783,22.296622 14.2405483,22.159879 L14.260013,21.6916902 C14.2620377,21.6075034 14.2634385,21.5219911 14.264194,21.4377819 L14.2608123,20.9691912 C14.2569899,20.8322249 14.2504152,20.7214984 14.2409172,20.6580394 C13.9523814,18.7219025 13.2605677,15.8204359 10.3321565,12.9276235 L9.58695382,12.2051644 L9.12691254,11.7730308 L8.72592797,11.4107068 L8.5672551,11.2528193 L8.55192452,11.232437 C7.62952382,10.2084806 7.56788605,8.69008082 8.48887488,7.76827524 C9.29180714,6.96610191 10.5585563,6.90708387 11.5544293,7.53055146 Z M21.2567689,19.2472884 C20.3577894,19.6196334 19.771633,20.4968566 19.771633,21.4698955 C19.771633,22.4429345 20.3577894,23.3201577 21.2567689,23.6925027 C22.1557483,24.0648478 23.1905044,23.8589846 23.8838278,23.1656318 C24.3374168,22.7179488 24.5927427,22.1072048 24.5927427,21.4698955 C24.5927427,20.8325863 24.3374168,20.2218423 23.8785149,19.7688808 C23.1905044,19.0808065 22.1557483,18.8749433 21.2567689,19.2472884 Z M9.92682178,1.4278107 C14.2354151,1.4278107 17.7282201,4.9206157 17.7282201,9.22920902 C17.7282201,9.74158036 17.6788262,10.2424152 17.5845404,10.7272115 C17.5374384,10.6873897 17.4907589,10.6475954 17.443871,10.6073889 L16.8259399,10.0642611 C16.7212015,9.96999519 16.6156354,9.87387966 16.5093126,9.77594864 L15.8628637,9.16684981 L15.1697035,8.48492316 L14.4903014,7.7891549 L14.2790003,7.56419785 C13.6088924,5.81366188 11.9130155,4.57066784 9.92682178,4.57066784 C7.35398053,4.57066784 5.2682806,6.65636777 5.2682806,9.22920902 C5.2682806,11.2377523 6.53940557,12.9494085 8.321096,13.603618 L9.01957567,14.2815253 C9.62343061,14.8780638 10.1813802,15.4600247 10.6880454,16.019016 L11.2710829,16.6782431 L11.4449171,16.8829924 C10.9538705,16.9798386 10.446275,17.0306073 9.92682178,17.0306073 C5.61822846,17.0306073 2.12542346,13.5378023 2.12542346,9.22920902 C2.12542346,4.9206157 5.61822846,1.4278107 9.92682178,1.4278107 Z M34.0731782,1.4278107 C38.3817715,1.4278107 41.8745765,4.9206157 41.8745765,9.22920902 C41.8745765,13.5378023 38.3817715,17.0306073 34.0731782,17.0306073 C33.6637238,17.0306073 33.2616368,16.9990635 32.8692147,16.9382734 L33.0246905,16.7517651 L33.5855514,16.113955 C33.6830953,16.0057489 33.7826501,15.8966452 33.8841816,15.7867262 L34.5258108,15.1075231 L34.8383297,14.7872036 L35.5258333,14.1025305 L36.225701,13.4312335 L36.4086385,13.2609334 C37.7976655,12.4545724 38.7317194,10.9509707 38.7317194,9.22920902 C38.7317194,6.65636777 36.6460195,4.57066784 34.0731782,4.57066784 C31.8817381,4.57066784 30.0437155,6.08382863 29.5469321,8.12232878 L29.0265663,8.65038005 C28.6912835,8.98349385 28.3466147,9.31560623 28.0073067,9.63186655 L27.3135605,10.2631515 C27.0254852,10.5188788 26.7439361,10.7596909 26.4704319,10.9849785 C26.3403232,10.4203489 26.2717799,9.83278351 26.2717799,9.22920902 C26.2717799,4.9206157 29.7645849,1.4278107 34.0731782,1.4278107 Z" id="形状结合" fill="#00E9EA"></path>
                </g>
            </g>
        </g>
    </g>
</svg>